<svg xmlns="http://www.w3.org/2000/svg" width="52" height="52" viewBox="0 0 52 52"><path d="M28.571,6.639l21.79,43.43H6.78l21.79-43.43Zm0-4.711c-1.121,0-2.241.756-3.092,2.267L3.284,48.432c-1.7,3.023-.254,5.5,3.215,5.5H50.643c3.468,0,4.915-2.473,3.214-5.5h0L31.662,4.2c-.85-1.512-1.971-2.267-3.092-2.267Zm3.25,42.25a3.25,3.25,0,1,1-3.25-3.25A3.25,3.25,0,0,1,31.821,44.178Zm-3.25-6.5a3.25,3.25,0,0,1-3.25-3.25v-9.75a3.25,3.25,0,0,1,6.5,0v9.75A3.25,3.25,0,0,1,28.571,37.678Z" transform="translate(-2.571 -1.928)" fill="#999"/></svg>