<svg xmlns="http://www.w3.org/2000/svg" width="27.577" height="30.32" viewBox="0 0 27.577 30.32"><g transform="translate(0)"><g transform="translate(0)"><g transform="translate(5.046)"><path d="M23.34.915a.885.885,0,0,1,1.77,0v5.7a.885.885,0,0,1-1.77,0Z" transform="translate(-9.604 -0.006)" fill="#fff"/><path d="M9.49.909a.885.885,0,1,1,1.77,0v5.7a.885.885,0,1,1-1.77,0Z" transform="translate(-6.899)" fill="#fff"/><path d="M7.179,16.309a.909.909,0,0,1,0-1.819H23.393a.909.909,0,1,1,0,1.819Z" transform="translate(-6.27 -2.83)" fill="#fff"/><ellipse cx="1.014" cy="1.038" rx="1.014" ry="1.038" transform="translate(1.666 16.455)" fill="#fff"/><ellipse cx="1.014" cy="1.038" rx="1.014" ry="1.038" transform="translate(1.666 21.637)" fill="#fff"/><ellipse cx="1.014" cy="1.038" rx="1.014" ry="1.038" transform="translate(7.749 16.455)" fill="#fff"/><ellipse cx="1.014" cy="1.038" rx="1.014" ry="1.038" transform="translate(7.749 21.637)" fill="#fff"/><ellipse cx="1.014" cy="1.038" rx="1.014" ry="1.038" transform="translate(13.824 16.455)" fill="#fff"/><ellipse cx="1.014" cy="1.038" rx="1.014" ry="1.038" transform="translate(13.824 21.637)" fill="#fff"/></g><path d="M22.675,3.22H4.973A5,5,0,0,0,0,8.273V25.9a5,5,0,0,0,4.941,5.053h17.7A5,5,0,0,0,27.576,25.9V8.273a5,5,0,0,0-4.9-5.053ZM25.838,25.9a3.219,3.219,0,0,1-3.163,3.219H4.973A3.219,3.219,0,0,1,1.8,25.9V8.273A3.219,3.219,0,0,1,4.973,5.055h17.7a3.219,3.219,0,0,1,3.162,3.219Z" transform="translate(0 -0.629)" fill="#fff"/></g></g></svg>