<svg xmlns="http://www.w3.org/2000/svg" width="16.8" height="15.6" viewBox="0 0 16.8 15.6"><g transform="translate(-1830.4 -205.4)"><g transform="translate(1830.8 206)"><path d="M9.6,12H1.2A1.2,1.2,0,0,1,0,10.8V0H10.8V10.8A1.2,1.2,0,0,1,9.6,12Z" transform="translate(2.6 2.4)" fill="none" stroke="#333" stroke-linecap="round" stroke-linejoin="round" stroke-miterlimit="10" stroke-width="1.2"/><path d="M.4,4.8V0" transform="translate(5.8 6)" fill="none" stroke="#333" stroke-linecap="round" stroke-linejoin="round" stroke-miterlimit="10" stroke-width="1.2"/><path d="M.4,4.8V0" transform="translate(9.4 6)" fill="none" stroke="#333" stroke-linecap="round" stroke-linejoin="round" stroke-miterlimit="10" stroke-width="1.2"/><path d="M0,.4H15.6" transform="translate(0.2 2)" fill="none" stroke="#333" stroke-linecap="round" stroke-linejoin="round" stroke-miterlimit="10" stroke-width="1.2"/><path d="M4.8,0H1.2A1.2,1.2,0,0,0,0,1.2V2.4H6V1.2A1.2,1.2,0,0,0,4.8,0Z" transform="translate(5)" fill="none" stroke="#333" stroke-linecap="round" stroke-linejoin="round" stroke-miterlimit="10" stroke-width="1.2"/></g></g></svg>