<svg xmlns="http://www.w3.org/2000/svg" xmlns:xlink="http://www.w3.org/1999/xlink" width="229.764" height="227.083" viewBox="0 0 229.764 227.083"><defs><linearGradient id="a" x1="0.529" y1="-0.113" x2="0.471" y2="1.293" gradientUnits="objectBoundingBox"><stop offset="0" stop-color="#00c6b7"/><stop offset="0.82" stop-color="#00b09f"/><stop offset="1" stop-color="#0a9"/></linearGradient><linearGradient id="b" x1="0.027" y1="1.032" x2="0.973" y2="-0.032" gradientUnits="objectBoundingBox"><stop offset="0" stop-color="#f7f7f7"/><stop offset="1" stop-color="#fff"/></linearGradient><linearGradient id="c" x1="19.586" y1="19.592" x2="20.681" y2="19.592" xlink:href="#b"/><linearGradient id="d" x1="0.221" y1="2.367" x2="0.779" y2="-1.367" gradientUnits="objectBoundingBox"><stop offset="0" stop-color="#b7b4b1"/><stop offset="0.55" stop-color="#959390"/><stop offset="1" stop-color="#7d7b79"/></linearGradient><linearGradient id="e" x1="0.234" y1="6.96" x2="0.766" y2="-5.959" xlink:href="#d"/><linearGradient id="f" x1="0.234" y1="6.959" x2="0.766" y2="-5.96" xlink:href="#d"/><linearGradient id="h" x1="0.234" y1="6.96" x2="0.766" y2="-5.96" xlink:href="#d"/><linearGradient id="j" x1="0.512" y1="0.001" x2="0.499" y2="1.037" xlink:href="#a"/><linearGradient id="k" x1="-0.18" y1="-0.016" x2="0.855" y2="1.167" xlink:href="#a"/><linearGradient id="l" x1="1.462" y1="0.103" x2="0.046" y2="1.073" xlink:href="#a"/></defs><g transform="translate(0 0.011)"><g transform="translate(0 -0.011)"><path d="M221.9,75.692,123.025,2.676a13.69,13.69,0,0,0-16.292,0L7.872,75.7A19.4,19.4,0,0,0,0,91.3H0l78.195,65.1L106.6,134.862a13.69,13.69,0,0,1,16.543,0L151.552,156.4h0l78.206-65.1h0a19.4,19.4,0,0,0-7.861-15.6Z" transform="translate(0 0.011)" fill="url(#a)"/><rect width="180.199" height="156.395" transform="translate(25.909 24.677)" fill="url(#b)"/><circle cx="25.515" cy="25.515" r="25.515" transform="translate(84.67 75.243) rotate(-76.72)" fill="#5d676d"/><path d="M197.336,102.317a19.064,19.064,0,0,1-9.3,2.1c-8.6,0-15.892-6.275-15.892-16.36,0-10.8,7.5-20.136,19.144-20.136,9.127,0,15.259,6.395,15.259,15.151,0,7.866-4.4,12.481-9.332,12.481-2.1,0-4.039-1.415-3.885-4.615h-.211c-1.831,3.1-4.244,4.615-7.416,4.615-3.04,0-5.664-2.464-5.664-6.606a12.384,12.384,0,0,1,12.424-12.424,13.873,13.873,0,0,1,5.613,1.1l-1.785,9.492c-.787,3.993-.154,5.818,1.574,5.875,2.675.051,5.664-3.514,5.664-9.6,0-7.6-4.563-13.057-12.692-13.057-8.556,0-15.732,6.765-15.732,17.415,0,8.756,5.7,14.158,13.479,14.152a16.383,16.383,0,0,0,7.918-1.831ZM194.45,79.665a8.939,8.939,0,0,0-2.618-.371c-4.615,0-8.34,4.352-8.34,9.441,0,2.282,1.141,3.993,3.463,3.993,3.04,0,5.818-3.885,6.395-7.13Z" transform="translate(-73.946 -29.17)" fill="url(#c)"/><rect width="79.244" height="11.574" rx="5.787" transform="translate(42.737 91.304)" opacity="0.39" fill="url(#d)"/><rect width="143.823" height="5.784" transform="translate(42.737 107.624)" opacity="0.39" fill="url(#e)"/><rect width="143.823" height="5.784" transform="translate(42.737 118.159)" opacity="0.39" fill="url(#f)"/><rect width="143.823" height="5.784" transform="translate(42.737 128.69)" opacity="0.39" fill="url(#e)"/><rect width="143.823" height="5.784" transform="translate(42.737 139.225)" opacity="0.39" fill="url(#h)"/><rect width="143.823" height="5.784" transform="translate(42.737 149.756)" opacity="0.39" fill="url(#e)"/><path d="M229.764,315.137v11.409L0,326.534V315.126l78.195-59.256L106.6,234.336a13.69,13.69,0,0,1,16.543,0l28.407,21.534h0Z" transform="translate(0 -99.463)" fill="url(#j)"/><path d="M78.195,225.158.006,284.431,0,160.06Z" transform="translate(0 -68.751)" fill="url(#k)"/><path d="M343.909,160.05V284.421L265.72,225.153Z" transform="translate(-114.145 -68.746)" fill="url(#l)"/></g></g></svg>