<svg xmlns="http://www.w3.org/2000/svg" width="280px" height="41px" viewBox="0 0 279.825 40.408">
  <g transform="translate(0)">
    <path d="M1511.736,69.192h-21.594V31.422h21.594a22.587,22.587,0,0,1,7.9,1.357,18.55,18.55,0,0,1,6.308,3.871,18.142,18.142,0,0,1,4.164,5.964,20.4,20.4,0,0,1,0,15.425,17.753,17.753,0,0,1-4.167,5.948,18.691,18.691,0,0,1-6.3,3.839A22.515,22.515,0,0,1,1511.736,69.192Zm-19.9-1.7h19.9a20.844,20.844,0,0,0,7.3-1.25,17.112,17.112,0,0,0,5.737-3.487,16.1,16.1,0,0,0,3.767-5.4,18.687,18.687,0,0,0,0-14.055,16.53,16.53,0,0,0-3.772-5.409,16.856,16.856,0,0,0-5.734-3.511,20.865,20.865,0,0,0-7.3-1.25h-19.9ZM1512.4,59.87h-12.559V40.688H1512.4a10.09,10.09,0,0,1,3.786.7,8.883,8.883,0,0,1,5.023,5.052,11.046,11.046,0,0,1,0,7.731,8.648,8.648,0,0,1-2.01,3.042,9.219,9.219,0,0,1-3.023,1.957A10.07,10.07,0,0,1,1512.4,59.87Zm-10.858-1.7H1512.4a8.4,8.4,0,0,0,3.149-.581,7.548,7.548,0,0,0,2.471-1.6,6.984,6.984,0,0,0,1.6-2.45,9.351,9.351,0,0,0,0-6.475,7.2,7.2,0,0,0-4.079-4.1,8.408,8.408,0,0,0-3.14-.568h-10.858Z" transform="translate(-1366.538 -28.796)" fill="#00c6b7"/>
    <path d="M10.689,89.369V53.441H36.669a15.124,15.124,0,0,1,4.945.72,8.869,8.869,0,0,1,3.372,1.989,7.731,7.731,0,0,1,1.909,3.012,11.309,11.309,0,0,1,.608,3.732,10.088,10.088,0,0,1-1.05,4.78,5.737,5.737,0,0,1-2.986,2.735,6.538,6.538,0,0,1,3.511,2.823,10.025,10.025,0,0,1,1.408,5.582,10.01,10.01,0,0,1-3.066,7.71q-3.066,2.847-8.864,2.845ZM23.568,74.944V67.536H35.453a2.724,2.724,0,0,0,1.962-.664,2.552,2.552,0,0,0,.69-1.933,2.477,2.477,0,0,0-.69-1.909,2.793,2.793,0,0,0-1.962-.634H20.361V80.359H35.949q2.877,0,2.874-2.6A2.552,2.552,0,0,0,36,74.944Z" transform="translate(-10.689 -48.973)" fill="#434e54"/>
    <path d="M477.944,171.794a5.015,5.015,0,0,1-1.181-2.045H489.44c3.732,0,5.545-.752,6.931-2.066A7.148,7.148,0,0,0,498.5,162.2a10.577,10.577,0,0,0-.581-3.564,7.2,7.2,0,0,0-1.751-2.791,8.387,8.387,0,0,0-2.957-1.823,11.78,11.78,0,0,0-4.145-.664h-7.027a17.016,17.016,0,0,0-5.916.994,14.009,14.009,0,0,0-4.7,2.821,12.7,12.7,0,0,0-3.1,4.367,13.831,13.831,0,0,0-1.106,5.582,13.972,13.972,0,0,0,1.106,5.638,12.727,12.727,0,0,0,3.1,4.367,14.047,14.047,0,0,0,4.7,2.818,17.016,17.016,0,0,0,5.916.994h14.98v-7.571H481.986A5.416,5.416,0,0,1,477.944,171.794Zm4.036-11.3h7.326a1.832,1.832,0,0,1,2.1,2.045q0,1.935-2.157,1.933h-12.53a5.679,5.679,0,0,1,1.216-2.266A5.208,5.208,0,0,1,481.981,160.49Z" transform="translate(-429.084 -140.544)" fill="#434e54"/>
    <path d="M850.783,180.958v-7.571h19.461c1.29,0,1.933-.589,1.935-1.77q0-1.711-1.935-1.714H859.407a10.437,10.437,0,0,1-3.759-.634,8.336,8.336,0,0,1-2.818-1.741,7.318,7.318,0,0,1-1.77-2.626,8.774,8.774,0,0,1-.608-3.279,8.406,8.406,0,0,1,.659-3.41,7.353,7.353,0,0,1,1.879-2.6,8.594,8.594,0,0,1,2.818-1.658,10.269,10.269,0,0,1,3.538-.581h20.29v7.571H861.065q-1.879,0-1.866,1.714t1.866,1.714h11.056A8.873,8.873,0,0,1,878.7,166.7a8.065,8.065,0,0,1,2.322,5.913,8.552,8.552,0,0,1-.664,3.466,7.782,7.782,0,0,1-1.85,2.626,8.08,8.08,0,0,1-2.82,1.688,10.568,10.568,0,0,1-3.564.578Z" transform="translate(-780.291 -140.562)" fill="#434e54"/>
    <path d="M1237.466,94.759q-5.03,0-7.544-2.626t-2.517-7.488V59.319h9.176v7.859h11.056V74.8h-11.056v9.12q0,3.263,3.26,3.263h7.518v7.571Z" transform="translate(-1125.752 -54.363)" fill="#434e54"/>
    <path d="M2006.668,162.281h-10.93V147c0-4.417,1.258-7.9,3.732-10.336S2005.6,133,2010.347,133h8.59v10.1h-8.365a4.106,4.106,0,0,0-2.967.928,3.989,3.989,0,0,0-.936,2.932Zm-9.229-1.7h7.529V146.944a5.587,5.587,0,0,1,1.44-4.129,5.687,5.687,0,0,1,4.164-1.421h6.665v-6.7h-6.886c-4.265,0-7.536,1.066-9.682,3.183s-3.228,5.177-3.228,9.123Z" transform="translate(-1829.893 -121.885)" fill="#00c6b7"/>
    <path d="M2692.623,40.4h-10.877V10.967c0-3.466.936-6.177,2.781-8.083S2689.117,0,2692.658,0H2703.9V9h-8.8a2.468,2.468,0,0,0-1.866.616,2.6,2.6,0,0,0-.552,1.5h11.394v9.331h-11.455Zm-9.176-1.7h7.465V18.739h11.442V12.812h-11.434v-.85a4.921,4.921,0,0,1,1.066-3.511,4.094,4.094,0,0,1,3.108-1.154h7.107V1.7h-9.544c-3.063,0-5.385.8-6.907,2.365s-2.3,3.9-2.3,6.9Z" transform="translate(-2458.587)" fill="#00c6b7"/>
    <path d="M2989.182,76.16h-10.746c-3.578,0-6.323-.973-8.158-2.89s-2.756-4.623-2.756-8.078V39.025H2978.4v7.851h11.056v9.331H2978.4V64.47c0,1.712.7,2.4,2.4,2.4h8.368Zm-19.954-35.432V65.193c0,3,.768,5.332,2.279,6.9s3.833,2.362,6.931,2.362h9.043V68.592h-6.665c-2.666,0-4.114-1.461-4.114-4.113V54.5h11.055V48.576H2976.7V40.728Z" transform="translate(-2720.487 -35.764)" fill="#00c6b7"/>
    <path d="M3260.765,39.025V39.7h-1.3v3.388h-.8V39.7h-1.285v-.672Zm4.391,4.06-.149-2.4c0-.315,0-.688-.029-1.133h-.045c-.1.357-.224.834-.344,1.208l-.73,2.255h-.834l-.717-2.314c-.075-.3-.211-.8-.3-1.149h-.051c0,.373-.016.776-.029,1.133l-.149,2.4H3261l.3-4.06h1.226l.688,1.986a9.514,9.514,0,0,1,.267,1.029h.029c.091-.357.195-.717.267-1l.7-2.015h1.181l.3,4.06Z" transform="translate(-2986.13 -35.764)" fill="#00c6b7" fill-rule="evenodd"/>
    <path d="M3118,379.915c0-.019.016-.032.04-.045-.139-.067-.155-.024-.3-.056v.061h0c.024,0,.062-.037.08-.013s0,.051-.045.069a.1.1,0,0,0-.035-.056h0c-.026-.021-.061-.029-.1-.056.022.032.016.056-.021.075s-.048-.019-.043,0,.027,0,0,.016-.024,0-.034-.021.048-.093,0-.08c.026.069-.075.051-.051,0-.032.016-.027.04-.056.056-.013-.032-.037-.021-.053-.051s.032-.021.024-.035c-.077,0-.032.072,0,.093-.037,0-.088.029-.112-.032-.061.051-.077.109-.136.1,0,0,0-.093-.045-.075s-.059.019-.048.072c-.051,0,0-.077-.061-.064s.075.1.048.112a.158.158,0,0,0-.147-.053c.03-.021.048,0,.075-.024-.021-.04,0-.067-.053-.051,0,.013.019.029,0,.04-.04-.08-.13-.093-.245-.032a.083.083,0,0,1,0,.053c.064-.021.131-.024.157-.035,0,.056-.069.027-.091.035-.035.056.072.019.037.059s-.045.032-.059.016c.04-.072-.04-.064-.088-.069.034-.016.019-.04.03-.059-.035-.051-.136-.045-.125.016-.053-.083-.069,0-.136-.04-.021.037-.034.016.03.045-.051-.027-.051.067-.091.035s0-.059,0-.093a.266.266,0,0,1-.109,0,.123.123,0,0,1-.053.1c-.013-.019-.035,0-.045-.035s.045-.032.059-.016,0,.024,0,0c.019-.061-.061-.059-.1-.059-.019.112-.2.048-.221.077a.09.09,0,0,0,.04-.045c.043,0,.075.021.117,0,0,0-.019-.029,0-.04s.048.027.043,0c-.069,0-.1.029-.168-.019a.111.111,0,0,0-.056.053c-.037-.045-.051-.027-.136,0,.016-.053-.083-.061-.067,0-.109-.064-.192-.056-.25.032.024,0,.064-.037.085,0-.062.035-.067,0-.072.064-.05-.032,0-.112-.064-.1.029.083-.048-.024-.053,0a.255.255,0,0,1-.061.08c-.024-.024-.064,0-.08-.056.021,0,0-.037.034-.019s0,.024,0,0c0-.077-.115-.021-.128-.024s.019,0,0-.024c-.064.021,0,.067.021.069-.061,0-.029.051-.064.08-.032-.032-.026-.056.021-.075,0-.043-.08-.088-.069-.04.021,0,.045.029.029.045s-.053-.04-.072-.08c0,.051-.152.152-.184.032a.061.061,0,0,0,.069.029.061.061,0,0,0,.046-.058c-.064.053-.1,0-.157.035,0,.043.048.04.016.1-.016-.053-.122-.072-.125-.131a2.137,2.137,0,0,1-.3.021,1.08,1.08,0,0,1-.016.125h.016l-.016.021a.47.47,0,0,0,0,.059c.024,0,0,.048.029.027s-.045-.024-.013-.056.088.029.075-.024c-.019,0-.024-.013,0-.027s0,.1.053.091c-.048-.021.029-.08.04-.045-.048.037.016.051.032-.021.027.04,0,.048.037.061a.088.088,0,0,0,.04-.045c.078.115.206,0,.3.056,0-.051-.035-.04-.019-.069a.239.239,0,0,1,.155.069.115.115,0,0,1,0-.067c.054.085.04-.091.107-.045-.08.059,0,.032-.064.08.061.032.117.045.144.016s-.021,0-.026,0,.048-.027.04-.045c-.032.029-.12.024-.085-.029a.069.069,0,0,0,.115-.032c0,.133.032-.04.088.069a.081.081,0,0,0-.056.016l.019.029c.013.016.032,0,.051,0,0-.053.064-.123.112-.072-.074,0-.077.032-.1.061s.019,0,.024,0,.013.016.027,0c-.045-.064.195-.117.115-.032.077-.037.2-.083.187-.136,0,.019.037,0,.051,0-.029.021.024.019,0,.04s-.048.051-.1.019c0,.021-.013.032-.037.045.042.064.128,0,.176.035,0-.051-.085-.032-.045-.075.067.085.123.04.165.083.021-.053.107-.016.163-.061.016.029-.045.045-.021.075.045-.04.027-.029.083-.048.016-.083-.112-.04-.091-.109.045.061.115.037.165.083-.067,0-.061.077-.051.029.054.024.062-.035.12,0-.021-.027,0-.045-.021-.069s-.032.019-.042,0c.048-.043,0-.051.021-.075a.144.144,0,0,1,.066,0c-.029.021-.048.045-.045.072.069-.043.034,0,.085.029,0-.04.045.027.04-.045.029.032,0,.051.029.083.072-.016.128.024.216-.051.051.037.109.051.163.083l.083-.051a.328.328,0,0,0,.424-.037c.05,0,0,.051.045.035,0,0,0-.024.016,0s-.032.04-.056.056,0-.027,0-.04c-.112.072.149.048.162.043s-.013-.085.048-.029c0,0-.053.04,0,.04a.629.629,0,0,0,.267-.1c.029.053.077.037.112.072.056-.019,0-.059.064-.08,0,.021-.021.032-.016.051s.032-.056.075-.024c0,0-.032.019-.024.035C3118.094,379.958,3118.032,379.891,3118,379.915Zm-2.463.051c0-.029-.04-.021-.053-.051.059-.029.045.027.091-.035C3115.55,379.907,3115.574,379.942,3115.532,379.966Zm.429.04c-.043,0-.072-.021-.117,0,0-.053.013-.032.056-.056,0,.035,0,.048.037.059s.024-.051,0-.04c0-.051.045.021.075-.024C3116.043,379.968,3115.927,379.974,3115.961,380.006Zm.594-.019a.083.083,0,0,0-.056.016c0-.016,0-.024.021-.037s-.069,0-.094-.043c.019,0,.04,0,.032-.021.04,0,.048,0,.043.035,0-.016.021-.029.016-.048s.035,0,0,0c.016,0,.032.019.051,0S3116.489,379.923,3116.555,379.987Zm.885-.1c-.042.019.051.061-.021.075q-.02-.024,0-.04l-.075-.016c0-.029.032-.032.04,0l.067-.04C3117.462,379.888,3117.462,379.9,3117.44,379.891Zm.416.091c0-.035.029-.021.048-.029-.043-.024-.019-.053-.053-.051,0-.056.067,0,.08.053C3117.9,379.984,3117.88,379.974,3117.856,379.982Z" transform="translate(-2854.965 -348.049)" fill="#00c6b7" fill-rule="evenodd"/>
    <path d="M2391.625,332.139h-9.381a2.587,2.587,0,0,0-2.9,2.786,2.537,2.537,0,0,0,2.786,2.789h11.852v-5.572h-2.359Zm.656,3.868h-10.149c-.819,0-1.082-.267-1.082-1.085,0-.7.189-1.082,1.194-1.082h10.037Z" transform="translate(-2181.451 -304.39)" fill="#00c6b7"/>
    <path d="M2303.481,136.64c-2.439-2.418-6.118-3.644-10.93-3.644h-16.334v9.549h16.219a4.192,4.192,0,0,1,3.01.933,2.667,2.667,0,0,1,.552.8h-11.743c-3.14,0-5.542.853-7.139,2.533a9.065,9.065,0,0,0-2.4,6.5,8.9,8.9,0,0,0,2.4,6.446c1.6,1.666,4,2.533,7.139,2.533h22.906V147C2307.161,142.548,2305.924,139.064,2303.481,136.64Zm1.978,23.937h-21.2c-2.666,0-4.644-.674-5.905-2a8.275,8.275,0,0,1,0-10.6c1.293-1.365,3.25-2,5.905-2h13.825a5.322,5.322,0,0,0-1.442-3.714,5.806,5.806,0,0,0-4.2-1.416h-14.516V134.7h14.625c4.351,0,7.627,1.066,9.736,3.154s3.178,5.169,3.178,9.152Z" transform="translate(-2085.563 -121.885)" fill="#00c6b7"/>
  </g>
</svg>
