<svg xmlns="http://www.w3.org/2000/svg" viewBox="0 0 23.98 22.04"><title>cake</title><path d="M11.43,8.24H7.09" transform="translate(0 -0.08)"/><path d="M17.91,8.24H13.57" transform="translate(0 -0.08)"/><path d="M21.23,16.9l-.07,0a2.3,2.3,0,0,0-2.67,0l-.06,0a4.36,4.36,0,0,1-5.16,0l0,0a2.28,2.28,0,0,0-2.65,0,4.37,4.37,0,0,1-5.18,0l0,0a2.31,2.31,0,0,0-2.68,0l0,0A4.13,4.13,0,0,1,0,17.74v4.38H24V17.75A4.17,4.17,0,0,1,21.23,16.9Z" transform="translate(0 -0.08)"/><path d="M5.87,8.24H3.49A3.43,3.43,0,0,0,0,11.59v4.25a2,2,0,0,0,2.21-.19l0,0a3.78,3.78,0,0,1,4.81,0l0,0a2,2,0,0,0,2.47,0,3.79,3.79,0,0,1,4.75,0l0,0a2,2,0,0,0,2.46,0l0-.05a3.77,3.77,0,0,1,4.79,0l.07.06A2,2,0,0,0,24,15.8V11.59a3.43,3.43,0,0,0-3.5-3.35H18.11" transform="translate(0 -0.08)"/><path d="M6.75.62,7.29.08,7.81.6a.79.79,0,0,1,.09,1,.76.76,0,1,1-1.15-1Z" transform="translate(0 -0.08)"/><rect x="6.52" y="2.66" width="1.54" height="6.54"/><path d="M11.45.62,12,.08l.52.52a.79.79,0,0,1,.1,1,.77.77,0,1,1-1.16-1Z" transform="translate(0 -0.08)"/><rect x="11.22" y="2.66" width="1.54" height="6.54"/><path d="M16.15.62l.54-.54.53.52a.79.79,0,0,1,.09,1,.77.77,0,1,1-1.16-1Z" transform="translate(0 -0.08)"/><rect x="15.92" y="2.66" width="1.54" height="6.54"/></svg>