<svg xmlns="http://www.w3.org/2000/svg" width="748" height="473.251" viewBox="0 0 748 473.251"><g transform="translate(-120.728 -107.551)"><rect width="748" height="445" transform="translate(120.728 133.695)" fill="#fff"/><g transform="translate(143.876 107.551)"><g transform="translate(197.082 342.017) rotate(180)"><path d="M44.532,267.01q-3.665,8.059-3.665,12.764c0,13,10.273,23.532,22.946,23.532S86.76,292.77,86.76,279.773q0,.156,0,.308h0a46.451,46.451,0,0,1,9.647-27.13q10.521-13.647,10.521-25.118a34.591,34.591,0,0,0-2.031-10.91h0a46.453,46.453,0,0,1,4.1-38.565q8.567-14.4,8.566-25.81,0-7.1-3.462-16.389h0a46.452,46.452,0,0,1,3.274-39.4q10.252-17.8,10.252-31.316C127.626,29.3,99.056,0,63.813,0S0,29.3,0,65.442Q0,78.955,10.252,96.758h0a46.453,46.453,0,0,1,3.274,39.4q-3.463,9.293-3.463,16.389,0,11.535,8.743,26.066h0a46.453,46.453,0,0,1,4.3,38.526,34.433,34.433,0,0,0-1.955,10.693Q21.154,244.918,44.532,267.01Z" transform="translate(0 38.712)" fill="rgba(0,198,183,0.5)"/><path d="M24.717,144.194v33L1.547,207.455a.673.673,0,0,0,1.069.819l23.309-30.444a.674.674,0,0,0,.139-.409V145.952l21.794,28.466a.673.673,0,1,0,1.069-.819L26.064,143.737v-3.106a.672.672,0,0,0-.307-.565V110.815l.168-.219a.672.672,0,0,0,.139-.409V85.615l21.794,28.466a.673.673,0,0,0,1.069-.819L26.064,83.4v-10a.673.673,0,0,0-.307-.565V55.192a.675.675,0,0,0,.1-.357V.673a.673.673,0,0,0-1.346,0V46.082a.671.671,0,0,0-.1.356v8.228L.191,79.5a.673.673,0,1,0,.964.94L24.41,56.6V83.228a.675.675,0,0,0,.139.409l.168.219v22.355a.672.672,0,0,0-.307.565v3.583L1.547,140.222a.673.673,0,1,0,1.069.818L24.41,112.574v30.991a.674.674,0,0,0,.139.409Z" transform="translate(39.28)" fill="#346e6a"/></g><g transform="translate(650.117 342.059) rotate(180)"><path d="M44.532,267.01q-3.665,8.059-3.665,12.764c0,13,10.273,23.532,22.946,23.532S86.76,292.77,86.76,279.773q0,.156,0,.308h0a46.451,46.451,0,0,1,9.647-27.13q10.521-13.647,10.521-25.118a34.591,34.591,0,0,0-2.031-10.91h0a46.453,46.453,0,0,1,4.1-38.565q8.567-14.4,8.566-25.81,0-7.1-3.462-16.389h0a46.452,46.452,0,0,1,3.274-39.4q10.252-17.8,10.252-31.316C127.626,29.3,99.056,0,63.813,0S0,29.3,0,65.442Q0,78.955,10.252,96.758h0a46.453,46.453,0,0,1,3.274,39.4q-3.463,9.293-3.463,16.389,0,11.535,8.743,26.066h0a46.453,46.453,0,0,1,4.3,38.526,34.433,34.433,0,0,0-1.955,10.693Q21.154,244.918,44.532,267.01Z" transform="translate(0 38.712)" fill="#00c6b7"/><path d="M24.717,144.194v33L1.547,207.455a.673.673,0,0,0,1.069.819l23.309-30.444a.674.674,0,0,0,.139-.409V145.952l21.794,28.466a.673.673,0,1,0,1.069-.819L26.064,143.737v-3.106a.672.672,0,0,0-.307-.565V110.815l.168-.219a.672.672,0,0,0,.139-.409V85.615l21.794,28.466a.673.673,0,0,0,1.069-.819L26.064,83.4v-10a.673.673,0,0,0-.307-.565V55.192a.675.675,0,0,0,.1-.357V.673a.673.673,0,0,0-1.346,0V46.082a.671.671,0,0,0-.1.356v8.228L.191,79.5a.673.673,0,1,0,.964.94L24.41,56.6V83.228a.675.675,0,0,0,.139.409l.168.219v22.355a.672.672,0,0,0-.307.565v3.583L1.547,140.222a.673.673,0,1,0,1.069.818L24.41,112.574v30.991a.674.674,0,0,0,.139.409Z" transform="translate(39.28)" fill="#346e6a"/></g><g transform="translate(560.293 351.049) rotate(180)"><path d="M59.722,0c32.983,0,59.722,27.421,59.722,61.245S92.705,274.2,59.722,274.2,0,95.071,0,61.245,26.738,0,59.722,0Z" transform="translate(0 34.474)" fill="rgba(0,198,183,0.52)"/><path d="M24.717,114.8v26.1L1.547,171.163a.673.673,0,0,0,1.069.819l23.309-30.444a.674.674,0,0,0,.139-.409V116.557l21.794,28.466a.673.673,0,1,0,1.069-.819L26.064,114.342v-10a.672.672,0,0,0-.307-.565V85.214l22.1,28.867a.673.673,0,0,0,1.069-.818L25.757,83V55.192a.671.671,0,0,0,.1-.356V.673a.673.673,0,0,0-1.346,0V46.082a.669.669,0,0,0-.1.356v8.228L.191,79.5a.673.673,0,1,0,.964.94L24.41,56.595v57.574a.672.672,0,0,0,.139.409Z" transform="translate(35.189)" fill="#346e6a"/></g><path d="M222.939,14.9Q215.4,35.187,200.857,35.187c-14.536,0-7.527,21.29-22.605,21.29-9.816,0-9.816-11.85-23.874-4.49-14.495,7.588,0,29.082-27.464,31.595S106.3,51.986,94.99,51.986c-8.145,0-8.669,12.95-15.616,14s-7.9-7.539-13.1-6.462c-6.343,1.312-3.949,12.208-19.413,12.208s-10.2-21.049-13.974-23.36-8.616,5.407-13.821-3.747,3.813-13.463-3.769-13.463Q1.435,31.165,0,14.9q1.02-4.979,19.062-5.57c18.041-.592,18.854,4.5,41.24,3.59S90.08,0,122.229,0s22.843,5.7,47.388,7.9,43.351-2.342,57.442-1.436Q238.632,7.206,222.939,14.9Z" transform="translate(713.354 383.486) rotate(180)" fill="#7fe2db"/><path d="M231.97,4.107q-4.214,8.128-19.231,8.128c-15.016,0-12.337,9.829-27.91,9.829s-6.216,37.149-44.079,39.115S111.458,39.556,99.778,39.556,81.819,51.115,67.52,50.3,47.453,23.532,41.707,22.065,40.224,27.2,24.465,27.2Q8.706,27.2,2.218,12.235-6.823,4.107,20.987,4.107c6.825,0,25.624,2.64,46.533,3.375C79.319,7.9,100.863,0,127.958,0c12.792,0,23.754,3.527,48.758,4.107Q201.72,4.688,231.97,4.107Z" transform="translate(660.298 393.036) rotate(180)" fill="#00c6b7"/><path d="M222.939,14.9Q215.4,35.187,200.86,35.187c-14.539,0-7.53,21.29-22.609,21.29-9.816,0-9.816-11.85-23.873-4.49-14.494,7.588,0,29.082-27.463,31.595S106.3,51.986,94.991,51.986c-8.145,0-8.669,12.95-15.617,14s-7.9-7.539-13.1-6.462c-6.342,1.312-3.949,12.208-19.413,12.208s-10.2-21.049-13.974-23.36-8.616,5.407-13.822-3.747,3.812-13.463-3.769-13.463Q1.436,31.165,0,14.9q1.021-4.979,19.062-5.57c18.042-.592,18.854,4.5,41.24,3.59S90.08,0,122.229,0s22.843,5.7,47.388,7.9,43.352-2.342,57.44-1.436Q238.631,7.206,222.939,14.9Z" transform="translate(231.97 383.486) rotate(180)" fill="#7fe2db"/></g><g transform="translate(297.116 561.836)" opacity="0.4"><ellipse cx="168.262" cy="9.483" rx="168.262" ry="9.483" transform="translate(0 0)" fill="rgba(51,51,51,0.4)"/></g><g transform="translate(134.724 517.716)"><path d="M11.862,1H719.893" transform="translate(-3.954 -1)" fill="none" stroke="#333" stroke-linecap="round" stroke-linejoin="round" stroke-width="2" fill-rule="evenodd"/><path d="M.115,21h723.85" transform="translate(-0.115 -7.535)" fill="none" stroke="#333" stroke-linecap="round" stroke-linejoin="round" stroke-width="2" fill-rule="evenodd"/></g><g transform="translate(298.478 201.423)"><g transform="translate(87.654 157.506)"><path d="M6.494,9.807C12.854,2.944,22.221-7.015,27.2,7.329S11.191,82.32,14.9,101.535c.366,6.658-11.059,10-13.314,1.28.335-10.307,5.293-43.1,1.038-57.095C-3.678,25.012,2.9,13.685,6.494,9.807Z" transform="translate(75.937 25.896) rotate(8)" fill="#ffc0bf"/><g transform="translate(0 0)"><path d="M106.041,35.283c0,13.179-8.854,50.023-18.177,68.67-2.02,4.039-5.241.364-5.386,1.346-.311,2.106,0,1.01-1.01,6.4s-13.119,7.266-14.138-1.683c.459-2.638,1.264-5.3,2.02-8.415.271-1.118-3.7-1.346-3.7-4.713,0-8.368,5.169-16.571,3.7-25.919C67.22,57.391,73.071,49,76.217,43.3c-21.711-.525-54.08-3.809-67.948-14.9C-7.724,15.611,2.987.381,23.463.149S76.32,5.318,91.9,17.779C99.832,24.12,106.041,29.409,106.041,35.283Z" transform="translate(-0.55 -0.142)" fill="#1d5ef8"/><path d="M39.784,44.173a.673.673,0,0,1,.264-1.32C65.79,48,80.937,50.582,85.359,50.582c4.132,0,7.441.944,9.225,3.058,2.235,2.652,1.814,6.78-1.579,12.436-2.2,3.666-3.716,8.532-4.715,14.5-.466,2.781-.807,5.713-1.079,9.008-.105,1.27-.2,2.545-.294,4.075-.033.516-.184,2.939-.224,3.553-.208,3.157-.38,4.637-.71,5.461-1.408,3.521-2.578,10.659-2,12.693a.673.673,0,0,1-1.295.37c-.681-2.384.533-9.79,2.042-13.563a22.523,22.523,0,0,0,.616-5.049c.04-.611.191-3.034.224-3.552.1-1.536.191-2.819.3-4.1.274-3.329.619-6.3,1.093-9.12,1.024-6.117,2.587-11.133,4.888-14.968,3.131-5.217,3.491-8.755,1.7-10.875-1.464-1.736-4.422-2.58-8.2-2.58C80.8,51.928,65.657,49.348,39.784,44.173Z" transform="translate(-13.193 -14.094)" fill="#5296fc"/><path d="M101.771,156.6a.875.875,0,1,1,1.093-1.367c4.285,3.428,7.726,4.679,10.3,3.886a.875.875,0,1,1,.515,1.673C110.427,161.793,106.463,160.351,101.771,156.6Z" transform="translate(-33.518 -50.758)" fill="#c3cbff"/><path d="M100.729,162.562a.875.875,0,1,1,1.178-1.295c3.731,3.4,6.7,4.625,8.883,3.861a.875.875,0,1,1,.578,1.652C108.425,167.811,104.886,166.346,100.729,162.562Z" transform="translate(-33.192 -52.718)" fill="#c3cbff"/></g><g transform="translate(62.018 119.187)"><path d="M5.756,18.607C.362,17.714-1.009,11.476,2.94,4.263c1-1.822,3.694,2.322,6.809,2.2,1.916-.075,4.8-4.071,7.122-3.722a115.134,115.134,0,0,1,22.5,6.009c6.829,2.78,7.454,4.743,3.644,7.766S11.15,19.5,5.756,18.607Z" transform="translate(-0.67 -1.009)" fill="#253238"/><path d="M28.916,6.178a.875.875,0,1,1-1.546-.822L29.876.643a.875.875,0,1,1,1.546.822Z" transform="translate(-9.362 -0.179)" fill="#6f787c"/><path d="M34.1,8.038a.875.875,0,1,1-1.546-.822L35.064,2.5a.875.875,0,1,1,1.546.822Z" transform="translate(-11.057 -0.787)" fill="#6f787c"/><path d="M39.252,9.971a.875.875,0,0,1-1.546-.822l2.505-4.713a.875.875,0,0,1,1.546.822Z" transform="translate(-12.739 -1.418)" fill="#6f787c"/><path d="M1.9,17.952a.875.875,0,1,1,1.206-1.268c2.122,2.019,4.109,3.029,5.956,3.081,5.293.149,24.77-.081,28-.5a15.544,15.544,0,0,0,4.836-1.248c1-.517,1.291-1,1.077-1.62a.875.875,0,0,1,1.654-.574c.546,1.575-.238,2.873-1.924,3.748A17.007,17.007,0,0,1,37.283,21c-3.347.436-22.887.667-28.271.516C6.678,21.449,4.308,20.244,1.9,17.952Z" transform="translate(-0.983 -5.098)" fill="#6f787c"/></g></g><g transform="translate(0 162.594)"><path d="M135.305,34.749,137.5,48.218l-4.376,1.346-3.288-13.975c-7.616.467-15.538-1.678-19.627-4.4-6.059-4.039-15.148-.337-16.831-3.03C77.163,2.215,151.274,11.4,154.3,18.731s-4.713,9.018-14.138,14.138A21.363,21.363,0,0,1,135.305,34.749Z" transform="translate(-30.354 -3.583)" fill="#ec961f" fill-rule="evenodd"/><path d="M347.894,0h55.828a6.733,6.733,0,0,1,6.387,8.861l-9.375,28.125a6.732,6.732,0,0,1-6.126,4.6L357.991,43a2.693,2.693,0,0,1-2.707-2l-9.993-37.62A2.693,2.693,0,0,1,347.894,0Z" transform="translate(-113.398 0)" fill="#ec961f" fill-rule="evenodd"/><path d="M376.577,79.163c4.376-4.039,10.981-7.444,14.811-5.049s4.822,9.132,1.683,12.118-10.772.337-15.484,1.01S372.2,83.2,376.577,79.163Z" transform="translate(-122.693 -23.958)" fill="#f6bc57" fill-rule="evenodd"/><path d="M370.959,106.61l-1.784-3.625c6.359-3.129,8.939-6.538,8.324-10.318l3.987-.649C382.441,97.888,378.738,102.782,370.959,106.61Z" transform="translate(-121.233 -30.068)" fill="#ec961f" fill-rule="evenodd"/><path d="M394.045,246.79a59.576,59.576,0,1,1,59.576-59.576A59.576,59.576,0,0,1,394.045,246.79Zm0-10.1a49.478,49.478,0,1,0-49.478-49.478A49.477,49.477,0,0,0,394.045,236.691Z" transform="translate(-109.892 -41.708)" fill="#253238"/><path d="M69.136,246.79a59.576,59.576,0,1,1,59.576-59.576A59.577,59.577,0,0,1,69.136,246.79Zm0-10.1a49.478,49.478,0,1,0-49.478-49.478A49.478,49.478,0,0,0,69.136,236.691Z" transform="translate(-3.722 -41.708)" fill="#253238"/><circle cx="10.868" cy="10.868" r="10.868" transform="translate(146.028 136.836)" fill="none" stroke="#fff" stroke-width="2"/><rect width="4.713" height="28.949" rx="2.356" transform="translate(154.245 148.111)" fill="#253238"/><path d="M204.364,127.344v-5.386c22.907,0,45.346-12.023,62.559-32.406,14.709-17.419,24.17-39.351,26.171-60.667.263-2.8,5.656-2.782,5.405.03-2.01,22.59-11.95,45.745-27.461,64.112C252.864,114.547,228.983,127.344,204.364,127.344Z" transform="translate(-67.378 -8.755)" fill="#f25611"/><path d="M131.716,183.913h-9.425A56.958,56.958,0,0,0,10.04,170.245L.889,167.991a66.384,66.384,0,0,1,130.828,15.923Z" transform="translate(-0.889 -38.408)" fill="#f25611"/><path d="M204.452,101.823l-4.07-4.07,3.332-3.332,4.236,4.236,37.1-33.581Q238.409,45.894,231.6,25.5l-1.391.59-1.316-3.1,8.676-3.683,1.315,3.1-1.031.438q14.379,48.846,31.67,91.518c11.108,26.379,22.553,35.345,20.534,37.028s-15.6-10.649-26.256-33.662q-8.049-21.922-16.36-45.76l-85.3,77.065-.2-.185a5.533,5.533,0,0,1-1.495,2.491v1.4l-2.686.027a5.6,5.6,0,0,1-2.184.022l-81.973.818a4.713,4.713,0,0,1-7.765-3.333L17.2,118.882l1.214-3.846,48.926,31.534a4.7,4.7,0,0,1,1.93-1.088l39.216-90.345-.891.378-1.315-3.1,8.676-3.683,1.315,3.1-1.291.548,43.6,89.8a5.462,5.462,0,0,1,.848.407Zm-53.143,47.088a5.549,5.549,0,0,1,.835-4.813l-40.6-83.293L74.1,146.918a4.7,4.7,0,0,1,1.155,2.808Z" transform="translate(-6.218 -6.31)" fill="#f25611"/><circle cx="5.049" cy="5.049" r="5.049" transform="translate(279.104 140.457)" fill="#f25611"/><path d="M106.256,211.994l39.687.612h.063a4.07,4.07,0,0,0,4.07-4.07c0-.011,0-.021,0-.032a4.1,4.1,0,0,0-4.133-4.07l-38.819.3a13.009,13.009,0,0,1,11.54-7.9l72.125-2.372a17.065,17.065,0,0,1,17.617,16.495c.006.187.009.374.009.561A16.514,16.514,0,0,1,191.9,228.035q-.542,0-1.084-.036l-72.175-4.748A13.445,13.445,0,0,1,106.256,211.994Z" transform="translate(-35.319 -63.542)" fill="#f25611"/><rect width="14.811" height="6.059" transform="translate(148.859 174.367)" fill="#f25611"/><path d="M430.991,131.215l-5.736,7.479a56.976,56.976,0,0,0-88.578,63.5l-8.927,3.024a66.388,66.388,0,0,1,103.241-74.006Z" transform="translate(-106.555 -38.408)" fill="#f25611"/></g><g transform="translate(199.918 131.142)"><path d="M13.068,19.272a.875.875,0,1,1-1.5.908L.127,1.33a.875.875,0,0,1,1.5-.908Z" transform="translate(0 8.42) rotate(-24)" fill="#df4c32"/><path d="M1.745,18.48a.875.875,0,0,1-1.739-.2L2.026.775a.875.875,0,0,1,1.739.2Z" transform="translate(17.121 1.534) rotate(-24)" fill="#df4c32"/><path d="M1.526,11.982a.875.875,0,1,1-1.3-1.171L9.7.29A.875.875,0,0,1,11,1.461Z" transform="translate(28.36 7.797) rotate(-24)" fill="#df4c32"/><path d="M.976,4.472a.875.875,0,1,1-.2-1.739L24.292.006a.875.875,0,0,1,.2,1.739Z" transform="translate(38.262 18.283) rotate(-24)" fill="#df4c32"/></g><g transform="translate(55.015 138.575)"><path d="M6.494,9.807C12.854,2.943,22.221-7.015,27.2,7.329S11.191,82.32,14.9,101.535c.366,6.657-11.059,10-13.314,1.28.335-10.308,5.293-43.1,1.038-57.095C-3.678,25.013,2.9,13.685,6.494,9.807Z" transform="translate(24.319 114.358) rotate(1)" fill="#ffc0bf"/><g transform="translate(17.856 211.462)"><path d="M3.385,14.643C-1.232,11.714-.056,5.435,6.4.339c1.63-1.288,2.493,3.58,5.408,4.685,1.793.68,6.013-1.87,8.01-.643A115.137,115.137,0,0,1,38.182,18.7c5.2,5.227,5.008,7.278.32,8.573S8,17.571,3.385,14.643Z" transform="translate(-0.592 -0.124)" fill="#253238"/><path d="M30.564,11.843a.875.875,0,1,1-1.1-1.36L33.61,7.123a.875.875,0,1,1,1.1,1.36Z" transform="translate(-9.92 -2.347)" fill="#6f787c"/><path d="M34.612,15.583a.875.875,0,1,1-1.1-1.36l4.148-3.359a.875.875,0,1,1,1.1,1.36Z" transform="translate(-11.243 -3.569)" fill="#6f787c"/><path d="M38.6,19.373a.875.875,0,0,1-1.1-1.36l4.148-3.359a.875.875,0,0,1,1.1,1.36Z" transform="translate(-12.544 -4.808)" fill="#6f787c"/><path d="M1.758,12.189a.875.875,0,1,1,1.606-.7c1.165,2.688,2.6,4.394,4.279,5.164,4.814,2.205,22.832,9.6,25.966,10.477a15.544,15.544,0,0,0,4.939.741c1.12-.086,1.58-.419,1.624-1.071a.875.875,0,1,1,1.746.118c-.112,1.663-1.342,2.552-3.236,2.7a17.009,17.009,0,0,1-5.544-.8c-3.252-.906-21.328-8.328-26.225-10.572C4.791,17.276,3.08,15.241,1.758,12.189Z" transform="translate(-0.949 -3.667)" fill="#6f787c"/></g><g transform="translate(0 0)"><path d="M45.547,45.7c6.885,19.285,8.964,58.666,11.657,71.457s-7.406,65.9-9.089,68.6-8.319,4.584-8.415,6.468a29.425,29.425,0,0,0,0,6.732c.25,6.663-12.767,6.065-14.869-2.693a90.143,90.143,0,0,1,1.424-10.508c.243-1.412-1.424,0-3.722-3.967s.876-15.311,0-25.583c-1.723-20.2.134-29.129,3.722-34.335-3.51-3.9-15.841-44.1-19.705-68.333-2.392-15-13.3-21.88,0-44.821,4.4-7.581,42.637-12.956,49.335-4.073S71.663,24.293,70.661,24.293c-.362,0-9.176,6.632-18.463,12.406-2.967,1.845-6.007,2.741-8.8,4.425A26.5,26.5,0,0,1,45.547,45.7Z" transform="translate(-0.069 -0.024)" fill="#1d5ef8"/><path d="M65.355,57.691a.875.875,0,1,1-.711-1.6c5.93-2.636,9.747-5.144,11.429-7.457a.875.875,0,0,1,1.416,1.03C75.581,52.287,71.543,54.941,65.355,57.691Z" transform="translate(-21 -15.791)" fill="#5296fc"/><path d="M16.925,40.29a.673.673,0,1,1,1.344-.085q3.023,48.033,10.723,66.773c8.233,20.047,11.985,49.535,7.772,66.062-.519,2.038-4.134,15.4-4.578,17.677-.689,3.524-.426,5.08.98,6.2a.673.673,0,1,1-.841,1.052c-1.89-1.512-2.235-3.55-1.46-7.513.455-2.329,4.088-15.763,4.595-17.752,4.134-16.217.419-45.42-7.713-65.218Q19.951,88.51,16.925,40.29Z" transform="translate(-5.577 -12.948)" fill="#5296fc"/><path d="M37.974,282.847a.875.875,0,0,1,1.05-1.4c4.724,3.543,8.594,4.694,11.628,3.582a.875.875,0,1,1,.6,1.643C47.557,288.028,43.124,286.711,37.974,282.847Z" transform="translate(-12.341 -91.927)" fill="#c3cbff"/><path d="M37.974,289.847a.875.875,0,0,1,1.05-1.4c4.724,3.543,8.594,4.694,11.628,3.582a.875.875,0,1,1,.6,1.643C47.557,295.028,43.124,293.711,37.974,289.847Z" transform="translate(-12.341 -94.214)" fill="#c3cbff"/><path d="M61.689,54.481a.875.875,0,0,1,1.62-.663A139.424,139.424,0,0,1,68.051,67.03a.875.875,0,0,1-1.679.494A137.735,137.735,0,0,0,61.689,54.481Z" transform="translate(-20.183 -17.424)" fill="#5296fc"/></g></g><g transform="translate(98.626 53.128)"><path d="M101.024,15.022Q77.09,46.893,69.866,51.863a17.164,17.164,0,0,1-4.483,2.315,14.863,14.863,0,0,1-5.233,1.9c-9.542,1.937-45.106-17.545-49.408-21.684s-6.319-10.567,3.22-12.5c8.69-1.764,35.175,12.513,45.355,19.627,5.8-10.344,31.6-29.972,39.134-35.672A9.608,9.608,0,0,1,102.137.281c1.3-.876,1.891,1.8,3.163,1.073,1.664-.953,5.661-2.243,7.42.365,2.674,3.965,2.22,11.5-1.574,14.057A8.353,8.353,0,0,1,101.024,15.022Z" transform="translate(-2.907 -0.102)" fill="#ffc0bf"/><path d="M11.282,5.262c2.975-5.175,8.724-8.687,12.911.1,2.5,5.241.168,19.546-2.984,32.055C19.076,45.88-1.829,43.279.129,32.979,2.565,20.171,9.633,8.13,11.282,5.262Z" transform="translate(0 43.966) rotate(-76)" fill="#5296fb"/><path d="M0,0Q1.445,1.05,1.652,4.085" transform="translate(52.901 45.759) rotate(-126)" fill="none" stroke="#ff7371" stroke-linecap="round" stroke-linejoin="round" stroke-width="2" fill-rule="evenodd"/></g><g transform="translate(45.952 58.34)"><path d="M4.655,5.8c7.14-10.63,36.678-4.982,46.98,3.671,3.721,3.125.618,7.718,2.078,15.688,1.15,6.276,7.99,15.041,3.672,24.13-4.212,8.867-.5,24.755,5.271,33.808.278.437-34.87,16.089-49.137,4.844C8.347,83.861,24.561,76.333,12.342,56.3,1.16,37.966-4.7,19.721,4.655,5.8Z" transform="matrix(0.966, 0.259, -0.259, 0.966, 26.485, 0.231)" fill="#ffc0bf"/><path d="M5.9,4.852C7.769,2.065,11.9.814,16.1.026c4.813-.9,8.826,22.241,24.879,19.988,17.554-2.465-5.5-18.947-1.4-17.955S52.315,6.59,54.537,8.2c3.114,2.254.548,11.293,2.02,13.318,5.143,7.078,10.255,11.756,2.635,27.8-3.462,7.288,1.375,19.3,9.17,23.484,1.319.708,2.883,6.545-4.754,13.471s-34.015,12.942-48.281,1.7c-5.172-4.077,6.729-16.364-5.491-36.4C-1.346,33.235-3.456,18.776,5.9,4.852Z" transform="matrix(0.966, 0.259, -0.259, 0.966, 24.386, 0)" fill="#5296fb"/><path d="M.958,17.305a.875.875,0,1,1-.166-1.742C6.5,15.018,9.05,12.991,9.342,9.82c.224-2.426-.836-5.368-2.684-8.5A.875.875,0,1,1,8.166.431c2.02,3.425,3.184,6.66,2.919,9.55C10.708,14.085,7.436,16.688.958,17.305Z" transform="matrix(0.966, 0.259, -0.259, 0.966, 65.275, 23.389)" fill="#1d5ef8"/></g><g transform="translate(37.807 0)"><g transform="translate(49.55 12.666)"><path d="M1.871,0H17.836q-2.141,18.469,0,26.363c2.141,7.894-12.224,6.178-15.965,0Q-1.871,20.185,1.871,0Z" transform="matrix(0.966, 0.259, -0.259, 0.966, 8.194, 33.984)" fill="#ffc0bf"/><path d="M31.095,57.051C25.541,55.563,6.66,27.822,9.768,16.222A21.492,21.492,0,0,1,35.9.714a21.492,21.492,0,0,1,14.879,26.5C47.674,38.812,36.649,58.54,31.095,57.051Z" transform="translate(-3.153 -0.002)" fill="#ffc0bf"/><path d="M0,.753A.673.673,0,0,1,1.342.593C1.779,4.247,3.055,5.581,5.3,5.028a.673.673,0,0,1,.824.769A13.253,13.253,0,0,0,5.89,9.833a.673.673,0,1,1-1.33.212,12.454,12.454,0,0,1,.1-3.554C2.053,6.666.471,4.651,0,.753Z" transform="matrix(0.966, 0.259, -0.259, 0.966, 11.672, 25.162)" fill="#ff7371"/><path d="M.428,1.049,6.116.015A.909.909,0,0,1,7.187.909h0A1.089,1.089,0,0,1,6.1,2H.435A.435.435,0,0,1,0,1.562H0A.522.522,0,0,1,.428,1.049Z" transform="translate(29.319 25.649) rotate(-6)" fill="#253238" fill-rule="evenodd"/><path d="M.429.965l4.782,1a.89.89,0,0,0,1.072-.871h0A1.1,1.1,0,0,0,5.187,0H.438A.438.438,0,0,0,0,.438H0A.539.539,0,0,0,.429.965Z" transform="matrix(-0.956, -0.292, 0.292, -0.956, 48.792, 31.632)" fill="#253238" fill-rule="evenodd"/><rect width="2.396" height="4.007" rx="1.198" transform="matrix(0.966, 0.259, -0.259, 0.966, 32.621, 29.661)" fill="#1c2229"/><rect width="2.396" height="4.007" rx="1.198" transform="matrix(0.966, 0.259, -0.259, 0.966, 41.075, 32.414)" fill="#1c2229"/><path d="M1.676,10.241C-.06,9.032-.4,5.825.438.567a.673.673,0,1,1,1.33.212c-.759,4.759-.461,7.563.678,8.357a6.369,6.369,0,0,0,3.449,1.382.673.673,0,0,1,.553,1.058,9.773,9.773,0,0,1-4.14,3.748.673.673,0,1,1-.491-1.254,7.344,7.344,0,0,0,2.856-2.364A9.3,9.3,0,0,1,1.676,10.241Z" transform="matrix(0.966, 0.259, -0.259, 0.966, 36.623, 30.036)" fill="#ff7371"/><path d="M6.776,4.607a.673.673,0,0,1-.705,1.147A24.778,24.778,0,0,1,.157,1.105.673.673,0,0,1,1.189.241,23.65,23.65,0,0,0,6.776,4.607Z" transform="matrix(0.966, 0.259, -0.259, 0.966, 16.436, 44.553)" fill="#ff7371"/><path d="M.883,1.864A.673.673,0,1,1,.463.585C4.683-.8,7.146.278,7.269,3.8a.673.673,0,0,1-1.346.047C5.837,1.376,4.351.725.883,1.864Z" transform="matrix(0.966, 0.259, -0.259, 0.966, 26.256, 43.639)" fill="#ff7371"/></g><path d="M32.361,1.869C41.428-4.549,55.73,9.2,65.139,13.183c4.708-3.6,11.836-4.025,23.068,2.893,10.432,6.425,21.375,2.616,17.68,16.4s-11.405,3.685-11.785.472c-2.152,3.684-8.992,6.454-19.774,7.146-.6.038-2.055,4.894-3.444,4.522s-.96-3.369-.749-4.608-1.647-5.886-4.286-5.3a5.559,5.559,0,0,0-4.4,5.383c.687,6.548-.883,11.609-2.285,11.233-4.629-1.24-4.133-16.126-2.545-22.055a61.3,61.3,0,0,1,2.2-6.835Q49.4,24.857,49.066,29.49C48.7,34.576,40.276,55.811,28.1,61.465,15.349,67.382-7.821,55.729,3.565,54.891s15.7-22.5,23.415-44.8a19.722,19.722,0,0,1,3.411-6.4c-1.805.974-4.258,4.792-7.2,11.761a.875.875,0,0,1-1.612-.681C25.714,4.978,29.207.475,32.361,1.869Z" transform="translate(-0.508 -0.188)" fill="#253238"/></g><g transform="translate(57.499 56.328)"><path d="M104.459,15.411Q76.323,43.641,68.477,47.557q-1,.5-1.915.855c-.981,1.355-3.132,2.392-6.614,3.036-9.574,1.77-44.793-18.329-49.022-22.543s-1.44-16.082,8.131-17.851c8.6-1.589,30.421,17.067,40.008,25.348,6.454-9.356,35.7-25.749,44.123-30.436a9.61,9.61,0,0,1,4.424-5c1.408-.687,1.622,2.048,2.983,1.5,1.779-.713,5.917-1.433,7.3,1.394,2.1,4.3.6,11.7-3.515,13.7A8.353,8.353,0,0,1,104.459,15.411Z" transform="translate(-3.454 -0.856)" fill="#ffc0bf"/><path d="M10.677,4.573C18.523-4.1,31.6.71,33.949,9.489S23.42,39.841,21.974,40.229s-16.547.65-20.543-7.738C-2.758,23.7,2.832,13.25,10.677,4.573Z" transform="matrix(0.259, -0.966, 0.966, 0.259, 0, 38.224)" fill="#5296fb"/><path d="M.624,1.345A.673.673,0,1,1,.722,0C3.216.184,7.007,1.476,12.143,3.875a.673.673,0,0,1-.23,1.281c-.672.055-1.012.779-.906,2.526a.673.673,0,0,1-1.344.082,4.644,4.644,0,0,1,.684-3.232C5.973,2.56,2.72,1.5.624,1.345Z" transform="matrix(0.961, 0.276, -0.276, 0.961, 45.491, 27.91)" fill="#ff7371"/><path d="M3.814,21.888a.875.875,0,1,1-1.452.977C.071,19.46-.593,16.679.543,14.542,2.375,11.1,11.253,4.781,15.857,4.322a4.488,4.488,0,0,0,1.524-.356c.182-.095.224-.147.229-.191.038-.336-.517-1.145-1.763-2.244A.875.875,0,1,1,17.005.219c3.4,3,3.13,5.436-.975,5.845-4,.4-12.376,6.356-13.941,9.3C1.328,16.794,1.846,18.962,3.814,21.888Z" transform="translate(19.506 53.771) rotate(-118)" fill="#1d5ef8"/></g><path d="M298.255,81.192l4.087,3.02a2.02,2.02,0,0,1-2.4,3.248l-6.67-4.93c-7.3,1.854-14.808,3.305-18.386,3.305-3.032,0-6.54-1.709-11.32-5.007-.907-.625-1.85-1.3-2.962-2.117-7.785-5.714-8.718-6.341-9.618-6.341-1.414,0-2.788,2.021-3.742,6.792a2.02,2.02,0,1,1-3.961-.792c1.29-6.45,3.73-10.039,7.7-10.039,1.485,0,3.136.81,5.571,2.447.872.586,1.824,1.266,3.1,2.207.386.284,2.665,1.976,3.337,2.47,1.083.794,2,1.449,2.865,2.049,4.113,2.838,7.1,4.292,9.026,4.292,3.15,0,10.214-1.394,17.081-3.107a2.022,2.022,0,0,1,2.009-.512,94.473,94.473,0,0,0,13.418-4.272c-.125-.088-.263-.181-.412-.277a41.2,41.2,0,0,0-6.824-3.246c-5.4-2.1-11.308-3.542-12-3.235-1.357.6-2.884,2.986-4.29,7.2a2.02,2.02,0,1,1-3.831-1.279c1.736-5.2,3.8-8.419,6.481-9.611,2.169-.964,8.4.561,15.1,3.161a44.7,44.7,0,0,1,7.546,3.613,8.439,8.439,0,0,1,2.409,2.107,2.82,2.82,0,0,1-.339,3.9C309.79,77.522,304.485,79.421,298.255,81.192Z" transform="translate(-80.393 -20.767)" fill="#253238"/></g></g></svg>