<svg xmlns="http://www.w3.org/2000/svg" width="18.545" height="17" viewBox="0 0 18.545 17"><g transform="translate(0 -1)"><g transform="translate(3.147 7.182)"><path d="M6.584,10.159H4.653A.58.58,0,0,1,4.653,9H6.584a.58.58,0,1,1,0,1.159Z" transform="translate(-4.073 -9)" fill="#333"/></g><g transform="translate(8.556 7.182)"><path d="M17.448,10.159h-5.8a.58.58,0,1,1,0-1.159h5.8a.58.58,0,1,1,0,1.159Z" transform="translate(-11.073 -9)" fill="#333"/></g><g transform="translate(3.147 10.273)"><path d="M6.584,14.159H4.653a.58.58,0,1,1,0-1.159H6.584a.58.58,0,1,1,0,1.159Z" transform="translate(-4.073 -13)" fill="#333"/></g><g transform="translate(8.556 10.273)"><path d="M17.448,14.159h-5.8a.58.58,0,1,1,0-1.159h5.8a.58.58,0,1,1,0,1.159Z" transform="translate(-11.073 -13)" fill="#333"/></g><g transform="translate(3.147 13.364)"><path d="M6.584,18.159H4.653a.58.58,0,0,1,0-1.159H6.584a.58.58,0,1,1,0,1.159Z" transform="translate(-4.073 -17)" fill="#333"/></g><g transform="translate(8.556 13.364)"><path d="M17.448,18.159h-5.8a.58.58,0,0,1,0-1.159h5.8a.58.58,0,0,1,0,1.159Z" transform="translate(-11.073 -17)" fill="#333"/></g><g transform="translate(0 1)"><path d="M16.42,18H2.125A2.127,2.127,0,0,1,0,15.875V3.125A2.127,2.127,0,0,1,2.125,1h14.3a2.127,2.127,0,0,1,2.125,2.125v12.75A2.127,2.127,0,0,1,16.42,18ZM2.125,2.159a.967.967,0,0,0-.966.966v12.75a.967.967,0,0,0,.966.966h14.3a.967.967,0,0,0,.966-.966V3.125a.967.967,0,0,0-.966-.966Z" transform="translate(0 -1)" fill="#333"/></g><g transform="translate(0 3.705)"><path d="M17.966,5.659H.58A.58.58,0,0,1,.58,4.5H17.966a.58.58,0,0,1,0,1.159Z" transform="translate(0 -4.5)" fill="#333"/></g></g></svg>
