<svg xmlns="http://www.w3.org/2000/svg" xmlns:xlink="http://www.w3.org/1999/xlink" width="636" height="512.182" viewBox="0 0 636 512.182">
  <defs>
    <filter id="Path_754" x="182" y="189" width="272" height="272" filterUnits="userSpaceOnUse">
      <feOffset input="SourceAlpha"/>
      <feGaussianBlur stdDeviation="15" result="blur"/>
      <feFlood flood-color="#4689d7" flood-opacity="0.161"/>
      <feComposite operator="in" in2="blur"/>
      <feComposite in="SourceGraphic"/>
    </filter>
    <filter id="Ellipse_5" x="0" y="0" width="272" height="272" filterUnits="userSpaceOnUse">
      <feOffset input="SourceAlpha"/>
      <feGaussianBlur stdDeviation="15" result="blur-2"/>
      <feFlood flood-color="#00b2a4" flood-opacity="0.302"/>
      <feComposite operator="in" in2="blur-2"/>
      <feComposite in="SourceGraphic"/>
    </filter>
    <filter id="Ellipse_6" x="364" y="0" width="272" height="272" filterUnits="userSpaceOnUse">
      <feOffset input="SourceAlpha"/>
      <feGaussianBlur stdDeviation="15" result="blur-3"/>
      <feFlood flood-color="#00b2a4" flood-opacity="0.302"/>
      <feComposite operator="in" in2="blur-3"/>
      <feComposite in="SourceGraphic"/>
    </filter>
  </defs>
  <g id="Group_100" data-name="Group 100" transform="translate(-642 -3168)">
    <g transform="matrix(1, 0, 0, 1, 642, 3168)" filter="url(#Path_754)">
      <path id="Path_754-2" data-name="Path 754" d="M91,0A91,91,0,1,1,0,91,91,91,0,0,1,91,0Z" transform="translate(227 234)" fill="#fff"/>
    </g>
    <g id="Group_76" data-name="Group 76" transform="translate(47 11)">
      <g transform="matrix(1, 0, 0, 1, 595, 3157)" filter="url(#Ellipse_5)">
        <circle id="Ellipse_5-2" data-name="Ellipse 5" cx="91" cy="91" r="91" transform="translate(45 45)" fill="#00c6b7"/>
      </g>
      <path id="Path_1165" data-name="Path 1165" d="M-32.968-5.356c0,1.534-1.04,2.392-2.808,2.392h-3.666V-7.852h3.588C-34.086-7.852-32.968-6.916-32.968-5.356Zm-.442-7.566c0,1.482-.988,2.262-2.7,2.262h-3.328v-4.55h3.328C-34.4-15.21-33.41-14.378-33.41-12.922Zm4.134,8.008a4.4,4.4,0,0,0-3.51-4.394,4.184,4.184,0,0,0,3.094-4.16c0-2.7-2.106-4.68-5.9-4.68h-7.488V0h7.826C-31.486,0-29.276-2.028-29.276-4.914Zm12.532-7.592c0,1.638-.91,2.7-2.938,2.7h-3.042v-5.33h3.042C-17.654-15.132-16.744-14.118-16.744-12.506Zm-9.62-5.642V0h3.64V-7.072h1.716L-17,0h4.212l-4.342-7.358A5.241,5.241,0,0,0-13-12.584c0-3.042-2.184-5.564-6.552-5.564ZM2.626,0H6.474L-.052-18.174H-4.29L-10.816,0h3.822l1.2-3.458H1.43ZM.442-6.37H-4.81l2.626-7.592ZM20.8-18.174v12.48l-8.242-12.48H8.918V0h3.64V-12.454L20.8,0h3.64V-18.174Zm13.572.026H28.028V0h6.344c5.8,0,9.568-3.562,9.568-9.048C43.94-14.56,40.17-18.148,34.372-18.148Zm-2.7,15.054V-15.08h2.574c3.822,0,5.98,2.262,5.98,6.032s-2.158,5.954-5.98,5.954ZM-43.771,26.282l-4.992-14.43h-3.9L-46.007,30h4.42l6.656-18.148H-38.8ZM-32.747,30h3.64V11.852h-3.64Zm19.916-5.252c0-6.4-9.308-4.368-9.308-8.008,0-1.482,1.066-2.184,2.5-2.132a2.4,2.4,0,0,1,2.6,2.158h4c-.234-3.276-2.782-5.174-6.5-5.174-3.744,0-6.4,1.976-6.4,5.252-.026,6.578,9.334,4.212,9.334,8.138,0,1.3-1.014,2.21-2.73,2.21a2.492,2.492,0,0,1-2.756-2.418h-3.9c.052,3.432,2.964,5.408,6.734,5.408C-15.119,30.182-12.831,27.608-12.831,24.748Zm3.094-1.69c0,4.784,3.276,7.124,7.254,7.124s7.41-2.34,7.41-7.124V11.852H1.261V23.084c0,2.5-1.352,3.8-3.692,3.8-2.314,0-3.666-1.3-3.666-3.8V11.852h-3.64ZM20.761,30h3.848L18.083,11.826H13.845L7.319,30h3.822l1.2-3.458h7.228Zm-2.184-6.37H13.325l2.626-7.592Zm8.476-11.778V30h9.62V27.114h-5.98V11.852Zm24.622,12.9c0-6.4-9.308-4.368-9.308-8.008,0-1.482,1.066-2.184,2.5-2.132a2.4,2.4,0,0,1,2.6,2.158h4c-.234-3.276-2.782-5.174-6.5-5.174-3.744,0-6.4,1.976-6.4,5.252-.026,6.578,9.334,4.212,9.334,8.138,0,1.3-1.014,2.21-2.73,2.21a2.492,2.492,0,0,1-2.756-2.418h-3.9c.052,3.432,2.964,5.408,6.734,5.408C49.387,30.182,51.675,27.608,51.675,24.748Z" transform="translate(731 3287)" fill="#fff"/>
    </g>
    <path id="Path_1167" data-name="Path 1167" d="M-32.968-5.356c0,1.534-1.04,2.392-2.808,2.392h-3.666V-7.852h3.588C-34.086-7.852-32.968-6.916-32.968-5.356Zm-.442-7.566c0,1.482-.988,2.262-2.7,2.262h-3.328v-4.55h3.328C-34.4-15.21-33.41-14.378-33.41-12.922Zm4.134,8.008a4.4,4.4,0,0,0-3.51-4.394,4.184,4.184,0,0,0,3.094-4.16c0-2.7-2.106-4.68-5.9-4.68h-7.488V0h7.826C-31.486,0-29.276-2.028-29.276-4.914Zm12.532-7.592c0,1.638-.91,2.7-2.938,2.7h-3.042v-5.33h3.042C-17.654-15.132-16.744-14.118-16.744-12.506Zm-9.62-5.642V0h3.64V-7.072h1.716L-17,0h4.212l-4.342-7.358A5.241,5.241,0,0,0-13-12.584c0-3.042-2.184-5.564-6.552-5.564ZM2.626,0H6.474L-.052-18.174H-4.29L-10.816,0h3.822l1.2-3.458H1.43ZM.442-6.37H-4.81l2.626-7.592ZM20.8-18.174v12.48l-8.242-12.48H8.918V0h3.64V-12.454L20.8,0h3.64V-18.174Zm13.572.026H28.028V0h6.344c5.8,0,9.568-3.562,9.568-9.048C43.94-14.56,40.17-18.148,34.372-18.148Zm-2.7,15.054V-15.08h2.574c3.822,0,5.98,2.262,5.98,6.032s-2.158,5.954-5.98,5.954Zm-85.514,14.92h-10.53V30h10.53V27.036h-6.89v-4.81h6.11V19.34h-6.11V14.79h6.89ZM-39.676,30h4.186l-5.8-9.022,5.694-9.126H-39.7l-3.536,6.084-3.926-6.084H-51.35l5.8,9L-51.272,30h4.108l3.562-6.11Zm10.608-9.906V14.816h2.886c2.054,0,2.964.988,2.964,2.652,0,1.612-.91,2.626-2.964,2.626Zm9.594-2.626c0-3.146-2.184-5.616-6.552-5.616h-6.682V30h3.64V23.032h3.042C-21.346,23.032-19.474,20.224-19.474,17.468ZM.806,20.874a9.063,9.063,0,0,0-9.282-9.282,9.115,9.115,0,0,0-9.308,9.282,9.121,9.121,0,0,0,9.308,9.308A9.085,9.085,0,0,0,.806,20.874Zm-14.846,0c0-3.692,2.262-6.006,5.564-6.006,3.276,0,5.538,2.314,5.538,6.006S-5.2,26.932-8.476,26.932C-11.778,26.932-14.04,24.566-14.04,20.874ZM16.2,24.748c0-6.4-9.308-4.368-9.308-8.008,0-1.482,1.066-2.184,2.5-2.132a2.4,2.4,0,0,1,2.6,2.158h4c-.234-3.276-2.782-5.174-6.5-5.174-3.744,0-6.4,1.976-6.4,5.252-.026,6.578,9.334,4.212,9.334,8.138,0,1.3-1.014,2.21-2.73,2.21a2.492,2.492,0,0,1-2.756-2.418h-3.9c.052,3.432,2.964,5.408,6.734,5.408C13.91,30.182,16.2,27.608,16.2,24.748Zm3.094-1.69c0,4.784,3.276,7.124,7.254,7.124s7.41-2.34,7.41-7.124V11.852H30.29V23.084c0,2.5-1.352,3.8-3.692,3.8-2.314,0-3.666-1.3-3.666-3.8V11.852h-3.64Zm27.794-5.564c0,1.638-.91,2.7-2.938,2.7H41.106v-5.33h3.042C46.176,14.868,47.086,15.882,47.086,17.494Zm-9.62-5.642V30h3.64V22.928h1.716l4,7.072h4.212L46.7,22.642a5.241,5.241,0,0,0,4.134-5.226c0-3.042-2.184-5.564-6.552-5.564Zm27.2-.026H54.132V30h10.53V27.036h-6.89v-4.81h6.11V19.34h-6.11V14.79h6.89Z" transform="translate(960 3488)" fill="#00c6b7"/>
    <path id="Path_1168" data-name="Path 1168" d="M-100.737-5.356c0,1.534-1.04,2.392-2.808,2.392h-3.666V-7.852h3.588C-101.855-7.852-100.737-6.916-100.737-5.356Zm-.442-7.566c0,1.482-.988,2.262-2.7,2.262h-3.328v-4.55h3.328C-102.167-15.21-101.179-14.378-101.179-12.922Zm4.134,8.008a4.4,4.4,0,0,0-3.51-4.394,4.184,4.184,0,0,0,3.094-4.16c0-2.7-2.106-4.68-5.9-4.68h-7.488V0h7.826C-99.255,0-97.045-2.028-97.045-4.914Zm12.532-7.592c0,1.638-.91,2.7-2.938,2.7h-3.042v-5.33h3.042C-85.423-15.132-84.513-14.118-84.513-12.506Zm-9.62-5.642V0h3.64V-7.072h1.716l4,7.072h4.212L-84.9-7.358a5.241,5.241,0,0,0,4.134-5.226c0-3.042-2.184-5.564-6.552-5.564ZM-65.143,0h3.848l-6.526-18.174h-4.238L-78.585,0h3.822l1.2-3.458h7.228Zm-2.184-6.37h-5.252l2.626-7.592Zm20.358-11.8v12.48l-8.242-12.48h-3.64V0h3.64V-12.454L-46.969,0h3.64V-18.174Zm13.572.026h-6.344V0H-33.4c5.8,0,9.568-3.562,9.568-9.048C-23.829-14.56-27.6-18.148-33.4-18.148ZM-36.1-3.094V-15.08h2.574c3.822,0,5.98,2.262,5.98,6.032s-2.158,5.954-5.98,5.954ZM-2.587,0H1.261L-5.265-18.174H-9.5L-16.029,0h3.822l1.2-3.458h7.228ZM-4.771-6.37h-5.252L-7.4-13.962Zm8.424-.572c0,4.784,3.276,7.124,7.254,7.124s7.41-2.34,7.41-7.124V-18.148H14.651V-6.916c0,2.5-1.352,3.8-3.692,3.8-2.314,0-3.666-1.3-3.666-3.8V-18.148H3.653ZM28.171-18.148H21.827V0h6.344c5.8,0,9.568-3.562,9.568-9.048C37.739-14.56,33.969-18.148,28.171-18.148Zm-2.7,15.054V-15.08h2.574c3.822,0,5.98,2.262,5.98,6.032s-2.158,5.954-5.98,5.954ZM40.469,0h3.64V-18.148h-3.64ZM58.227-18.174H47.7V0h10.53V-2.964h-6.89v-4.81h6.11V-10.66h-6.11v-4.55h6.89Zm15.184,0v12.48l-8.242-12.48h-3.64V0h3.64V-12.454L73.411,0h3.64V-18.174ZM79.755-9.1a8.948,8.948,0,0,0,9.2,9.256A8.521,8.521,0,0,0,97.487-5.72H93.3a4.556,4.556,0,0,1-4.368,2.626c-3.172,0-5.434-2.34-5.434-6.006,0-3.692,2.262-6.006,5.434-6.006a4.576,4.576,0,0,1,4.368,2.6h4.186a8.552,8.552,0,0,0-8.528-5.876A8.969,8.969,0,0,0,79.755-9.1Zm31.382-9.074h-10.53V0h10.53V-2.964h-6.89v-4.81h6.11V-10.66h-6.11v-4.55h6.89Z" transform="translate(960 3680)" fill="#00c6b7"/>
    <g id="Group_77" data-name="Group 77" transform="translate(-48 11)">
      <g transform="matrix(1, 0, 0, 1, 690, 3157)" filter="url(#Ellipse_6)">
        <circle id="Ellipse_6-2" data-name="Ellipse 6" cx="91" cy="91" r="91" transform="translate(409 45)" fill="#00c6b7"/>
      </g>
      <path id="Path_1166" data-name="Path 1166" d="M-32.968-5.356c0,1.534-1.04,2.392-2.808,2.392h-3.666V-7.852h3.588C-34.086-7.852-32.968-6.916-32.968-5.356Zm-.442-7.566c0,1.482-.988,2.262-2.7,2.262h-3.328v-4.55h3.328C-34.4-15.21-33.41-14.378-33.41-12.922Zm4.134,8.008a4.4,4.4,0,0,0-3.51-4.394,4.184,4.184,0,0,0,3.094-4.16c0-2.7-2.106-4.68-5.9-4.68h-7.488V0h7.826C-31.486,0-29.276-2.028-29.276-4.914Zm12.532-7.592c0,1.638-.91,2.7-2.938,2.7h-3.042v-5.33h3.042C-17.654-15.132-16.744-14.118-16.744-12.506Zm-9.62-5.642V0h3.64V-7.072h1.716L-17,0h4.212l-4.342-7.358A5.241,5.241,0,0,0-13-12.584c0-3.042-2.184-5.564-6.552-5.564ZM2.626,0H6.474L-.052-18.174H-4.29L-10.816,0h3.822l1.2-3.458H1.43ZM.442-6.37H-4.81l2.626-7.592ZM20.8-18.174v12.48l-8.242-12.48H8.918V0h3.64V-12.454L20.8,0h3.64V-18.174Zm13.572.026H28.028V0h6.344c5.8,0,9.568-3.562,9.568-9.048C43.94-14.56,40.17-18.148,34.372-18.148Zm-2.7,15.054V-15.08h2.574c3.822,0,5.98,2.262,5.98,6.032s-2.158,5.954-5.98,5.954Zm-82.81,23.188V14.816h2.886c2.054,0,2.964.988,2.964,2.652,0,1.612-.91,2.626-2.964,2.626Zm9.594-2.626c0-3.146-2.184-5.616-6.552-5.616h-6.682V30h3.64V23.032H-48.1C-43.42,23.032-41.548,20.224-41.548,17.468Zm12.194.026c0,1.638-.91,2.7-2.938,2.7h-3.042v-5.33h3.042C-30.264,14.868-29.354,15.882-29.354,17.494Zm-9.62-5.642V30h3.64V22.928h1.716l4,7.072H-25.4l-4.342-7.358a5.241,5.241,0,0,0,4.134-5.226c0-3.042-2.184-5.564-6.552-5.564ZM-4.6,20.874a9.063,9.063,0,0,0-9.282-9.282,9.115,9.115,0,0,0-9.308,9.282,9.121,9.121,0,0,0,9.308,9.308A9.085,9.085,0,0,0-4.6,20.874Zm-14.846,0c0-3.692,2.262-6.006,5.564-6.006,3.276,0,5.538,2.314,5.538,6.006s-2.262,6.058-5.538,6.058C-17.186,26.932-19.448,24.566-19.448,20.874ZM-1.9,30h3.64V18.2L6.63,30H9.386l4.862-11.8V30h3.64V11.852H13.78L8.008,25.346,2.236,11.852H-1.9Zm23.374,0h3.64V11.852h-3.64Zm19.916-5.252c0-6.4-9.308-4.368-9.308-8.008,0-1.482,1.066-2.184,2.5-2.132a2.4,2.4,0,0,1,2.6,2.158h4c-.234-3.276-2.782-5.174-6.5-5.174-3.744,0-6.4,1.976-6.4,5.252-.026,6.578,9.334,4.212,9.334,8.138,0,1.3-1.014,2.21-2.73,2.21a2.492,2.492,0,0,1-2.756-2.418h-3.9c.052,3.432,2.964,5.408,6.734,5.408C39.1,30.182,41.392,27.608,41.392,24.748ZM55.068,11.826H44.538V30h10.53V27.036h-6.89v-4.81h6.11V19.34h-6.11V14.79h6.89Z" transform="translate(1190 3287)" fill="#fff"/>
    </g>
    <g id="arrow" transform="translate(1138.683 3460.537) rotate(135)">
      <g id="Group_61" data-name="Group 61" transform="translate(0 85.333)">
        <path id="Path_693" data-name="Path 693" d="M37.687,97.414,25.837,85.564a.79.79,0,0,0-1.117,1.117l10.5,10.5H.79a.79.79,0,1,0,0,1.58H35.221l-10.5,10.5a.79.79,0,1,0,1.117,1.117L37.687,98.531A.79.79,0,0,0,37.687,97.414Z" transform="translate(0 -85.333)" fill="#5d676d" stroke="#5d676d" stroke-width="3"/>
      </g>
    </g>
    <g id="arrow-2" data-name="arrow" transform="translate(919.871 3321.984) rotate(45)">
      <g id="Group_61-2" data-name="Group 61" transform="translate(0 85.333)">
        <path id="Path_693-2" data-name="Path 693" d="M37.687,97.414,25.837,85.564a.79.79,0,0,0-1.117,1.117l10.5,10.5H.79a.79.79,0,1,0,0,1.58H35.221l-10.5,10.5a.79.79,0,1,0,1.117,1.117L37.687,98.531A.79.79,0,0,0,37.687,97.414Z" transform="translate(0 -85.333)" fill="#5d676d" stroke="#5d676d" stroke-width="3"/>
      </g>
    </g>
    <g id="arrow-3" data-name="arrow" transform="translate(1057.972 3603.707) rotate(90)">
      <g id="Group_61-3" data-name="Group 61" transform="translate(0 85.333)">
        <path id="Path_693-3" data-name="Path 693" d="M37.687,97.414,25.837,85.564a.79.79,0,0,0-1.117,1.117l10.5,10.5H.79a.79.79,0,1,0,0,1.58H35.221l-10.5,10.5a.79.79,0,1,0,1.117,1.117L37.687,98.531A.79.79,0,0,0,37.687,97.414Z" transform="translate(0 -85.333)" fill="#5d676d" stroke="#5d676d" stroke-width="3"/>
      </g>
    </g>
  </g>
</svg>
