<svg xmlns="http://www.w3.org/2000/svg" width="108px" height="101px" viewBox="0 0 108.917 101.773"><g transform="translate(11.49 30.878)"><g transform="translate(0 0)"><path d="M439.608,1083.308l-11.85-18.3a4.944,4.944,0,0,0-4.165-2.265H371.311A4.945,4.945,0,0,0,367.15,1065l-11.887,18.3a4.973,4.973,0,0,0,.456,6l38.007,42.669a4.967,4.967,0,0,0,3.705,1.662h0a4.967,4.967,0,0,0,3.706-1.662l38.011-42.672A4.974,4.974,0,0,0,439.608,1083.308ZM421.193,1067l-9.966,15.41L401.256,1067Zm-13.875,17.2H387.546l9.886-15.278Zm-13.71-17.2-9.944,15.368L373.723,1067Zm-23.818,1.752,9.992,15.447H359.756Zm-9.134,19.7h21.41l11.321,36.746Zm36.777,35.429-10.915-35.429h21.83Zm4.046,1.319,11.321-36.747h21.412Zm13.66-41,9.983-15.437,10,15.437Z" transform="translate(-354.465 -1062.744)" fill="#00c6b7"/></g></g><g transform="translate(0 52.332)"><path d="M6.453,1724.579H2.127a2.127,2.127,0,1,0,0,4.255H6.453a2.127,2.127,0,1,0,0-4.255Z" transform="translate(0 -1724.579)" fill="#00c6b7"/></g><g transform="translate(100.338 52.332)"><path d="M3101.767,1724.579h-4.325a2.127,2.127,0,1,0,0,4.255h4.325a2.127,2.127,0,0,0,0-4.255Z" transform="translate(-3095.314 -1724.579)" fill="#00c6b7"/></g><g transform="translate(82.296 15.339)"><g transform="translate(0 0)"><path d="M2549.448,584.011a2.127,2.127,0,0,0-3.009,0l-7.067,7.066a2.127,2.127,0,0,0,3.009,3.008l7.066-7.066A2.127,2.127,0,0,0,2549.448,584.011Z" transform="translate(-2538.75 -583.388)" fill="#00c6b7"/></g></g><g transform="translate(15.393 15.301)"><g transform="translate(0 0)"><path d="M485.549,589.9l-7.066-7.066a2.127,2.127,0,0,0-3.009,3.008l7.066,7.066a2.127,2.127,0,0,0,3.008-3.008Z" transform="translate(-474.851 -582.213)" fill="#00c6b7"/></g></g><g transform="translate(52.386 0)"><g transform="translate(0 0)"><path d="M1618.169,110.2a2.127,2.127,0,0,0-2.127,2.127v13.863a2.127,2.127,0,0,0,4.255,0V112.331A2.128,2.128,0,0,0,1618.169,110.2Z" transform="translate(-1616.042 -110.204)" fill="#00c6b7"/></g></g><g transform="translate(52.385 21.06)"><g transform="translate(0 0)"><path d="M1619.646,760.5a2.126,2.126,0,1,0,.624,1.5A2.143,2.143,0,0,0,1619.646,760.5Z" transform="translate(-1616.015 -759.872)" fill="#00c6b7"/></g></g></svg>
