<svg xmlns="http://www.w3.org/2000/svg" width="66.6" height="66.6" viewBox="0 0 66.6 66.6"><g transform="translate(-12.9 -12.9)"><path d="M79.5,14.6a1.828,1.828,0,0,0-1.7-1.7H55.4a1.828,1.828,0,0,0-1.7,1.7l.1,1.9a1.845,1.845,0,0,0,.5,1.2,1.5,1.5,0,0,0,1.1.4H70.3l-22,22a1.845,1.845,0,0,0,0,2.5L49.7,44a1.656,1.656,0,0,0,1.2.5h.2a1.2,1.2,0,0,0,1-.5l22-22V37a1.828,1.828,0,0,0,1.7,1.7h2A1.828,1.828,0,0,0,79.5,37Z" fill="#00c6b7"/><path d="M42.7,48.2a1.457,1.457,0,0,0-1.2-.5,2.22,2.22,0,0,0-1.1.5l-22,22-.1-14.8a1.828,1.828,0,0,0-1.7-1.7h-2a1.828,1.828,0,0,0-1.7,1.7V77.8a1.828,1.828,0,0,0,1.7,1.7H37a1.828,1.828,0,0,0,1.7-1.7v-2a1.845,1.845,0,0,0-.5-1.2,1.5,1.5,0,0,0-1.1-.4h-15l22-22a1.75,1.75,0,0,0,0-2.5Z" fill="#00c6b7"/></g></svg>