<svg xmlns="http://www.w3.org/2000/svg" width="78.7" height="81.2" viewBox="0 0 78.7 81.2"><path d="M41,82.4A40.1,40.1,0,0,1,13.5,71.5l-1.1-1L9,73.9a.908.908,0,0,1-.7.3H8.1a.988.988,0,0,1-.7-.7C7.4,73,4.1,56.4,4,56.1a.67.67,0,0,1,.3-.8A.908.908,0,0,1,5,55h.2l15.6,5.1a.922.922,0,0,1,.4,1.6l-3.9,3.9,1.1,1.1a33.394,33.394,0,0,0,22.7,8.9h.2A33.289,33.289,0,0,0,74.4,42.1a29.337,29.337,0,0,0-.3-4.1v-.3a1.063,1.063,0,0,1,.9-.8h.2l5,1a1.085,1.085,0,0,1,.8.8c.1,1,.1,2,.1,3.1v.1A39.89,39.89,0,0,1,70.2,69.5,38.926,38.926,0,0,1,41,82.4ZM42.6,1.2A40.1,40.1,0,0,1,70.1,12.1l1.1,1,3.4-3.4a.908.908,0,0,1,.7-.3h.2a.988.988,0,0,1,.7.7c.1.4,3.4,17,3.5,17.3a.67.67,0,0,1-.3.8.908.908,0,0,1-.7.3h-.2L62.9,23.4a.922.922,0,0,1-.4-1.6l3.9-3.9-1.1-1.1A34.606,34.606,0,0,0,42.5,8h-.2A33.374,33.374,0,0,0,9.1,41.5a29.338,29.338,0,0,0,.3,4.1v.3a1.063,1.063,0,0,1-.9.8H8.3l-5-1a1.085,1.085,0,0,1-.8-.8c-.1-1-.1-2-.1-3.1v-.1A39.89,39.89,0,0,1,13.3,14.1,38.941,38.941,0,0,1,42.6,1.2Z" transform="translate(-2.4 -1.2)" fill="#00c6b7"/></svg>