<svg xmlns="http://www.w3.org/2000/svg" width="23.661" height="23.661" viewBox="0 0 23.661 23.661"><path d="M20.888,0H2.773A2.776,2.776,0,0,0,0,2.773V20.888a2.776,2.776,0,0,0,2.773,2.773H20.888a2.776,2.776,0,0,0,2.773-2.773V2.773A2.776,2.776,0,0,0,20.888,0Zm.924,20.888a.925.925,0,0,1-.924.924H15.62V14.28h2.855l.472-2.865H15.62V9.427a1.363,1.363,0,0,1,1.386-1.386H18.9V5.176H17.006a4.251,4.251,0,0,0-4.251,4.26v1.979H9.982V14.28h2.774v7.533H2.773a.925.925,0,0,1-.924-.924V2.773a.925.925,0,0,1,.924-.924H20.888a.925.925,0,0,1,.924.924Z" fill="#60636a"/></svg>