<svg xmlns="http://www.w3.org/2000/svg" width="23.661" height="23.661" viewBox="0 0 23.661 23.661"><path d="M17.412,0H6.249A6.182,6.182,0,0,0,0,6.249V17.412a6.182,6.182,0,0,0,6.249,6.249H17.412a6.182,6.182,0,0,0,6.249-6.249V6.249A6.183,6.183,0,0,0,17.412,0Zm4.722,17.412a4.672,4.672,0,0,1-4.722,4.722H6.249a4.672,4.672,0,0,1-4.722-4.722V6.249A4.672,4.672,0,0,1,6.249,1.526H17.412a4.672,4.672,0,0,1,4.722,4.722Z" fill="#60636a"/><path d="M100.89,115.563a.763.763,0,0,0-.835-.042,4.41,4.41,0,0,1-1.3.29l-.282.038a3.667,3.667,0,0,0-2.335-.841,3.612,3.612,0,0,0-3.621,3.367A7.431,7.431,0,0,1,88.03,115.8a.763.763,0,0,0-1.288.179,10.213,10.213,0,0,0-.475,3.751c0,2.245,1.771,3.894,2.987,4.762a5.217,5.217,0,0,1-2.7.416.764.764,0,0,0-.493,1.4,8.977,8.977,0,0,0,4.8,1.384,8.753,8.753,0,0,0,8.9-8.535c.157-.228.457-.672.964-1.452a5.214,5.214,0,0,0,.456-1.365A.763.763,0,0,0,100.89,115.563Zm-2.5,2.9a.765.765,0,0,0-.145.447,7.265,7.265,0,0,1-7.382,7.255,7.525,7.525,0,0,1-1.364-.124,6.548,6.548,0,0,0,1.679-.94.763.763,0,0,0-.121-1.285c-.033-.017-3.259-1.713-3.259-4.089a16.231,16.231,0,0,1,.1-1.9,8.987,8.987,0,0,0,5.411,2.161c.015,0,.031,0,.046,0a.763.763,0,0,0,.711-1.06,2.057,2.057,0,0,1,2.071-2.4,2.127,2.127,0,0,1,1.536.653.766.766,0,0,0,.7.223c.173-.033.373-.059.583-.086l.227-.031C98.6,118.166,98.4,118.454,98.388,118.468Z" transform="translate(-81.618 -109.522)" fill="#60636a"/></svg>