<svg xmlns="http://www.w3.org/2000/svg" width="23.64" height="19.212" viewBox="0 0 23.64 19.212"><path d="M26.211,7.092a9.7,9.7,0,0,1-2.786.764,4.865,4.865,0,0,0,2.133-2.683,9.71,9.71,0,0,1-3.08,1.177,4.855,4.855,0,0,0-8.265,4.424,13.769,13.769,0,0,1-10-5.068,4.855,4.855,0,0,0,1.5,6.475,4.83,4.83,0,0,1-2.2-.607c0,.02,0,.041,0,.061A4.853,4.853,0,0,0,7.411,16.39a4.858,4.858,0,0,1-2.19.083,4.855,4.855,0,0,0,4.531,3.368,9.731,9.731,0,0,1-6.024,2.076,9.837,9.837,0,0,1-1.157-.068,13.728,13.728,0,0,0,7.435,2.179,13.705,13.705,0,0,0,13.8-13.8q0-.315-.014-.627a9.853,9.853,0,0,0,2.42-2.511Z" transform="translate(-2.571 -4.817)" fill="#00aced"/></svg>