<svg xmlns="http://www.w3.org/2000/svg" viewBox="0 0 512 512" fill="#fff"><path d="M256 0C114.844 0 0 114.844 0 256s114.844 256 256 256 256-114.844 256-256S397.156 0 256 0zm0 469.333c-58.116 0-110.82-23.418-149.333-61.238v-34.762c0-10.146 4.542-16.677 9.792-24.24C121.865 341.313 128 332.49 128 320c0-20.344-18.365-22.406-28.24-23.51-7.063-.792-13.729-1.542-17.552-5.365-2.896-2.896-5.792-8.156-8.854-13.719-6.081-11.064-14.324-25.695-30.017-34.656C50.236 131.296 142.837 42.667 256 42.667c5.855 0 11.611.414 17.349.879-1.168.767-2.599 1.288-3.557 2.246a10.69 10.69 0 00-3.125 7.854 10.745 10.745 0 003.573 7.656c3.833 3.406 4.573 5.125 4.719 5.125-.24.51-2.198 3.854-13.115 9.396-18.021 9.135-38.833 27.833-41.927 47.292-1.417 8.833 1.146 17.031 7.208 23.094 2 2 4.708 3.125 7.542 3.125 14.813 0 26.26-5.479 37.333-10.771C283.365 133.135 294.104 128 309.333 128c41.865 0 74.667 9.375 74.667 21.333 0 4.385-1.365 5.729-1.885 6.229-5.24 5.156-23.083 4.823-38.771 4.583-4.156-.073-8.406-.146-12.677-.146-14.479 0-18.969-2.115-24.167-4.573-6.052-2.854-12.906-6.094-29.167-6.094-17.583 0-50.26 3.177-71.542 24.458-17.406 17.396-15.563 38.208-14.354 51.969.281 3.167.563 6.167.563 8.906 0 21.01 21.469 32 42.667 32 32.604 0 60.792 6.083 64 10.667 0 11.938 3.552 20.094 6.406 26.635 2.375 5.469 4.26 9.781 4.26 16.031 0 4.833-.792 5.865-2.927 8.615-4.073 5.292-7.74 11.052-7.74 23.385 0 22.448 21.615 47.073 24.073 49.813a10.688 10.688 0 0010.573 3.188c6.281-1.615 61.354-16.771 61.354-53 0-11.354 3.531-14.417 8.885-19.063 5.25-4.563 12.448-10.802 12.448-23.604 0-8.552 15.177-30.625 29.24-46.177a10.677 10.677 0 002.719-8.094 10.65 10.65 0 00-4.083-7.49c-8.292-6.427-31.188-27.354-38.854-47.656 4.344 2.271 9.781 5.969 14.104 10.292 3.552 3.573 8.313 5.281 13.729 5.063 8.639-.493 18.902-7.319 28.628-15.833 4.975 18.046 7.852 36.956 7.852 56.563-.001 117.635-95.699 213.333-213.334 213.333z"/></svg>