<svg xmlns="http://www.w3.org/2000/svg" width="28.129" height="17.91" viewBox="0 0 28.129 17.91"><path d="M17.482,14.115l-.088-.385H8.79v3.522h4.983a4.461,4.461,0,0,1-4.62,3.494A5.268,5.268,0,0,1,5.4,19.357a5.336,5.336,0,0,1-1.588-3.868,5.343,5.343,0,0,1,1.516-3.824,5.182,5.182,0,0,1,3.774-1.4A4.756,4.756,0,0,1,12.3,11.429l2.637-2.621A8.928,8.928,0,0,0,9.016,6.539h0A9.11,9.11,0,0,0,2.549,9.165,9.119,9.119,0,0,0,0,15.494a9.012,9.012,0,0,0,2.45,6.225A9.361,9.361,0,0,0,9.2,24.449a8.332,8.332,0,0,0,6.06-2.544,8.922,8.922,0,0,0,2.329-6.192A10.3,10.3,0,0,0,17.482,14.115Z" transform="translate(0 -6.539)" fill="#e91f1d"/><path d="M33.617,14.874H30.486V11.742H28.233v3.132H25.1v2.253h3.132v3.132h2.253V17.126h3.132Z" transform="translate(-5.488 -7.677)" fill="#e91f1d"/></svg>