<svg xmlns="http://www.w3.org/2000/svg" width="23.5" height="23.5" viewBox="0 0 23.5 23.5"><path d="M11.876,5.838a6.03,6.03,0,1,0,6.03,6.03,6.029,6.029,0,0,0-6.03-6.03Zm0,9.943a3.914,3.914,0,1,1,3.914-3.914A3.912,3.912,0,0,1,11.876,15.781Z" transform="translate(-0.122 -0.122)" fill="#60636a"/><path d="M16.595.074c-2.162-.1-7.517-.1-9.681,0a7.022,7.022,0,0,0-4.931,1.9C-.277,4.235.012,7.28.012,11.746c0,4.571-.255,7.545,1.971,9.771,2.269,2.268,5.358,1.971,9.771,1.971,4.528,0,6.09,0,7.691-.617,2.177-.845,3.82-2.791,3.98-6.285.1-2.163.1-7.517,0-9.681C23.232,2.78,21.018.278,16.595.074Zm3.422,19.947c-1.481,1.481-3.537,1.349-8.292,1.349-4.9,0-6.859.072-8.292-1.364-1.65-1.642-1.351-4.279-1.351-8.277,0-5.41-.555-9.306,4.874-9.584C8.2,2.1,8.572,2.088,11.712,2.088l.044.029c5.218,0,9.312-.546,9.558,4.882.056,1.239.069,1.611.069,4.746,0,4.839.091,6.814-1.365,8.277Z" transform="translate(0 -0.001)" fill="#60636a"/><ellipse cx="1.409" cy="1.409" rx="1.409" ry="1.409" transform="translate(16.614 4.069)" fill="#60636a"/></svg>