<svg xmlns="http://www.w3.org/2000/svg" viewBox="0 0 25 25"><title>instagram</title><path d="M18.23,0H6.77A6.78,6.78,0,0,0,0,6.77V18.23A6.78,6.78,0,0,0,6.77,25H18.23A6.78,6.78,0,0,0,25,18.23V6.77A6.78,6.78,0,0,0,18.23,0Zm5.3,18.23a5.3,5.3,0,0,1-5.3,5.3H6.77a5.3,5.3,0,0,1-5.3-5.3V6.77a5.3,5.3,0,0,1,5.3-5.3H18.23a5.3,5.3,0,0,1,5.3,5.3Zm0,0"/><path d="M12.5,5.66a6.84,6.84,0,1,0,6.84,6.84A6.85,6.85,0,0,0,12.5,5.66Zm0,12.21a5.37,5.37,0,1,1,5.37-5.37,5.38,5.38,0,0,1-5.37,5.37Zm0,0"/><path d="M19.5,3.24a2,2,0,1,0,2,2,2,2,0,0,0-2-2Zm0,2.57a.56.56,0,1,1,.55-.55.56.56,0,0,1-.55.55Zm0,0"/></svg>