<svg xmlns="http://www.w3.org/2000/svg" viewBox="0 0 25 25"><title>pinterest</title><path d="M12.5,0A12.49,12.49,0,0,0,7.93,24.12c0-.42,0-2.63,1.52-9.24A20.23,20.23,0,0,0,9.37,11c0-2.08,1.08-2.51,1.71-2.51.9,0,2.14.34,2.14,1.79a2.13,2.13,0,0,1-1.35,2.09,14.13,14.13,0,0,0-.21,1.6,2,2,0,0,0,2.28,2.46c3.09,0,3.57-4.28,3.57-5.46A4.91,4.91,0,0,0,12.6,6a5.63,5.63,0,0,0-5.79,5.61,9.23,9.23,0,0,0,.24,1.78c.93.15.83,1.43.43,1.79s-2.72.88-2.72-4.13c0-4.77,4.25-7.22,8-7.22,3.55,0,7.42,2.44,7.42,7.16,0,4.22-3,7.54-6.21,7.54A3.71,3.71,0,0,1,11,17c0,1.48-2.7,6.54-3,7.18A12.5,12.5,0,1,0,12.5,0Zm0,0"/></svg>