<svg xmlns="http://www.w3.org/2000/svg" viewBox="0 0 25 20.52"><title>register</title><path d="M0,0H.83V20.52H0Z" transform="translate(0 0)"/><path d="M3.33,20.52V0H1.67V20.52H3.33Z" transform="translate(0 0)"/><path d="M10.83,20.52V0H9.17V20.52h1.66Z" transform="translate(0 0)"/><path d="M17.92,20.52V0H16.25V20.52h1.67Z" transform="translate(0 0)"/><path d="M20.42,20.52V0H18.75V20.52h1.67Z" transform="translate(0 0)"/><path d="M4.17,0H5V20.52H4.17Z" transform="translate(0 0)"/><path d="M11.67,0h.83V20.52h-.83Z" transform="translate(0 0)"/><path d="M12.92,0h.83V20.52h-.83Z" transform="translate(0 0)"/><path d="M14.58,0h.84V20.52h-.84Z" transform="translate(0 0)"/><path d="M7.5,20.52h.83V0H5.83V20.52H7.5Z" transform="translate(0 0)"/><path d="M22.92,20.52h.83V0h-2.5V20.52h1.67Z" transform="translate(0 0)"/><path d="M24.17,0H25V20.52h-.83Z" transform="translate(0 0)"/></svg>