<svg xmlns="http://www.w3.org/2000/svg" viewBox="0 0 25 25"><title>smile</title><path d="M12.5,0A12.5,12.5,0,1,0,25,12.5,12.52,12.52,0,0,0,12.5,0Zm0,23.54a11,11,0,1,1,11-11,11.06,11.06,0,0,1-11,11Zm0,0" transform="translate(0)"/><circle cx="8.06" cy="9.62" r="1.56"/><circle cx="16.65" cy="9.62" r="1.56"/><path d="M5.76,17.3a8.2,8.2,0,0,0,6.74,4,8.2,8.2,0,0,0,6.74-4" transform="translate(0)" fill="none" stroke="#000" stroke-linecap="round" stroke-miterlimit="10" stroke-width="1.5"/><path d="M12.5,20" transform="translate(0)" fill="none" stroke="#000" stroke-linecap="round" stroke-miterlimit="10" stroke-width="1.5"/></svg>