<svg xmlns="http://www.w3.org/2000/svg" viewBox="0 0 25 25"><title>usersvg</title><path d="M12.5,0A12.5,12.5,0,1,0,25,12.5,12.52,12.52,0,0,0,12.5,0Zm0,23.54a11,11,0,1,1,11-11,11.06,11.06,0,0,1-11,11Zm0,0" transform="translate(0)"/><path d="M12.5,13.18A5.13,5.13,0,1,0,7.37,8.06a5.13,5.13,0,0,0,5.13,5.12Zm0-8.79A3.67,3.67,0,1,1,8.84,8.06,3.67,3.67,0,0,1,12.5,4.39Zm0,0" transform="translate(0)"/><path d="M20.73,16.38a5.12,5.12,0,0,0-3.84-1.73H8.11a5.12,5.12,0,0,0-3.84,1.73l-.35.39.26.46a9.57,9.57,0,0,0,16.64,0l.26-.46ZM12.5,20.61A8.15,8.15,0,0,1,5.74,17a3.66,3.66,0,0,1,2.37-.87h8.78a3.66,3.66,0,0,1,2.37.87,8.15,8.15,0,0,1-6.76,3.63Zm0,0" transform="translate(0)"/></svg>