<svg xmlns="http://www.w3.org/2000/svg" width="86.657" height="94.535" viewBox="0 0 86.657 94.535"><path d="M148.1,433.725a14.789,14.789,0,0,1-14.771-14.771,2.954,2.954,0,0,1,5.908,0,8.863,8.863,0,1,0,17.725,0,2.954,2.954,0,0,1,5.908,0A14.789,14.789,0,0,1,148.1,433.725Zm0,0" transform="translate(-108.714 -339.19)" fill="#00c6b7"/><path d="M71.886,134.9H6.893A6.895,6.895,0,0,1,2.41,122.769a2.725,2.725,0,0,1,.315-.237,26.473,26.473,0,0,0,9.091-19.97V91.573A27.606,27.606,0,0,1,39.389,64a11.865,11.865,0,0,1,1.942.118,2.953,2.953,0,1,1-.969,5.825,6.2,6.2,0,0,0-.973-.035A21.69,21.69,0,0,0,17.725,91.573v10.99a32.4,32.4,0,0,1-11.435,24.7c-.059.048-.11.091-.174.134a.975.975,0,0,0-.208.611,1,1,0,0,0,.984.984H71.886a1,1,0,0,0,.985-.984.941.941,0,0,0-.213-.611c-.059-.043-.11-.087-.169-.134a32.389,32.389,0,0,1-11.435-24.7V98.269a2.954,2.954,0,1,1,5.908,0v4.293a26.482,26.482,0,0,0,9.1,19.983,2.875,2.875,0,0,1,.3.229A6.891,6.891,0,0,1,71.886,134.9Zm0,0" transform="translate(0 -52.183)" fill="#00c6b7"/><path d="M275.7,39.389A19.695,19.695,0,1,1,295.389,19.7,19.717,19.717,0,0,1,275.7,39.389Zm0-33.481A13.786,13.786,0,1,0,289.481,19.7,13.8,13.8,0,0,0,275.7,5.908Zm0,0" transform="translate(-208.733)" fill="#00c6b7"/></svg>