<svg xmlns="http://www.w3.org/2000/svg" viewBox="0 0 245.7 66.44"><path d="M245.69 6.43h-9.14l-.05 26.9H229V6.43h-9.14V.36h25.84zm-24.88 26.9H215a2.51 2.51 0 01-1.58-.46 2.84 2.84 0 01-.91-1.19l-1.91-5.75h-12.38l-1.93 5.75a2.73 2.73 0 01-.87 1.14 2.47 2.47 0 01-1.58.51H188l12.63-33h7.71zm-11.95-12.6l-3-9c-.22-.57-.46-1.25-.71-2s-.5-1.61-.75-2.52c-.22.92-.46 1.77-.72 2.56s-.49 1.46-.72 2l-3 9zM183.36.36l-.07 33h-7.57V19.42h-13.17v13.94h-7.58l.07-33h7.58v13.79h13.19V.36zm-37.22 6.7a2.78 2.78 0 01-.7.82 1.55 1.55 0 01-.95.27 2.41 2.41 0 01-1.1-.33l-1.33-.74a10.46 10.46 0 00-1.71-.73 6.7 6.7 0 00-2.18-.35 4.68 4.68 0 00-3.16.91 3.16 3.16 0 00-1 2.49 2.29 2.29 0 00.62 1.65 5.45 5.45 0 001.64 1.13 19.43 19.43 0 002.31.87c.87.26 1.76.55 2.66.88a24.06 24.06 0 012.67 1.14 8.78 8.78 0 012.31 1.68 7.65 7.65 0 011.63 2.47 8.92 8.92 0 01.62 3.53 11.38 11.38 0 01-.79 4.27 10 10 0 01-2.26 3.47 10.4 10.4 0 01-3.66 2.33 13.45 13.45 0 01-4.95.86 15.65 15.65 0 01-3.08-.32 18.4 18.4 0 01-5.8-2.26 11.9 11.9 0 01-2.25-1.77l2.23-3.57a2.22 2.22 0 01.71-.65 1.74 1.74 0 01.95-.26 2.52 2.52 0 011.35.43c.45.29 1 .6 1.53.95a12.47 12.47 0 002 .95 7.21 7.21 0 002.63.43 5 5 0 003.19-.92 3.49 3.49 0 001.14-2.9 2.8 2.8 0 00-.62-1.88 5 5 0 00-1.63-1.2 14.73 14.73 0 00-2.31-.84c-.86-.24-1.75-.51-2.65-.81a18.41 18.41 0 01-2.72-1.06 8.32 8.32 0 01-2.3-1.7 7.91 7.91 0 01-1.64-2.62 10.7 10.7 0 01-.62-3.88 9.53 9.53 0 012.91-6.8 10.77 10.77 0 013.51-2.18 12.75 12.75 0 014.75-.82 18.53 18.53 0 012.91.23 15.28 15.28 0 012.68.71 14.83 14.83 0 012.38 1.11 11.23 11.23 0 012 1.46zm-22.65 26.27h-5.84a2.49 2.49 0 01-1.58-.46 2.94 2.94 0 01-.92-1.19l-1.9-5.75H100.9L99 31.68a2.73 2.73 0 01-.87 1.14 2.47 2.47 0 01-1.58.51h-5.91l12.63-33H111zm-11.95-12.6l-3-9c-.22-.57-.46-1.25-.71-2s-.5-1.61-.75-2.52c-.23.92-.46 1.77-.72 2.56s-.49 1.46-.72 2l-3 9zM91.66 6.43h-9.13l-.06 26.9h-7.53V6.43h-9.09V.36h25.83zM54.91 32.72l-1.16-2.1-4.58-8.31a2.27 2.27 0 00-.84-.89 2.6 2.6 0 00-1.33-.28h-1.93v12.19h-7.55l.06-33h10.56a21.38 21.38 0 016 .73 11.18 11.18 0 014.06 2.09 7.57 7.57 0 012.28 3.1 10.51 10.51 0 01.71 3.89 11 11 0 01-.43 3 9.61 9.61 0 01-3.3 4.8 11.13 11.13 0 01-2.8 1.56 6.71 6.71 0 011.38 1 5.51 5.51 0 011.15 1.37l5.06 8.71a13.73 13.73 0 00-7.34 2.14zm-6.8-16.86a7.54 7.54 0 002.63-.4 4.62 4.62 0 001.77-1.09 4.27 4.27 0 001-1.64 6.35 6.35 0 00.32-2 4.29 4.29 0 00-1.38-3.39 6.4 6.4 0 00-4.32-1.22h-3v9.77zM32.85 33.33H27a2.51 2.51 0 01-1.58-.46 2.92 2.92 0 01-.91-1.19l-1.91-5.75H10.27l-1.93 5.75a2.84 2.84 0 01-.88 1.14 2.44 2.44 0 01-1.58.51H0L12.63.36h7.72zm-11.94-12.6l-3-9c-.23-.57-.46-1.25-.71-2s-.5-1.61-.76-2.52c-.22.92-.46 1.77-.71 2.56s-.5 1.46-.72 2l-3 9z" fill="#fff"/><path d="M180.27 65.48a1.72 1.72 0 01-.52.72 1.63 1.63 0 01-1 .24h-3.36l3.51-7.5-7.58-17.35h4a1.26 1.26 0 01.84.26 1.52 1.52 0 01.44.58l4 9.72a17.39 17.39 0 01.61 2c.09-.35.2-.69.32-1s.24-.66.37-1l3.76-9.7a1.35 1.35 0 01.49-.6 1.26 1.26 0 01.75-.24h3.62zm-21.44-5.15V41.59h2.65a1.09 1.09 0 011.33 1.13l.25 2.12a8.27 8.27 0 012.11-2.64 4.41 4.41 0 012.84-1 3.5 3.5 0 012.09.57l-.3 3.38a.81.81 0 01-.26.46.73.73 0 01-.47.14 5.41 5.41 0 01-.81-.09 6.38 6.38 0 00-1-.09 3.67 3.67 0 00-1.33.22 3.28 3.28 0 00-1 .62 4.52 4.52 0 00-.82 1 9.84 9.84 0 00-.67 1.34v11.58zm-12.44-15.8a4.18 4.18 0 00-3.09 1.11 5.5 5.5 0 00-1.42 3.16h8.51a5.27 5.27 0 00-.25-1.65 3.82 3.82 0 00-.74-1.36 3.34 3.34 0 00-1.25-.92 4.19 4.19 0 00-1.76-.34zm-.09-3.23a9.35 9.35 0 013.27.56 7.28 7.28 0 012.57 1.65 7.76 7.76 0 011.69 2.67 9.9 9.9 0 01.61 3.61 2.82 2.82 0 01-.22 1.37.89.89 0 01-.84.36h-11.59a8.62 8.62 0 00.51 2.48 5 5 0 001.06 1.74 4.07 4.07 0 001.56 1 5.56 5.56 0 002 .34 6.23 6.23 0 001.89-.25 8.71 8.71 0 001.39-.57l1-.56a1.64 1.64 0 01.86-.26.93.93 0 01.84.42l1.3 1.64a7.52 7.52 0 01-1.64 1.5 9.42 9.42 0 01-1.94 1 10.79 10.79 0 01-2.07.51 16 16 0 01-2 .14 10.06 10.06 0 01-3.64-.65 8.07 8.07 0 01-2.91-2 8.81 8.81 0 01-2-3.14 12 12 0 01-.72-4.33 10.45 10.45 0 01.62-3.61 8.61 8.61 0 011.8-2.92 8.25 8.25 0 012.83-2 9.25 9.25 0 013.77-.7zm-29.59 19V41.59h2.76a1.11 1.11 0 011.15.82l.31 1.48a10 10 0 011.2-1.06 8.64 8.64 0 011.33-.82 6.84 6.84 0 011.5-.53 8.07 8.07 0 011.76-.18 6.67 6.67 0 012.72.52 5.28 5.28 0 012 1.46 6.44 6.44 0 011.21 2.24 9.73 9.73 0 01.4 2.88v11.93h-4.51V48.4a4.07 4.07 0 00-.78-2.66 2.92 2.92 0 00-2.39-.94 4.79 4.79 0 00-2.2.53 8.07 8.07 0 00-1.93 1.45v13.55zm-21.61 0V41.59h2.76a1.11 1.11 0 011.15.82l.31 1.48a10.84 10.84 0 011.2-1.06 8.64 8.64 0 011.33-.82 6.75 6.75 0 011.51-.53 8 8 0 011.75-.18 6.67 6.67 0 012.72.52 5.28 5.28 0 012 1.46 6.44 6.44 0 011.17 2.24 9.73 9.73 0 01.41 2.88v11.93h-4.51V48.4a4.08 4.08 0 00-.79-2.66 2.92 2.92 0 00-2.39-.94 4.72 4.72 0 00-2.19.53 8.11 8.11 0 00-1.94 1.45v13.55zm-14-2.81a5.45 5.45 0 002.38-.49 7.21 7.21 0 002-1.52v-3.15a25.39 25.39 0 00-3.29.33 8.9 8.9 0 00-2.19.64 2.79 2.79 0 00-1.15.89 2.2 2.2 0 00.39 2.81 3.05 3.05 0 001.83.52zm6.74 2.81a2.06 2.06 0 01-1-.2 1.3 1.3 0 01-.54-.77L85.87 58c-.47.42-.93.79-1.38 1.12a8.29 8.29 0 01-1.41.81 7.29 7.29 0 01-1.56.5 10.33 10.33 0 01-1.84.16 7.29 7.29 0 01-2.19-.32 4.78 4.78 0 01-1.73-1 4.29 4.29 0 01-1.14-1.59 5.77 5.77 0 01-.4-2.21 4.4 4.4 0 01.56-2.09 5.2 5.2 0 011.85-1.86 12 12 0 013.45-1.38 24.33 24.33 0 015.37-.62v-1.1a4.07 4.07 0 00-.8-2.78 2.93 2.93 0 00-2.32-.91 5.46 5.46 0 00-1.81.26 7.54 7.54 0 00-1.27.57l-1 .58a2 2 0 01-1 .26 1.35 1.35 0 01-.81-.25 2.07 2.07 0 01-.53-.58l-.8-1.44a11.12 11.12 0 017.78-3 7.63 7.63 0 012.94.54 6.17 6.17 0 013.55 3.79 8.81 8.81 0 01.46 2.92v11.95zm-18.61-6.2a1 1 0 01.72.31l1.93 2.1a10.57 10.57 0 01-3.95 3.05 13.55 13.55 0 01-5.64 1.06 13.26 13.26 0 01-5.28-1 11.76 11.76 0 01-4-2.79 12.36 12.36 0 01-2.55-4.27 16.11 16.11 0 01-.89-5.43 15.18 15.18 0 01.95-5.45 12.6 12.6 0 012.68-4.26 12.07 12.07 0 014.12-2.79 13.7 13.7 0 015.29-1 12.9 12.9 0 015.13.95 12.09 12.09 0 013.8 2.48l-1.64 2.28a1.52 1.52 0 01-.37.39 1.07 1.07 0 01-.63.16 1.12 1.12 0 01-.57-.16 6.66 6.66 0 01-.64-.38l-.8-.5a7 7 0 00-1.06-.5 8.46 8.46 0 00-1.4-.39 10 10 0 00-1.83-.15 8.11 8.11 0 00-3.24.63 7.07 7.07 0 00-2.53 1.82 8.44 8.44 0 00-1.65 2.93 12.21 12.21 0 00-.58 3.93 11.61 11.61 0 00.63 4A8.88 8.88 0 0056.92 54a7.35 7.35 0 002.54 1.81 7.87 7.87 0 003.14.64 14.24 14.24 0 001.82-.11 7.87 7.87 0 001.5-.35 6.75 6.75 0 001.3-.62 7.59 7.59 0 001.21-.92 1.83 1.83 0 01.38-.26.92.92 0 01.42-.09z" fill="#fff" fill-rule="evenodd"/></svg>