<svg xmlns="http://www.w3.org/2000/svg" width="720" height="490.206" viewBox="0 0 720 490.206"><g transform="translate(0 0)"><g transform="translate(0 0.001)"><path d="M315.127,130.028H310.1V125h-2.011v5.028H303.06v2.011h5.028v5.028H310.1v-5.028h5.028Z" transform="translate(-150.689 -62.153)"/><path d="M61.122,313.028H56.089V308H54.078v5.028H49.05v2.011h5.028v5.028h2.011v-5.028h5.033Z" transform="translate(-24.389 -153.145)"/><path d="M1195.127,464.028H1190.1V459h-2.011v5.028h-5.028v2.011h5.028v5.028h2.011v-5.028h5.028Z" transform="translate(-588.246 -228.226)"/><path d="M1229.089,418.078a7.039,7.039,0,1,1,7.039-7.039A7.039,7.039,0,0,1,1229.089,418.078Zm0-12.067a5.028,5.028,0,1,0,5.028,5.028A5.028,5.028,0,0,0,1229.089,406.011Z" transform="translate(-607.633 -200.879)"/><path d="M.307,716.617H0l.131-2.011a9.761,9.761,0,0,0,10.176-8.5c1.966-10.815,12.358-9.05,12.464-9.05l-.357,1.981c-.347-.06-8.547-1.388-10.126,7.431C10.558,716.115,2.036,716.617.307,716.617Z" transform="translate(0 -346.54)"/><path d="M1315.626,654.838l-2.011-.226,1.006.111-1.006-.111c.035-.347.82-8.6-8.09-9.608-10.815-1.232-10.945-11.483-10.945-11.564h2.011a9.766,9.766,0,0,0,9.16,9.583C1316.687,644.245,1315.641,654.733,1315.626,654.838Z" transform="translate(-643.697 -314.962)"/><path d="M497.655,603.93s-79.64,41.444-70.489,89.464c4.585,24.038,22.122,95.341,22.122,95.341h7.23s-13.575-74.1,52.867-92.626Z" transform="translate(-212.033 -300.289)" fill="#00c6b7"/><path d="M818.36,603.93s79.64,41.444,70.489,89.464c-4.58,24.038-22.122,95.341-22.122,95.341h-7.27s13.575-74.1-52.867-92.626Z" transform="translate(-401.056 -300.289)" fill="#00c6b7"/><path d="M680.848,413.365q-3.092,11.152-6.787,22.5a3.409,3.409,0,0,1-3.238,2.348H619.972v-.226H571.856a3.394,3.394,0,0,1-3.233-2.348q-3.655-11.207-6.682-22.278c-33.052-120.455-12.514-227,13.067-299.076.5-1.378,1.005-2.745,1.473-4.093l.543-1.508q2.323-6.3,4.666-12.228c.241-.618.5-1.227.724-1.835q.759-1.9,1.508-3.746c.422-1.036.845-2.056,1.262-3.072.684-1.639,1.368-3.258,2.041-4.842.287-.669.573-1.327.85-1.986.111-.241.216-.5.317-.719.246-.578.5-1.141.744-1.7,3.8-8.683,7.542-16.531,11.006-23.485l1.056-2.1c.448-.88.885-1.74,1.322-2.584l.654-1.262q2.589-4.993,4.927-9.236c.146-.261.287-.5.432-.779.427-.779.85-1.508,1.257-2.268v-.025l1.091-1.926a.07.07,0,0,1,0-.03c.352-.618.694-1.217,1.031-1.8l.5-.88c.246-.432.5-.855.734-1.267l.714-1.217.91-1.533.4-.674.03-.05c.191-.307.372-.613.548-.91.1-.156.2-.317.287-.468l.4-.654a5.857,5.857,0,0,1,9.98-.116q.634.97,1.317,2.061l.714,1.141c1.423,2.283,3.017,4.892,4.741,7.823.121.211.251.422.372.633.5.85,1.005,1.73,1.508,2.63.131.221.256.452.387.679.392.689.794,1.388,1.2,2.107.271.473.543.955.815,1.443l1.247,2.247c.282.5.563,1.006.845,1.544.146.261.287.5.427.789.432.789.87,1.594,1.3,2.413.146.272.3.543.437.82s.3.558.442.835c.3.558.593,1.121.89,1.694q.679,1.282,1.357,2.6l.9,1.75c.156.317.317.628.5.945l.463.91c4.329,8.587,8.909,18.351,13.494,29.211.206.5.4.96.608,1.438q2.4,5.737,4.781,11.855c.191.5.387,1.006.573,1.508.256.659.5,1.322.759,2.011.206.533.407,1.071.613,1.609q1.207,3.205,2.4,6.536C695.122,185.577,714.866,290.672,680.848,413.365Z" transform="translate(-270.89 -11.22)" fill="#fafbfd"/><path d="M669.84,438.243H617.984v-.226h-47.11a4.389,4.389,0,0,1-4.193-3.042c-2.423-7.431-4.661-14.973-6.672-22.323a482.518,482.518,0,0,1-15.486-168.028,523.434,523.434,0,0,1,28.558-131.657q.734-2.066,1.478-4.1l.538-1.508c1.508-4.022,3.057-8.155,4.676-12.253l.161-.407c.186-.5.377-.96.568-1.438.5-1.267,1.006-2.514,1.508-3.751l1.267-3.072c.684-1.644,1.368-3.268,2.051-4.857l.845-1.981c.1-.211.176-.4.261-.593l.06-.136c.241-.573.5-1.141.744-1.7,3.519-8.044,7.23-15.948,11.026-23.525l1.056-2.107c.453-.885.89-1.745,1.332-2.594.216-.422.432-.845.654-1.262,1.649-3.183,3.308-6.3,4.937-9.256l.161-.292.271-.5q.639-1.161,1.262-2.268v-.04l.955-1.684v-.151l.2-.216.975-1.7.141-.236c.126-.221.246-.432.372-.644s.271-.468.407-.7l1.041-1.785.774-1.3.136-.231c.126-.2.241-.407.362-.6l.03-.05a.745.745,0,0,1,.07-.121c.181-.287.352-.573.5-.86.111-.171.2-.322.282-.468l.412-.669a6.863,6.863,0,0,1,11.679-.075c.422.649.865,1.342,1.322,2.071l.719,1.136c1.574,2.514,3.172,5.169,4.756,7.853l.121.211c.085.141.171.287.251.432q.744,1.267,1.508,2.63c.07.121.151.256.226.392l.292.5c.352.618.714,1.247,1.076,1.89l.815,1.448c.407.739.825,1.508,1.247,2.252l.251.452c.2.362.4.729.6,1.1.141.251.292.5.432.794l.166.3c.372.694.759,1.4,1.136,2.112l.116.216.322.608,1.337,2.514q.679,1.287,1.357,2.614l.9,1.745c.161.327.317.633.5.945l.463.92c4.751,9.427,9.3,19.271,13.525,29.272l.3.7c.1.246.206.5.312.739,1.654,3.962,3.268,7.959,4.8,11.886l.684,1.775c.216.568.432,1.136.654,1.709s.4,1.071.608,1.609c.87,2.313,1.659,4.455,2.408,6.536a497.107,497.107,0,0,1,28.08,130.35,490.522,490.522,0,0,1-16.722,169.134h0c-2.081,7.506-4.369,15.083-6.8,22.549a4.4,4.4,0,0,1-4.193,3.032Zm-49.845-2.011H669.84a2.388,2.388,0,0,0,2.288-1.649c2.423-7.426,4.7-14.988,6.772-22.464h0c34.556-124.648,12.921-230.99-11.3-298.257-.749-2.081-1.533-4.213-2.4-6.536-.206-.538-.407-1.071-.608-1.6l-.654-1.7-.7-1.77c-1.508-3.907-3.127-7.889-4.776-11.83l-.312-.744-.292-.689c-4.208-9.96-8.738-19.764-13.469-29.161l-.458-.91q-.241-.468-.5-.95l-.895-1.735c-.453-.88-.9-1.745-1.352-2.6l-.87-1.659c-.07-.136-.151-.282-.226-.432l-.211-.392-.322-.6-.116-.221c-.377-.709-.759-1.408-1.131-2.1l-.166-.312-.427-.774c-.2-.382-.4-.739-.6-1.1l-.246-.458c-.422-.759-.835-1.508-1.247-2.237-.271-.5-.538-.965-.809-1.438q-.543-.965-1.071-1.885l-.292-.5-.211-.372c-.5-.91-1.036-1.785-1.508-2.635-.08-.146-.166-.282-.246-.417l-.121-.216c-1.574-2.665-3.162-5.289-4.726-7.8l-.714-1.131c-.458-.729-.895-1.413-1.312-2.061a4.837,4.837,0,0,0-4.093-2.237h-.055a4.822,4.822,0,0,0-4.088,2.328l-.4.654-.292.5c-.161.277-.347.583-.538.9l-.065.1-.362.613-.141.231c-.246.417-.5.845-.764,1.292l-1.041,1.775-.4.7c-.126.211-.246.422-.367.633l-.141.241c-.3.5-.6,1.051-.91,1.589h0l-.131.231-1.071,1.9-.05.085c-.417.749-.825,1.478-1.237,2.232l-.266.5-.161.3c-1.624,2.941-3.278,6.033-4.922,9.211-.216.417-.432.835-.644,1.257-.443.85-.88,1.7-1.327,2.584l-1.051,2.1c-3.786,7.542-7.481,15.435-10.986,23.434q-.377.84-.739,1.689l-.06.146-.261.593-.89,1.911c-.674,1.584-1.358,3.2-2.011,4.837-.422,1.006-.84,2.011-1.262,3.062-.5,1.232-1.005,2.474-1.508,3.741-.191.473-.377.95-.563,1.428l-.161.407c-1.614,4.083-3.178,8.19-4.656,12.2l-.543,1.508c-.5,1.347-1.005,2.71-1.468,4.088-24.43,68.84-46.522,176.5-13.072,298.478,2.011,7.336,4.253,14.817,6.672,22.233a2.378,2.378,0,0,0,2.278,1.654h49.121Z" transform="translate(-269.907 -10.241)"/><path d="M699.382,114.5c-13.922-.92-39.423-2.514-49.966-2.514-9.306,0-30.84,1.363-44.536,2.3.5-1.378,1.006-2.745,1.473-4.093l.543-1.508q2.323-6.3,4.666-12.228c.241-.618.5-1.227.724-1.835q.759-1.9,1.508-3.746c.422-1.036.845-2.056,1.262-3.072.684-1.639,1.368-3.258,2.041-4.842.287-.669.573-1.327.85-1.986.111-.241.216-.5.317-.719.246-.578.5-1.141.744-1.7,3.8-8.683,7.542-16.531,11.006-23.485l1.056-2.1c.448-.88.885-1.74,1.322-2.584l.654-1.262q2.589-4.993,4.927-9.236c.146-.261.287-.5.432-.779.422-.779.845-1.508,1.257-2.268v-.025c.367-.659.729-1.3,1.091-1.926a.07.07,0,0,1,0-.03c.352-.618.694-1.217,1.031-1.8l.5-.88c.246-.432.5-.855.734-1.267l.714-1.217.91-1.533.4-.674.03-.05c.191-.307.372-.613.548-.91.1-.156.2-.317.287-.468l.4-.654a5.857,5.857,0,0,1,9.98-.111q.634.97,1.317,2.061l.714,1.141c1.423,2.283,3.017,4.892,4.741,7.823.121.211.251.422.372.633.5.85,1.006,1.73,1.508,2.63.131.221.256.452.387.679.392.689.794,1.388,1.2,2.107l.815,1.443,1.247,2.247c.282.5.563,1.006.845,1.544.146.261.287.5.427.789q.649,1.187,1.3,2.413c.146.272.3.543.437.82s.3.558.443.835c.3.558.593,1.121.89,1.694q.679,1.282,1.357,2.6l.9,1.75c.156.317.317.628.5.945l.463.91c4.329,8.587,8.909,18.351,13.495,29.211.206.5.4.96.608,1.438q2.4,5.737,4.781,11.855c.191.5.387,1.006.573,1.508.256.659.5,1.322.759,2.011.206.533.407,1.071.613,1.609C697.783,110.108,698.587,112.275,699.382,114.5Z" transform="translate(-300.761 -11.217)" fill="#00c6b7"/><path d="M699.453,114.671l-1.508-.1c-14.188-.94-39.533-2.514-49.9-2.514-8.939,0-29.116,1.247-44.466,2.293l-1.508.106.5-1.443q.734-2.066,1.478-4.1l.538-1.508c1.508-4.022,3.057-8.155,4.676-12.253l.161-.407c.186-.5.377-.96.568-1.438.5-1.267,1.005-2.514,1.508-3.751l1.267-3.072c.684-1.644,1.368-3.268,2.051-4.857l.845-1.981c.1-.211.176-.4.261-.593l.06-.136c.241-.573.5-1.141.744-1.7,3.519-8.044,7.23-15.948,11.026-23.525l1.056-2.107c.453-.885.89-1.745,1.332-2.594.216-.422.432-.845.654-1.262,1.649-3.183,3.308-6.3,4.937-9.256l.161-.292.271-.5c.417-.764.84-1.508,1.252-2.247l.03-.06c.322-.573.639-1.136.955-1.689v-.146l.2-.216.975-1.7.141-.236c.126-.221.246-.432.372-.644s.271-.468.407-.7l1.041-1.785.774-1.3.136-.231c.126-.2.241-.407.362-.6l.025-.05c0-.04.045-.08.075-.121.181-.292.352-.573.5-.86.111-.171.2-.322.281-.468l.412-.669a6.863,6.863,0,0,1,11.624-.075c.422.649.865,1.342,1.322,2.071l.719,1.136c1.574,2.514,3.173,5.169,4.756,7.853l.121.211c.086.141.171.287.251.432q.744,1.267,1.508,2.63c.07.121.151.256.226.392l.292.5c.352.618.714,1.247,1.076,1.89l.809,1.443c.412.744.83,1.508,1.252,2.257l.251.452c.2.362.4.729.6,1.1.141.246.292.5.432.794.427.779.86,1.584,1.3,2.4l.121.221.322.608,1.337,2.514q.679,1.287,1.357,2.614l.9,1.745c.161.327.317.633.5.945l.463.92c4.751,9.427,9.3,19.271,13.525,29.272l.3.7c.1.246.206.5.312.739,1.654,3.962,3.268,7.959,4.8,11.886l.684,1.775c.216.568.432,1.136.654,1.709s.4,1.071.608,1.609c.87,2.313,1.659,4.455,2.408,6.536Zm-51.434-4.626c10.056,0,34.058,1.468,48.5,2.413-.593-1.624-1.212-3.293-1.875-5.068-.206-.538-.407-1.071-.608-1.6l-.654-1.7-.679-1.79c-1.508-3.907-3.127-7.889-4.776-11.83l-.312-.744-.292-.689c-4.208-9.96-8.738-19.764-13.469-29.161l-.457-.91q-.241-.468-.5-.95l-.9-1.735c-.452-.88-.9-1.745-1.352-2.6l-.87-1.659c-.07-.136-.151-.282-.226-.432l-.211-.392-.322-.6-.116-.221-1.3-2.408-.427-.774c-.2-.382-.4-.739-.6-1.1l-.246-.458c-.422-.759-.835-1.508-1.247-2.237l-.81-1.433-1.071-1.88-.292-.5L662.7,39.2c-.5-.91-1.036-1.785-1.508-2.635-.08-.146-.166-.282-.246-.422l-.121-.211c-1.574-2.665-3.162-5.289-4.726-7.8l-.714-1.131c-.457-.729-.895-1.413-1.312-2.061a4.837,4.837,0,0,0-4.092-2.237h-.055a4.822,4.822,0,0,0-4.088,2.328l-.4.654-.292.5c-.161.277-.347.583-.538.9l-.065.1-.362.613-.141.231c-.246.417-.5.845-.764,1.292L642.232,31.1l-.4.7c-.126.211-.246.422-.367.633l-.141.241c-.3.5-.6,1.051-.91,1.589h0l-.136.231c-.352.618-.709,1.247-1.066,1.89l-.04.075c-.412.724-.825,1.468-1.247,2.237l-.266.5-.161.3c-1.624,2.941-3.278,6.033-4.922,9.211-.216.417-.432.835-.644,1.257-.442.85-.88,1.7-1.327,2.584l-1.051,2.1c-3.786,7.542-7.481,15.435-10.986,23.434q-.377.84-.739,1.689l-.06.146-.261.593-.89,1.911c-.674,1.584-1.357,3.2-2.011,4.837-.422,1.006-.84,2.011-1.262,3.062-.5,1.232-1.006,2.474-1.508,3.741-.191.473-.377.95-.563,1.428l-.161.407c-1.614,4.083-3.178,8.19-4.656,12.2l-.543,1.508c-.317.875-.638,1.755-.955,2.645C620.135,111.211,639.316,110.045,648.019,110.045Z" transform="translate(-299.364 -10.285)"/><circle cx="2.031" cy="2.031" r="2.031" transform="translate(349.334 105.286)"/><circle cx="2.031" cy="2.031" r="2.031" transform="translate(363.793 105.286)"/><circle cx="2.031" cy="2.031" r="2.031" transform="translate(378.253 106.186)"/><circle cx="2.031" cy="2.031" r="2.031" transform="translate(392.713 107.543)"/><circle cx="2.031" cy="2.031" r="2.031" transform="translate(335.326 105.286)"/><circle cx="2.031" cy="2.031" r="2.031" transform="translate(320.866 106.186)"/><circle cx="2.031" cy="2.031" r="2.031" transform="translate(306.412 107.543)"/><path d="M602.24,841.19v3.881a9.668,9.668,0,0,0,9.673,9.673h75.995a9.668,9.668,0,0,0,9.673-9.673V841.19Z" transform="translate(-299.448 -418.26)" fill="#fafbfd"/><path d="M686.914,854.756H610.919a10.694,10.694,0,0,1-10.679-10.679V839.19h97.352v4.887a10.694,10.694,0,0,1-10.679,10.679Zm-84.662-13.575v2.876a8.673,8.673,0,0,0,8.668,8.668h75.995a8.673,8.673,0,0,0,8.668-8.668v-2.876Z" transform="translate(-298.454 -417.266)"/><path d="M697.8,799.85q-3.092,11.152-6.788,22.5a3.409,3.409,0,0,1-3.238,2.348H636.92v-.226H588.8a3.393,3.393,0,0,1-3.233-2.348q-3.655-11.207-6.682-22.278Z" transform="translate(-287.838 -397.705)" fill="#00c6b7"/><path d="M686.483,824.713H634.627v-.226h-47.11a4.389,4.389,0,0,1-4.193-3.042c-2.423-7.431-4.661-14.973-6.672-22.323l-.352-1.272H697.821l-.352,1.272c-2.082,7.506-4.369,15.083-6.8,22.549A4.4,4.4,0,0,1,686.483,824.713ZM636.638,822.7h49.845a2.388,2.388,0,0,0,2.288-1.649c2.283-7.009,4.44-14.128,6.415-21.187H578.919c1.916,6.928,4.022,13.972,6.32,20.961a2.378,2.378,0,0,0,2.278,1.654h49.121Z" transform="translate(-286.55 -396.711)"/><rect width="5.42" height="5.42" rx="2.71" transform="translate(334.472 394.462)"/><path d="M692.371,794.99H687.4l-4.761-171.024a7.25,7.25,0,0,1,7.25-7.456h0a7.25,7.25,0,0,1,7.245,7.456Z" transform="translate(-339.422 -306.544)" fill="#fafbfd"/><path d="M692.352,795.029h-6.923l-.03-.975-4.761-171.029a8.256,8.256,0,1,1,16.506,0Zm-4.967-2.011H690.4l4.736-170.049a6.244,6.244,0,1,0-12.484,0Z" transform="translate(-338.428 -305.577)"/><rect width="5.42" height="5.42" rx="2.71" transform="translate(320.012 394.462)"/><rect width="5.42" height="5.42" rx="2.71" transform="translate(305.557 394.462)"/><rect width="5.42" height="5.42" rx="2.71" transform="translate(291.55 394.462)"/><rect width="5.42" height="5.42" rx="2.71" transform="translate(404.458 394.462)"/><rect width="5.42" height="5.42" rx="2.71" transform="translate(389.998 394.462)"/><rect width="5.42" height="5.42" rx="2.71" transform="translate(375.538 394.462)"/><rect width="5.42" height="5.42" rx="2.71" transform="translate(361.531 394.462)"/><path d="M652.593,431.437a45.919,45.919,0,1,1,45.924-45.92A45.917,45.917,0,0,1,652.593,431.437Zm0-81.781a35.863,35.863,0,1,0,35.868,35.865,35.862,35.862,0,0,0-35.868-35.865Z" transform="translate(-301.656 -168.858)" fill="#00c6b7"/><path d="M415.612,214.155c0-15.048-12.66-27.336-27.567-28.125V186h-1.428v.04c-14.9.789-27.567,13.072-27.567,28.125a27.446,27.446,0,0,0,7.823,19.03h0c9.2,10.593,9.553,25.667,9.553,25.667h21.815s.372-15.083,9.553-25.667h0A27.447,27.447,0,0,0,415.612,214.155Z" transform="translate(-178.528 -92.484)" fill="#fafbfd"/><path d="M398.212,258.848H374.461l-.025-.98c0-.151-.478-14.827-9.3-25.013a28.442,28.442,0,0,1-8.085-19.7c0-14.922,12.283-27.768,27.567-29.06v-.07l1.006-.04h2.433v.111c15.289,1.292,27.567,14.138,27.567,29.06a28.442,28.442,0,0,1-8.085,19.709c-8.839,10.2-9.286,24.857-9.286,25ZM376.4,256.837h19.88c.251-3.58,1.689-16.018,9.759-25.32l.035-.035a26.456,26.456,0,0,0,7.542-18.336c0-14.178-11.936-26.345-26.612-27.12l-.563-.025h-.4l-.357.035c-14.676.774-26.617,12.941-26.617,27.12a26.441,26.441,0,0,0,7.542,18.336l.03.035c8.08,9.276,9.5,21.73,9.764,25.31Z" transform="translate(-177.534 -91.48)"/><path d="M415.277,327.54H395v16.023h2.207v2.348a4.485,4.485,0,0,0,4.485,4.485h7.114a4.485,4.485,0,0,0,4.485-4.485v-2.348h1.976Z" transform="translate(-196.404 -162.861)" fill="#fafbfd"/><path d="M407.822,350.407h-7.114a5.5,5.5,0,0,1-5.49-5.49v-1.342H393V325.54h22.278v18.035h-1.966v1.342A5.5,5.5,0,0,1,407.822,350.407Zm-12.811-8.844h2.207v3.354A3.484,3.484,0,0,0,400.7,348.4h7.114a3.484,3.484,0,0,0,3.479-3.479v-3.354h1.976V327.551H395.011Z" transform="translate(-195.409 -161.867)"/><rect width="24.229" height="3.741" rx="1.87" transform="translate(196.837 164.02)" fill="#fafbfd"/><path d="M412.879,329.982h-20.5a2.876,2.876,0,1,1,0-5.752h20.5a2.876,2.876,0,1,1,0,5.752Zm-20.488-3.741a.865.865,0,1,0,0,1.73h20.488a.865.865,0,1,0,0-1.73Z" transform="translate(-193.669 -161.215)"/><rect width="24.229" height="3.741" rx="1.87" transform="translate(196.837 170.938)" fill="#fafbfd"/><path d="M412.993,343.747h-20.5a2.881,2.881,0,0,1,0-5.757h20.5a2.881,2.881,0,0,1,0,5.757Zm-20.5-3.741a.87.87,0,0,0,0,1.735h20.5a.87.87,0,0,0,0-1.735Z" transform="translate(-193.783 -168.057)"/><rect width="24.229" height="3.741" rx="1.87" transform="translate(196.837 177.786)" fill="#fafbfd"/><path d="M412.879,357.362h-20.5a2.876,2.876,0,1,1,0-5.752h20.5a2.876,2.876,0,1,1,0,5.752Zm-20.488-3.741a.865.865,0,0,0,0,1.73h20.488a.865.865,0,1,0,0-1.73Z" transform="translate(-193.669 -174.829)"/><path d="M1115.492,116.791a26.8,26.8,0,0,0-.96-7.119l4.872-5.531-4.6-7.793-6.953,1.78a26.646,26.646,0,0,0-12.388-7.154L1093.194,84h-9.05l-2.011,6.963a26.646,26.646,0,0,0-12.353,7.17l-7.1-1.815-4.6,7.793,5.028,5.7a26.818,26.818,0,0,0,.075,14.2l-4.887,5.078,4.525,7.848,7.039-1.468a26.647,26.647,0,0,0,12.147,7.074l2.353,7.1,9.05-.035,2.011-6.984a26.648,26.648,0,0,0,12.394-7.139l7.039,1.468,4.525-7.848-4.892-5.078A26.651,26.651,0,0,0,1115.492,116.791Zm-26.743,14.762a14.842,14.842,0,1,1,14.837-14.84,14.842,14.842,0,0,1-14.837,14.84Z" transform="translate(-526.103 -41.767)" fill="#fafbfd"/><path d="M1082.383,149.674l-2.413-7.28a27.693,27.693,0,0,1-11.69-6.8l-7.22,1.508-5.239-9.135,5.028-5.214a27.767,27.767,0,0,1-.065-13.65l-5.143-5.852,5.349-9.05,7.275,1.86a27.652,27.652,0,0,1,11.855-6.878l2.057-7.18h10.533l2.328,7.134A27.623,27.623,0,0,1,1106.943,96l7.134-1.82,5.349,9.05-5.028,5.691a27.849,27.849,0,0,1,0,13.811l5.028,5.214-5.244,9.13-7.23-1.508a27.653,27.653,0,0,1-11.981,6.888l-2.056,7.16ZM1068.938,133.4l.387.392a25.677,25.677,0,0,0,11.69,6.808l.5.141,2.293,6.918,7.542-.025,1.956-6.813.558-.146a25.642,25.642,0,0,0,12.041-6.888l.382-.392,6.868,1.428,3.771-6.536-4.766-4.952.156-.553a25.867,25.867,0,0,0,.03-13.821l-.146-.5,4.756-5.4-3.846-6.536-6.782,1.735-.407-.412A25.641,25.641,0,0,0,1094,90.954l-.533-.136-2.217-6.808h-7.542l-1.971,6.787-.553.146a25.591,25.591,0,0,0-11.891,6.9l-.4.412-6.933-1.77-3.846,6.536,4.892,5.561-.141.5a25.792,25.792,0,0,0,.075,13.67l.156.558-4.761,4.942,3.766,6.536Zm18.6-1.835a15.847,15.847,0,1,1,15.843-15.846,15.847,15.847,0,0,1-15.843,15.846Zm0-29.664a15.553,15.553,0,1,0,0-.015Z" transform="translate(-524.89 -40.773)"/><path d="M1185.783,225.006a17.025,17.025,0,0,0-.618-4.555l3.117-3.519-2.936-4.983-4.45,1.136a17.024,17.024,0,0,0-7.919-4.575l-1.453-4.44h-5.782l-1.3,4.45a17.093,17.093,0,0,0-7.9,4.585l-4.525-1.156-2.941,4.983,3.208,3.645a17.091,17.091,0,0,0,.05,9.08l-3.122,3.248,2.881,5.028,4.525-.935a17.028,17.028,0,0,0,7.768,4.525l1.508,4.525h5.782l1.282-4.465a17.1,17.1,0,0,0,7.969-4.575l4.525.935,2.881-5.028-3.127-3.253A16.9,16.9,0,0,0,1185.783,225.006Zm-17.094,9.437a9.49,9.49,0,1,0-.005,0Z" transform="translate(-571.35 -101.469)" fill="#fafbfd"/><path d="M1163.876,245.988l-1.569-4.721a18.015,18.015,0,0,1-7.3-4.253l-4.706.975-3.625-6.3,3.258-3.384a18.051,18.051,0,0,1-.035-8.547l-3.338-3.8,3.69-6.26,4.721,1.2a18.1,18.1,0,0,1,7.391-4.289l1.352-4.636h7.265l1.508,4.621a17.974,17.974,0,0,1,7.431,4.284l4.63-1.182,3.69,6.26-3.243,3.69a18.339,18.339,0,0,1,.5,4.289,17.962,17.962,0,0,1-.5,4.339l3.258,3.384-3.62,6.3-4.691-.975a17.969,17.969,0,0,1-7.481,4.3l-1.332,4.646Zm-8.215-11.162.387.387a16.039,16.039,0,0,0,7.305,4.258l.5.141,1.443,4.359h4.3l1.237-4.294.558-.141a16.038,16.038,0,0,0,7.5-4.309l.382-.387,4.329.9,2.142-3.731-3.017-3.117.156-.558a16.149,16.149,0,0,0,0-8.638l-.146-.5,3.017-3.409-2.187-3.7-4.279,1.091-.4-.412a16.088,16.088,0,0,0-7.456-4.3l-.533-.136-1.4-4.274h-4.3l-1.247,4.279-.553.141a16.024,16.024,0,0,0-7.431,4.314l-.407.412-4.369-1.111-2.187,3.7,3.082,3.519-.141.5a16.159,16.159,0,0,0,.045,8.547l.156.553-3.017,3.117,2.142,3.731Zm11.77-.417a10.493,10.493,0,1,1,10.493-10.493,10.493,10.493,0,0,1-10.493,10.493Zm0-18.975a8.482,8.482,0,1,0,8.482,8.482,8.482,8.482,0,0,0-8.482-8.482Z" transform="translate(-570.097 -100.43)"/><path d="M1115.461,819.1h4.525L1075.707,665h-4.968l8.789,30.277H1036.49L1027.8,665h-4.972l44.747,154.081h4.525l-6.883-23.947h43.309Zm-17.6-60.549h-43.2L1047,731.9h43.123Zm-16.923-58.287,7.738,26.647h-43.088l-7.657-26.647Zm-17.17,89.927-7.672-26.647h43.239l7.738,26.647Z" transform="translate(-508.576 -330.654)"/><path d="M734.375,819.1H729.85L774.134,665h4.973l-8.789,30.277h43.012l8.7-30.277H827L782.254,819.081h-4.525l6.883-23.947H741.323Zm17.6-60.549h43.2l7.662-26.647H759.69ZM768.9,700.265l-7.743,26.647h43.108l7.662-26.647Zm17.165,89.927,7.662-26.647H750.509l-7.743,26.647Z" transform="translate(-362.899 -330.654)"/><rect width="183.9" height="8.135" transform="translate(395.423 330.303)" fill="#fafbfd"/><path d="M970.391,665.121H784.48V655H970.391Zm-183.9-2.011H968.38v-6.1H786.491Z" transform="translate(-390.062 -325.682)"/><path d="M946.44,610l.292,15.068h15.712l-.3-15.068Z" transform="translate(-470.593 -303.307)" fill="#fafbfd"/><path d="M962.455,625.094H944.732L944.4,608h17.723Zm-15.742-2.011h13.7l-.256-13.072H946.451Z" transform="translate(-469.579 -302.313)"/><path d="M941.143,630.17s-8.547,6.476-15.712,0l-21.272,11.061a1.006,1.006,0,0,0,.463,1.906h37.593a1.8,1.8,0,0,0,1.745-2.268Z" transform="translate(-449.293 -313.336)"/><path d="M1036.44,610l3.308,15.068h15.712L1052.147,610Z" transform="translate(-515.343 -303.307)" fill="#fafbfd"/><path d="M1055.494,625.094h-17.768L1034,608h17.768Zm-16.149-2.011h13.65l-2.866-13.072h-13.65Z" transform="translate(-514.13 -302.313)"/><path d="M1037.143,630.17s-8.547,6.476-15.712,0l-21.273,11.061a1.006,1.006,0,0,0,.463,1.906h37.593a1.8,1.8,0,0,0,1.745-2.268Z" transform="translate(-497.026 -313.336)"/><path d="M933.543,256.32l-4.083,74.335,2.323,107.006H955.6l4.9-120.078,4.9-58Z" transform="translate(-462.15 -127.449)" fill="#fafbfd"/><path d="M955.59,437.553H929.823v-1.006L927.5,329.5v-.035l4.143-75.386,33.887,3.474-4.982,58.981Zm-23.816-2.011h21.866L958.5,316.429l4.822-57.055-29.83-3.062-4.022,73.244Z" transform="translate(-461.176 -126.335)"/><path d="M955.45,256.32l8.985,71.882,26.707,109.459h23.942L997.93,324.934l-3.268-68.614Z" transform="translate(-475.073 -127.449)" fill="#fafbfd"/><path d="M1015.127,437.672h-25.9l-.191-.769L962.32,327.388v-.055l-9.13-73.013h41.3l3.313,69.519ZM990.8,435.661h21.981L995.8,324.045v-.05l-3.223-67.659h-37.1l8.834,70.7Z" transform="translate(-473.949 -126.454)"/><path d="M766.7,107.122l-9.05-6.033L749.6,89.022,740.05,85l12.529,25.813,14.118,7.873Z" transform="translate(-367.971 -42.264)" fill="#fafbfd"/><path d="M765.659,118.461,749.771,109.6,735.94,81.1l12.288,5.174,8.1,12.152,9.326,6.219ZM751.3,108.149l12.348,6.883v-9.311l-8.768-5.847-7.989-11.981-6.813-2.871Z" transform="translate(-365.927 -40.325)"/><path d="M868.124,46.256c4.022-5.49-3.1-20.061-4.022-26.763C861.322-1.543,884.61.151,884.61.151c18.668-1.86,22.836,14,24.636,21.313,3.595,14.379,9.985,15.978,15.179,19.975s12.786,17.175,4.394,24.37C925,69.082,878.275,77.171,870.5,74.6,861.618,71.651,864.077,51.721,868.124,46.256Z" transform="translate(-429.538 -0.001)"/><path d="M910.179,62.016,902.089,44.1s6.34-12.117-2.026-10.981c0,0-16.471,2.313-19.648-9.246,0,0-10.986,31.5,9.824,28.9l.593,13.293Z" transform="translate(-436.323 -11.869)" fill="#fafbfd"/><path d="M888.865,63.943l-.583-13.414c-4.384.322-7.708-.875-9.88-3.565-6.405-7.919-.2-26.009.065-26.773l1.061-3.052.855,3.112c2.911,10.588,18.392,8.547,18.542,8.547,2.222-.307,3.806.191,4.711,1.483,2.011,2.9-.568,8.753-1.433,10.518l8.411,18.6ZM890.2,48.287l.573,13.2,16.979-3.55L899.971,40.7l.226-.437c1.327-2.514,2.981-7.18,1.795-8.869-.442-.623-1.378-.845-2.785-.649-.156,0-14.656,1.936-19.658-7.22-1.448,5.244-3.937,16.778.417,22.157,1.885,2.328,4.962,3.243,9.151,2.72Z" transform="translate(-435.326 -8.523)"/><path d="M844.5,127.147l-23.379,16.2a8.361,8.361,0,0,1-8.21.744L785.05,131.466l2.011-20.111,26.728,12.5L844.378,99.58Z" transform="translate(-390.346 -49.514)" fill="#00c6b7"/><path d="M783.751,219.274l-7.657-2.725a15.736,15.736,0,0,0,4.022,6.244H764.068s-1.78,1.337,0,3.57a2.477,2.477,0,0,0,0,3.57s-.443,2.232.895,3.122a2.441,2.441,0,0,0,2.232,2.232l9.367,1.337,11.373-1.006,3.348-2.1,28.191-7.954L811.429,214l-22.821,7.9Z" transform="translate(-379.52 -106.406)" fill="#fafbfd"/><path d="M775.535,236.442l-9.553-1.363a3.518,3.518,0,0,1-2.976-2.69A4.151,4.151,0,0,1,762,229.061a3.208,3.208,0,0,1-.563-3.092,3.65,3.65,0,0,1,.382-.82,3.519,3.519,0,0,1-.533-2.283,3.228,3.228,0,0,1,1.166-2.071l.271-.2H776.8a18.6,18.6,0,0,1-2.634-4.922l-.654-1.956,9.739,3.484,4.45,2.418,23.128-8.009,9.286,13.349L790.7,233.244l-3.429,2.152Zm-9.171-3.338,9.221,1.327,11.016-1.006,3.268-2.051.141-.04,26.833-7.542-6.8-9.779-22.524,7.8-5.159-2.805-5.395-1.921a12.193,12.193,0,0,0,2.811,3.751l2.132,1.775H763.478c-.236.327-.412.955.377,1.936l.563.7-.638.633a1.413,1.413,0,0,0,0,2.147l.382.377-.106.528c-.08.407-.161,1.674.463,2.092l.448.3v.538c.005.151.111.975,1.4,1.247Z" transform="translate(-378.518 -105.218)"/><path d="M944.358,170.688,927,127.087,914.85,94.547a19.578,19.578,0,0,0-8.658-10.2,36.165,36.165,0,0,0-16.225-4.7C885.07,87.222,874.6,89.1,874.6,89.1c-2.011,6.033-13.515,33.686-2.449,42.51,1.332,1.066,3.6,4.414,4.8,5.953L846.05,148.2l7.542,20.111L886.247,156.9a59.116,59.116,0,0,1,2.881,18.749s16.752,4.228,29.322-2.811C924.126,169.692,944.358,170.688,944.358,170.688Z" transform="translate(-420.677 -39.604)" fill="#00c6b7"/><path d="M920.234,191.14l-.774-1.855,19.437-8.1a8.044,8.044,0,0,0,4.912-8.14l-2.428-27.079,2.011-.181,2.423,27.085a10.01,10.01,0,0,1-6.144,10.171Z" transform="translate(-457.178 -72.486)"/><path d="M161.2,757.5,135.56,865.6H142.1l29.161-108.1Z" transform="translate(-67.404 -376.648)" fill="#fafbfd"/><path d="M141.592,865.608H133L159.144,755.5h12.167l-.342,1.267Zm-6.033-2.011h4.48l28.618-106.086h-7.944Z" transform="translate(-66.131 -375.653)"/><path d="M262.616,757.5l25.642,108.1h-6.536L252.56,757.5Z" transform="translate(-125.579 -376.648)" fill="#fafbfd"/><path d="M288.221,865.608h-8.587l-.2-.744L249.94,755.5h12.167l.181.774Zm-7.039-2.011h4.485L260.528,757.511h-7.944Z" transform="translate(-124.276 -375.653)"/><path d="M191.12,384.314s-27.5-3.379-15.435-22.675c0,0-5.787-15.918,11.564-15.435,0,0,2.413-12.067,11.564-4.339,0,0,13.022-6.275,14.47,4.822,0,0,1.448,6.27-6.27,10.131Z" transform="translate(-85.833 -168.699)"/><path d="M195.964,422.066l6.27-26.647s-11.564-7.235-3.374-12.067c0,0,2.891,0,4.339,1.931,0,0-1.926-11.091,5.792-11.564S220.1,368.4,220.1,368.4s17.366,27.5,8.2,32.323-9.643,2.408-9.643,2.408l2.408,19.9Z" transform="translate(-97.42 -183.178)" fill="#fafbfd"/><path d="M220.962,422.312l-27.482-1.056,6.39-27.15c-1.735-1.192-6.229-4.651-6.179-8.467,0-1.936,1.182-3.59,3.429-4.912l.236-.141h.277a8.136,8.136,0,0,1,3.132.729c-.075-2.247.176-5.611,1.986-7.9a6.536,6.536,0,0,1,4.947-2.469c7.1-.442,10.206-4.7,10.337-4.882l.87-1.222.8,1.262c.533.83,13.127,20.941,10.734,29.991a5.747,5.747,0,0,1-2.891,3.776c-4.108,2.157-7.039,3.2-8.909,3.122Zm-24.968-2.971,22.69.885L216.412,401.5l1.986-.317a.463.463,0,0,0-.146-.292s1.413.835,8.336-2.811a3.746,3.746,0,0,0,1.885-2.514c1.89-7.039-7.129-22.836-9.764-27.23a16.553,16.553,0,0,1-10.885,4.62,4.525,4.525,0,0,0-3.489,1.7c-2.328,2.941-1.383,8.643-1.373,8.7l.709,4.113-2.514-3.338a4.688,4.688,0,0,0-3.278-1.508c-1.458.915-2.172,1.916-2.187,3.052-.04,2.836,4.2,6.114,5.837,7.134l.613.382Z" transform="translate(-96.203 -181.408)"/><path d="M291.166,924.52l-3.841,16.536H270.09l3.841-16.536Z" transform="translate(-134.295 -459.694)" fill="#fafbfd"/><path d="M286.892,941.067H267.57l4.309-18.547h19.3Zm-16.773-2.011h15.174l3.379-14.525h-15.2Z" transform="translate(-133.042 -458.7)"/><path d="M266.994,946.65s9.367,7.109,17.235,0l23.349,12.162a1.111,1.111,0,0,1-.5,2.092H265.847a2.011,2.011,0,0,1-1.921-2.514Z" transform="translate(-131.199 -470.698)"/><path d="M102.329,581.307c-3.63,1.212,1.564,10.015,5.028,18.1,4.525,10.558,8.547,22.122,9.553,44.747.548,12.283,6.536,31.172,39.217,29.664H227.52v-8.547s-52.289,5.531-81.952-1.508c-5.531-1.317-18.04-4.022-20.111-22.122-1.257-11.026-4.957-30.5-10.056-43.239C113.39,593.374,108.362,579.3,102.329,581.307Z" transform="translate(-50.266 -288.943)" fill="#00c6b7"/><path d="M436.5,840.93l6.606,17.406L426.376,862.5l-6.606-15.39Z" transform="translate(-208.72 -418.131)" fill="#fafbfd"/><path d="M424.466,862.408l-7.366-17.15,18.653-6.888,7.366,19.422Zm-4.686-16,5.857,13.635,14.8-3.685-5.852-15.41Z" transform="translate(-207.392 -416.858)"/><path d="M428.236,869.763s10.81,4.631,16.727-4.163l25.591,6.159a1.106,1.106,0,0,1,0,2.152l-39.991,9.99a1.981,1.981,0,0,1-2.464-1.951Z" transform="translate(-212.861 -430.398)"/><path d="M184.429,458.508S178.4,471.078,161.3,457a131.279,131.279,0,0,0-21.408,10.186,17.844,17.844,0,0,0-8.235,12.826l-7.451,56.075a7.421,7.421,0,0,0,7.356,8.4h14.656l-2.011,12.067h58.825l1.006-45.25,4.022,24.636,18.6-4.525-17.2-57.97a13.319,13.319,0,0,0-8.145-8.693Z" transform="translate(-61.726 -227.232)" fill="#fafbfd"/><path d="M203.017,556.426H142.025l2.011-12.067H130.567a8.432,8.432,0,0,1-8.351-9.553l7.451-56.06a18.764,18.764,0,0,1,8.7-13.545,132.291,132.291,0,0,1,21.619-10.277l.538-.2.442.367c6.149,5.063,11.448,7.165,15.742,6.229a8.839,8.839,0,0,0,5.837-4.384l.4-.82.855.312,16.878,6.239a14.379,14.379,0,0,1,8.758,9.352l17.512,58.986-20.684,5.028-2.443-14.953ZM144.4,554.415h56.658l.98-44.244,2.011-.141,3.846,23.565,16.521-4.022L207.5,472.6a12.358,12.358,0,0,0-7.542-8.044l-16.089-5.943a10.93,10.93,0,0,1-6.717,4.671c-4.822,1.061-10.558-1.046-17.039-6.275a130.258,130.258,0,0,0-20.694,9.895,16.778,16.778,0,0,0-7.753,12.1l-7.451,56.09a6.415,6.415,0,0,0,6.355,7.26h15.848Z" transform="translate(-60.731 -226.103)"/><path d="M230.243,813.711l30.167.5S292.839,711.4,292.839,710.39,285.8,693.8,264.181,699.329s-67.111,23.8-67.111,23.8,40.725,8.793,56.311,5.113Z" transform="translate(-97.988 -347.135)" fill="#2f2e40"/><path d="M161.257,643.5s-16.592,32.851,0,47.095,61.841-1.845,82.958-11.9c0,0,10.558-6.033,17.6-.5s2.514,22.625,2.514,22.625L280.164,760.4l27.653-13.575s-14.1-53.395-26.672-89.258A17.778,17.778,0,0,0,263.7,645.692l-64.737,2.333Z" transform="translate(-76.515 -319.964)" fill="#2f2e40"/><path d="M206.55,591.019l1.006,9.05,15.586,1.005a2.511,2.511,0,0,0,3.017-2.011s3.017-1.006,2.514-3.017c0,0,3.017-.5,2.011-2.514l4.022,3.519s2.011,3.519,5.028,2.514l-4.525-7.039-7.039-5.028s-10.056,1.508-13.575,2.514A34.8,34.8,0,0,1,206.55,591.019Z" transform="translate(-102.702 -292.12)" fill="#fafbfd"/><path d="M222.556,601.087a3.735,3.735,0,0,1-.644-.055l-16.37-1.056L204.32,588.97h1.121a33.215,33.215,0,0,0,7.768-.965c3.545-1.005,13.293-2.479,13.706-2.544l.4-.06,7.542,5.38,5.329,8.286-1.227.412c-2.906.965-5.219-1.337-6.129-2.815L230.4,594.53a3.58,3.58,0,0,1-1.77,1.232c-.161,1.508-1.559,2.514-2.725,3.017a3.384,3.384,0,0,1-3.348,2.308Zm-15.2-3.017,14.9.975a1.453,1.453,0,0,0,1.83-1.222l.116-.573.553-.186s2.122-.769,1.855-1.815l-.261-1.061,1.076-.176a2.28,2.28,0,0,0,1.352-.664.492.492,0,0,0-.075-.412l-2.288-4.57,7.994,7,.085.146a4.963,4.963,0,0,0,2.353,2.071l-3.464-5.395-6.536-4.676c-1.9.292-10.02,1.564-13.072,2.423a33.191,33.191,0,0,1-7.2,1.005Z" transform="translate(-101.593 -291.075)"/><path d="M350.592,549.78H284.416a3.9,3.9,0,0,0-3.66,2.564L262.43,602.431h74.476l17.346-47.407a3.9,3.9,0,0,0-3.66-5.244Z" transform="translate(-130.487 -273.364)"/><rect width="45.662" height="5.138" transform="translate(97.272 323.928)"/><path d="M359.1,549.78h-66.17a3.907,3.907,0,0,0-3.665,2.564L270.94,602.431h74.481l17.346-47.407a3.907,3.907,0,0,0-3.665-5.244Z" transform="translate(-134.718 -273.364)" fill="#00c6b7"/><ellipse cx="6.063" cy="4.61" rx="6.063" ry="4.61" transform="translate(178.356 306.309) rotate(-64.36)"/><path d="M171.579,529l-2.011,32.68h20.111v17.094l-21.619,1.508" transform="translate(-83.563 -263.032)" fill="#fafbfd"/><path d="M168.051,581.229l-.141-2.011,20.689-1.443V562.626H168.423L170.5,528.88l2.006.121-1.946,31.615H190.61v19.04Z" transform="translate(-83.489 -262.972)"/><path d="M1222.921,886.7a45.34,45.34,0,0,0-5.028-29.664s-4.6-14.2,2.921-27.15,0-27.577-8.774-29.664-19.221,5.028-21.73,15.043-.417,17.135-15.46,24.636-14.415,46.8-14.415,46.8Z" transform="translate(-576.995 -397.708)" fill="#fafbfd"/><path d="M1222.763,886.667H1158.5v-1.005c0-1.634-.463-40,14.973-47.719,11.674-5.837,12.569-11.106,13.821-18.4.3-1.78.619-3.62,1.111-5.6,2.625-10.493,13.575-18.015,22.937-15.777,4.369,1.036,8.492,4.972,10.764,10.267a23.088,23.088,0,0,1-1.353,20.885c-6.9,11.886-3.233,25.028-2.866,26.255a45.954,45.954,0,0,1,5.068,30.287Zm-62.274-2.011h60.63c.5-3.238,1.941-15.933-5.028-28.155l-.086-.191c-.191-.6-4.646-14.787,3.017-27.974a21.117,21.117,0,0,0,1.247-19.08c-2.011-4.721-5.626-8.21-9.382-9.105-8.366-2.011-18.15,4.827-20.523,14.309-.477,1.906-.784,3.705-1.081,5.445-1.242,7.28-2.318,13.575-14.9,19.865C1161.344,846.264,1160.53,878.568,1160.49,884.656Z" transform="translate(-576.033 -396.673)"/><path d="M1219.9,887.1l-1.83-.835c12.333-26.929,21.559-86.266,21.649-86.86l2.011.3C1241.615,800.315,1232.349,859.924,1219.9,887.1Z" transform="translate(-605.654 -397.486)"/><circle cx="6.536" cy="6.536" r="6.536" transform="translate(672.453 428.867)"/><path d="M1283.895,933.248l-.865-2.358c19.7-7.24,31.313-38.633,31.429-38.95l2.358.86C1316.334,894.137,1304.68,925.611,1283.895,933.248Z" transform="translate(-637.954 -443.495)"/><rect width="2.011" height="30.594" transform="translate(616.734 409.551) rotate(-20.46)"/><rect width="2.011" height="33.565" transform="translate(611.281 423.475) rotate(-21.58)"/><path d="M1350.321,866.444s-10.141-5.294-20.222-2.092c0,0-2.755,14.777,7.542,15.878C1349.32,881.487,1350.321,866.444,1350.321,866.444Z" transform="translate(-661.191 -429.265)" fill="#00c6b7"/><circle cx="5.943" cy="5.943" r="5.943" transform="translate(699.105 424.845)"/><path d="M1303.574,931.939s5.852-8.356,5.028-15.043-5.028-8.773-6.687-8.356-4.6,1.252-3.343,7.542S1303.574,931.939,1303.574,931.939Z" transform="translate(-645.531 -451.723)"/><rect width="38.467" height="2.011" transform="translate(612.52 488.415) rotate(-36.28)"/><rect width="22.529" height="2.011" transform="translate(627.367 488.193) rotate(-35.66)"/><path d="M1088.864,781.726s4.178-8.778,0-20.061-7.1-46.381,17.969-44.712,26.743,35.1,24.234,52.233,1.257,28.834,5.435,38.447,17.547,16.712,15.46,38.025h-84.828S1062.956,811.812,1088.864,781.726Z" transform="translate(-530.481 -356.458)" fill="#fafbfd"/><path d="M1151.873,845.671h-86.628l-.106-.88c-.045-.352-1.041-8.758,1.156-20.986A91.977,91.977,0,0,1,1087,780.19a26.921,26.921,0,0,0-.086-19.166c-2.981-8.044-5.38-28.487,2.6-39.181,3.761-5.028,9.276-7.361,16.375-6.883a23.192,23.192,0,0,1,17.185,8.779c9.05,11.222,9.965,31.041,7.979,44.6-2.459,16.813,1.121,28.155,5.36,37.9a39.98,39.98,0,0,0,5.36,8.09c5.209,6.7,11.689,15.033,10.181,30.438Zm-84.818-2.011h82.988c1.1-14.017-4.711-21.489-9.849-28.1a41.05,41.05,0,0,1-5.616-8.547c-4.148-9.553-8.044-21.619-5.531-39,1.926-13.158,1.106-32.328-7.542-43.043a21.284,21.284,0,0,0-15.752-8.044c-6.38-.417-11.3,1.619-14.631,6.078-7.542,10.086-5.189,29.568-2.328,37.281,4.274,11.564.141,20.463-.035,20.84l-.06.121-.085.1C1065.627,808.1,1066.648,838.17,1067.055,843.66Z" transform="translate(-529.482 -355.465)"/><path d="M1387.55,895.768s13.072,1.041,15.119-2.077-3.58-5.872-10.991-1.166C1390.612,893.2,1387.55,895.768,1387.55,895.768Z" transform="translate(-689.924 -442.531)"/><path d="M1379.51,911.251s12.569,3.736,15.219,1.116-2.278-6.486-10.508-3.429C1383.04,909.376,1379.51,911.251,1379.51,911.251Z" transform="translate(-685.926 -451.388)"/><path d="M1322.958,928.343l-1.538-1.986c23.334-18.014,38.387-44.491,38.538-44.747l2.187,1.232C1361.994,883.1,1346.7,910.012,1322.958,928.343Z" transform="translate(-657.042 -438.358)"/><path d="M1146.766,845.169l-1.976-.367c16.059-86.477.216-127.74.05-128.148l1.87-.744c.171.422,4.153,10.614,6.179,31.72C1154.755,767.017,1155.208,799.7,1146.766,845.169Z" transform="translate(-569.217 -355.968)"/><rect width="23.384" height="2.011" transform="matrix(0.657, -0.754, 0.754, 0.657, 582.388, 396.843)"/><rect width="25.978" height="2.011" transform="matrix(0.66, -0.751, 0.751, 0.66, 583.048, 410.453)"/><path d="M1402.163,857.107s-8.633-5.028-18.387-1.9c0,0-2.514,13.434,6.838,14.44C1401.253,870.8,1402.163,857.107,1402.163,857.107Z" transform="translate(-687.894 -424.72)" fill="#00c6b7"/><rect width="2.011" height="41.439" transform="translate(554.357 429.807) rotate(-38.27)"/><rect width="2.011" height="46.708" transform="matrix(0.778, -0.628, 0.628, 0.778, 549.1, 437.442)"/><circle cx="5.943" cy="5.943" r="5.943" transform="translate(54.586 417.746)"/><path d="M92.89,873.389s-10.674-7.577-10.262-11.272,6.536-2.2,9.181,6.159C92.191,869.453,92.89,873.389,92.89,873.389Z" transform="translate(-41.079 -427.719)"/><path d="M88.488,890.569S76.476,885.38,76.1,881.675s5.908-3.519,10.262,4.113C86.989,886.863,88.488,890.569,88.488,890.569Z" transform="translate(-37.833 -437.221)"/><path d="M105.043,918.526c-10.056-31.207-2.474-54.385-2.147-55.356l2.383.8c-.075.231-7.642,23.4,2.152,53.8Z" transform="translate(-49.647 -429.189)"/><path d="M100.941,833.39s9.854,1.674,15.32,10.347c0,0-6.7,11.911-14.515,6.682C92.856,844.466,100.941,833.39,100.941,833.39Z" transform="translate(-48.517 -414.382)" fill="#00c6b7"/><path d="M158.895,907.612a33.962,33.962,0,0,0-3.761-22.238s-3.444-10.649,2.192-20.357,0-20.674-6.576-22.238-14.41,3.756-16.29,11.272-.689,18.1-11.961,23.756-10.433,29.8-10.433,29.8Z" transform="translate(-55.715 -418.915)" fill="#fafbfd"/><path d="M158.7,907.621H110.1l-.035-.97c-.035-1.006-.734-24.877,10.986-30.74,8.432-4.213,9.482-11.177,10.5-17.909.271-1.83.533-3.555.94-5.189,2.011-7.989,10.337-13.716,17.5-12.011,3.348.8,6.506,3.806,8.24,7.843a17.557,17.557,0,0,1-1.006,15.878c-5.068,8.728-2.438,18.417-2.132,19.457a34.752,34.752,0,0,1,3.811,22.851Zm-46.637-2.011h44.983a33.4,33.4,0,0,0-3.786-20.734l-.08-.186c-.146-.453-3.519-11.192,2.278-21.177a15.586,15.586,0,0,0,.92-14.078c-1.508-3.469-4.118-6.033-6.858-6.682-6.154-1.463-13.334,3.565-15.083,10.558-.387,1.538-.644,3.223-.91,5-1.041,6.9-2.222,14.726-11.564,19.407s-9.9,23.394-9.9,27.889Z" transform="translate(-54.716 -417.917)"/><path d="M156.635,907.994l-1.825-.835c9.231-20.156,16.139-64.6,16.184-65.039l2.011.307C172.935,842.874,165.967,887.591,156.635,907.994Z" transform="translate(-76.975 -418.723)"/><rect width="2.011" height="22.932" transform="translate(81.081 429.255) rotate(-20.46)"/><rect width="2.011" height="25.159" transform="translate(76.97 439.657) rotate(-21.58)"/><rect width="28.834" height="2.011" transform="matrix(0.806, -0.592, 0.592, 0.806, 77.992, 488.047)"/><rect width="16.888" height="2.011" transform="translate(89.099 487.902) rotate(-35.68)"/><line x2="711.93" transform="translate(8.07 489.2)" fill="#00c6b7"/><rect width="711.93" height="2.011" transform="translate(8.07 488.195)"/></g></g></svg>