<svg xmlns="http://www.w3.org/2000/svg" width="19.988" height="17.438" viewBox="0 0 19.988 17.438"><g transform="translate(0)"><path d="M13.877,0H1.665A1.665,1.665,0,0,0,0,1.665v8.881a1.665,1.665,0,0,0,1.665,1.665H3.636l-.3,2.714a.555.555,0,0,0,.923.474L7.8,12.212h6.078a1.665,1.665,0,0,0,1.665-1.665V1.665A1.665,1.665,0,0,0,13.877,0Zm.555,10.546a.555.555,0,0,1-.555.555H7.586a.557.557,0,0,0-.371.143L4.6,13.6l.209-1.881a.555.555,0,0,0-.49-.613.561.561,0,0,0-.062,0H1.665a.555.555,0,0,1-.555-.555V1.665a.555.555,0,0,1,.555-.555H13.877a.555.555,0,0,1,.555.555Zm5.557-6.985v8.881a1.665,1.665,0,0,1-1.665,1.665H16.352l.3,2.714a.555.555,0,0,1-.923.473l-3.542-3.187H6.8L8.035,13H12.4a.555.555,0,0,1,.371.141l2.616,2.355-.209-1.881A.553.553,0,0,1,15.733,13h2.59a.555.555,0,0,0,.555-.555V3.562a.555.555,0,0,0-.555-.555H16.652V1.9h1.671A1.665,1.665,0,0,1,19.988,3.562Z" transform="translate(0)" fill="#333"/></g></svg>