<svg xmlns="http://www.w3.org/2000/svg" width="25.404" height="13.217" viewBox="0 0 25.404 13.217"><g transform="translate(1 -1)"><g transform="translate(-1 1)"><path d="M23.469,8.544A6.585,6.585,0,0,0,20.958,6.97a3.82,3.82,0,1,0-4.323,0A6.645,6.645,0,0,0,12.7,10.653,6.644,6.644,0,0,0,8.77,6.97a3.82,3.82,0,1,0-4.323,0A6.619,6.619,0,0,0,0,13.217H1.033a5.576,5.576,0,0,1,11.151,0H13.22a5.576,5.576,0,0,1,11.151,0H25.4A6.565,6.565,0,0,0,23.469,8.544ZM6.608,6.608A2.788,2.788,0,1,1,9.4,3.82,2.788,2.788,0,0,1,6.608,6.608Zm12.188,0A2.788,2.788,0,1,1,21.584,3.82,2.788,2.788,0,0,1,18.8,6.608Z" fill="#333"/></g></g></svg>