<svg xmlns="http://www.w3.org/2000/svg" width="19" height="19" viewBox="0 0 19 19"><g transform="translate(-40 -248)"><g transform="translate(40 248)" fill="none" stroke="#333" stroke-width="1"><rect width="7" height="7" stroke="none"/><rect x="0.5" y="0.5" width="6" height="6" fill="none"/></g><g transform="translate(40 254)" fill="none" stroke="#333" stroke-width="1"><rect width="7" height="7" stroke="none"/><rect x="0.5" y="0.5" width="6" height="6" fill="none"/></g><g transform="translate(40 260)" fill="none" stroke="#333" stroke-width="1"><rect width="7" height="7" stroke="none"/><rect x="0.5" y="0.5" width="6" height="6" fill="none"/></g><g transform="translate(46 248)" fill="none" stroke="#333" stroke-width="1"><rect width="7" height="7" stroke="none"/><rect x="0.5" y="0.5" width="6" height="6" fill="none"/></g><g transform="translate(46 254)" fill="none" stroke="#333" stroke-width="1"><rect width="7" height="7" stroke="none"/><rect x="0.5" y="0.5" width="6" height="6" fill="none"/></g><g transform="translate(46 260)" fill="none" stroke="#333" stroke-width="1"><rect width="7" height="7" stroke="none"/><rect x="0.5" y="0.5" width="6" height="6" fill="none"/></g><g transform="translate(52 248)" fill="none" stroke="#333" stroke-width="1"><rect width="7" height="7" stroke="none"/><rect x="0.5" y="0.5" width="6" height="6" fill="none"/></g><g transform="translate(52 254)" fill="none" stroke="#333" stroke-width="1"><rect width="7" height="7" stroke="none"/><rect x="0.5" y="0.5" width="6" height="6" fill="none"/></g><g transform="translate(52 260)" fill="none" stroke="#333" stroke-width="1"><rect width="7" height="7" stroke="none"/><rect x="0.5" y="0.5" width="6" height="6" fill="none"/></g></g></svg>