<svg xmlns="http://www.w3.org/2000/svg" width="466.431" height="294.246" viewBox="0 0 466.431 294.246"><g transform="translate(-0.26)"><g transform="translate(0.26)"><g transform="translate(29.723)"><path d="M98.887,404.286H95.6V401H94.286v3.286H91V405.6h3.286v3.286H95.6V405.6h3.286Z" transform="translate(-91 -269.227)"/><path d="M1343.887,3.286H1340.6V0h-1.315V3.286H1336V4.6h3.286V7.887h1.315V4.6h3.286Z" transform="translate(-926.879)"/><path d="M134.6,361.2a4.6,4.6,0,1,1,4.6-4.6A4.6,4.6,0,0,1,134.6,361.2Zm0-7.887a3.286,3.286,0,1,0,3.286,3.286A3.286,3.286,0,0,0,134.6,353.314Z" transform="translate(-117.184 -236.329)"/><path d="M1338.6,632.2a4.6,4.6,0,1,1,4.6-4.6A4.6,4.6,0,0,1,1338.6,632.2Zm0-7.887a3.286,3.286,0,1,0,3.286,3.286A3.286,3.286,0,0,0,1338.6,624.315Z" transform="translate(-925.536 -418.275)"/><path d="M638.6,223.2a4.6,4.6,0,1,1,4.6-4.6,4.6,4.6,0,0,1-4.6,4.6Zm0-7.887a3.286,3.286,0,1,0,3.286,3.286A3.286,3.286,0,0,0,638.6,215.314Z" transform="translate(-455.564 -143.677)"/><path d="M1388.627,538.156a7.688,7.688,0,0,1-7.831-6.467,5.61,5.61,0,0,0-6.727-4.709l-.26-1.288c.069,0,6.832-1.314,8.274,5.734a6.351,6.351,0,0,0,6.773,5.409l.115,1.314S1388.841,538.156,1388.627,538.156Z" transform="translate(-952.264 -352.878)"/><path d="M245.021,86.156a5.606,5.606,0,0,0-6.145-5.448h-.361c-6.786,0-7.8-6.391-7.814-6.457l1.314-.191a6.392,6.392,0,0,0,6.835,5.33c7.183-.223,7.5,6.645,7.5,6.714Z" transform="translate(-184.793 -49.723)"/></g><g transform="translate(243.977 16.102)"><rect width="182.338" height="174.683" rx="43" transform="translate(0.996 0.461)" fill="#fff"/><path d="M911.906,224.478H757.787A14.8,14.8,0,0,1,743,209.691V63.788A14.8,14.8,0,0,1,757.787,49H911.906a14.8,14.8,0,0,1,14.787,14.788v145.9a14.8,14.8,0,0,1-14.787,14.788ZM757.787,50.314a13.473,13.473,0,0,0-13.473,13.473v145.9a13.473,13.473,0,0,0,13.473,13.473H911.906a13.473,13.473,0,0,0,13.473-13.473V63.788a13.473,13.473,0,0,0-13.473-13.473Z" transform="translate(-743 -49)"/><path d="M921.615,252.58a17.3,17.3,0,0,1-13.089-.933c-4.292-2.159-9.632-4.85-20.285,5.041-8.514,7.906-12.977,8.169-17.416,6.027-5.4-2.606-15.445-7.456-24.646,2.754-9.467,10.516-16.086,10.062-28.1,9.234l-.93-.062c-12.083-.825-30.932,21-30.932,21,.733-.963,18.037-23.634,31.05-22.743l.93.062c11.83.815,17.781,1.226,26.683-8.659,10.069-11.173,21.3-5.764,26.706-3.158,3.22,1.554,6.829,2.3,15.468-5.738,10.66-9.894,16.608-8.163,22.257-5.317,2.675,1.347,12.707,4.272,21.731-5.915l9.786-9.474-8.59,10.187C928.607,249.182,924.953,251.479,921.615,252.58Z" transform="translate(-772.017 -173.677)" fill="#00c6b7"/><path d="M837.773,184.063l-1.643-1.452c1.272-1.429,31.2-35.023,45.979-35.47h0a1.7,1.7,0,0,1,1.466.9c.611,1.107.772,3.615-4.867,12.583-.4.776-6.316,12.264-7.348,16.394a1.267,1.267,0,0,0,.167,1.127c.118.062.887-.049,2.336-1.682.155-.174,16.2-17.479,21-17.479a2.957,2.957,0,0,1,2.34,1.1c2.113,2.511,1.147,9,.953,10.167a1.642,1.642,0,0,0,.253.871s.309.026,1.081-.522c.457-.329,1.052-.769,1.742-1.285,6.03-4.5,11.682-8.475,14.554-7.653,3.72,1.061,3.138,6.99,2.994,8.113a.657.657,0,0,0,.23.447c.108.072.555.266,1.794-.2a10.52,10.52,0,0,0,3.48-2.438c1.18-1.1,2.4-2.248,4.081-2.008a4.272,4.272,0,0,1,2.9,1.745c1.315,1.794,1.426,4.555,1.094,6.543a1.87,1.87,0,0,0,.131,1.351s1.137,0,5.379-4.837c7.887-8.981,35.848-23.161,38.858-23.66,0,0-29.654,16.877-37.133,25.011-3.871,4.213-6.129,6.316-8,5.5-1.167-.513-1.705-1.936-1.406-3.72.266-1.594.151-3.72-.7-4.886a2.067,2.067,0,0,0-1.443-.868c-.608-.085-1.259.49-2.271,1.436a12.647,12.647,0,0,1-4.209,2.892c-1.607.6-2.892.585-3.818-.059a2.9,2.9,0,0,1-1.173-2.3v-.154c.237-1.7.207-5.35-1.41-5.81-2.057-.6-9.75,5.143-12.642,7.3-.707.526-1.314.986-1.778,1.314q-1.972,1.4-3.365.684c-1.4-.72-1.439-2.672-1.439-2.892v-.191c.44-2.547.71-7.108-.453-8.491a.789.789,0,0,0-.657-.329c-2.984,0-16.519,13.549-19.362,16.759-2.4,2.7-4.045,2.668-5,2.162a3.17,3.17,0,0,1-1.275-3.6c1.127-4.5,7.289-16.4,7.558-16.91l.043-.079c4.361-6.924,4.844-9.4,4.85-10.141C867.664,150.5,838.059,183.725,837.773,184.063Z" transform="translate(-805.526 -114.608)" fill="#00c6b7"/></g><g transform="translate(13.565 207.967)"><path d="M176.447,774.614a29.634,29.634,0,0,1,3.286-19.388s3-9.283-1.913-17.745,0-18.024,5.734-19.388,12.563,3.286,14.2,9.832.273,11.2,10.1,16.1,9.411,30.587,9.411,30.587Z" transform="translate(-131.779 -689.927)" fill="#fafbfd"/><path d="M216.563,773.887h-42.01l-.115-.513a30.036,30.036,0,0,1,3.312-19.8c.237-.805,2.629-9.408-1.873-17.16a15.09,15.09,0,0,1-.884-13.657c1.485-3.46,4.18-6.033,7.036-6.71,6.132-1.462,13.276,3.454,14.991,10.312.329,1.291.529,2.494.726,3.657.815,4.768,1.4,8.215,9.037,12.027,10.085,5.044,9.8,30.124,9.783,31.188Zm-40.929-1.315h39.614c-.026-3.979-.559-25.093-9.06-29.342-8.215-4.114-8.928-8.215-9.743-12.983-.194-1.137-.394-2.3-.707-3.559-1.551-6.2-7.943-10.654-13.414-9.352-2.455.585-4.8,2.865-6.129,5.951a13.782,13.782,0,0,0,.812,12.471c5,8.62,2.093,17.893,1.972,18.284l-.056.125a29.294,29.294,0,0,0-3.3,18.406Z" transform="translate(-130.411 -688.543)"/><path d="M211.645,774.72c-8.14-17.765-14.193-56.725-14.255-57.123l1.314-.2c.059.388,6.089,39.171,14.15,56.771Z" transform="translate(-146.271 -689.622)"/><circle cx="4.524" cy="4.524" r="4.524" transform="translate(18.449 45.218)"/><path d="M133.767,836.939c-13.585-4.992-21.2-25.563-21.517-26.437l1.544-.562c.076.207,7.673,20.729,20.542,25.458Z" transform="translate(-89.109 -751.752)"/><rect width="19.996" height="1.314" transform="translate(55.534 51.061) rotate(-69.54)"/><rect width="21.938" height="1.314" transform="translate(58.011 61.732) rotate(-68.43)"/><path d="M91.83,783.363s6.628-3.46,13.217-1.367c0,0,1.8,9.658-4.929,10.378C92.484,793.195,91.83,783.363,91.83,783.363Z" transform="translate(-75.399 -732.539)" fill="#00c6b7"/><circle cx="3.884" cy="3.884" r="3.884" transform="translate(2.143 42.763)"/><path d="M146.84,841.815s-3.825-5.461-3.286-9.832,3.286-5.734,4.367-5.461,3.007.818,2.185,4.929A79.961,79.961,0,0,1,146.84,841.815Z" transform="translate(-110.091 -762.862)"/><rect width="1.314" height="25.142" transform="translate(45.459 70.463) rotate(-53.7)"/><rect width="1.314" height="14.725" transform="translate(44.067 76.638) rotate(-54.32)"/><path d="M267.327,677.262a17.977,17.977,0,0,1,0-13.112c2.731-7.374,4.64-30.314-11.745-29.227s-17.462,22.947-15.839,34.143a43.209,43.209,0,0,1-3.552,25.129c-2.734,6.283-11.469,10.923-10.1,24.853H281.53S284.261,696.926,267.327,677.262Z" transform="translate(-165.441 -634.223)" fill="#fafbfd"/><path d="M280.772,718.35h-56.62l-.059-.591c-.986-10.069,3.25-15.517,6.654-19.894a26.128,26.128,0,0,0,3.5-5.287,42.258,42.258,0,0,0,3.5-24.771c-1.3-8.872-.71-21.816,5.215-29.151a15.242,15.242,0,0,1,11.229-5.744c4.624-.329,8.245,1.2,10.7,4.5,5.218,6.99,3.654,20.341,1.7,25.609a17.524,17.524,0,0,0-.056,12.523,60.135,60.135,0,0,1,13.535,28.51,50.131,50.131,0,0,1,.759,13.716Zm-55.424-1.315h54.241a58.428,58.428,0,0,0-14.1-40.7l-.059-.066-.036-.079a18.47,18.47,0,0,1-.023-13.621c1.867-5.041,3.4-17.775-1.521-24.367-2.179-2.915-5.392-4.249-9.563-3.973a13.9,13.9,0,0,0-10.3,5.258c-5.659,7-6.194,19.533-4.929,28.132a44.043,44.043,0,0,1-3.6,25.487,27.712,27.712,0,0,1-3.671,5.586C228.428,702.991,224.622,707.874,225.349,717.035Z" transform="translate(-164.102 -632.867)"/><path d="M54.175,811.768s-8.544.68-9.881-1.357,2.346-3.838,7.187-.769C52.174,810.088,54.175,811.768,54.175,811.768Z" transform="translate(-43.298 -750.448)"/><path d="M61.689,828.061s-8.215,2.442-9.957.729,1.489-4.239,6.868-2.241C59.388,826.835,61.689,828.061,61.689,828.061Z" transform="translate(-48.16 -762.41)"/><path d="M85.994,830.778C70.474,818.8,60.155,800.559,60.05,800.362l1.436-.8c.1.181,10.263,18.133,25.513,29.9Z" transform="translate(-54.063 -744.783)"/><path d="M304.093,718.393c-5.508-29.72-5.222-51.079-4-63.751,1.314-13.8,3.943-20.456,4.039-20.732l1.222.486c-.026.066-2.658,6.815-3.943,20.456-1.2,12.592-1.485,33.8,3.993,63.3Z" transform="translate(-214.734 -633.567)"/><rect width="1.314" height="15.284" transform="matrix(0.754, -0.657, 0.657, 0.754, 75.164, 13.793)"/><path d="M41.83,774.1a16.113,16.113,0,0,1,12.017-1.232s1.643,8.781-4.469,9.438C42.425,783.051,41.83,774.1,41.83,774.1Z" transform="translate(-41.83 -726.41)" fill="#00c6b7"/><rect width="1.314" height="16.979" transform="matrix(0.751, -0.66, 0.66, 0.751, 73.57, 21.464)"/><rect width="27.084" height="1.314" transform="translate(86.709 66.501) rotate(-51.74)"/><rect width="30.528" height="1.314" transform="matrix(0.628, -0.778, 0.778, 0.628, 87.741, 73.965)"/></g><g transform="translate(344.802 207.978)"><path d="M1186.215,774.614a29.634,29.634,0,0,0-3.286-19.388s-3-9.283,1.912-17.745,0-18.024-5.734-19.388-12.566,3.286-14.2,9.832-.273,11.2-10.1,16.1-9.424,30.587-9.424,30.587Z" transform="translate(-1113.973 -689.938)" fill="#fafbfd"/><path d="M1185.439,773.874h-42.006v-.657c-.016-1.065-.3-26.144,9.786-31.188,7.63-3.815,8.215-7.259,9.034-12.027.2-1.163.4-2.366.729-3.657,1.712-6.858,8.873-11.774,14.991-10.312,2.852.677,5.547,3.25,7.036,6.71a15.116,15.116,0,0,1-.884,13.65c-4.512,7.768-2.113,16.358-1.873,17.16a30.058,30.058,0,0,1,3.312,19.8Zm-40.7-1.314h39.627a29.456,29.456,0,0,0-3.286-18.4l-.056-.125c-.128-.391-3.036-9.664,1.972-18.284a13.8,13.8,0,0,0,.812-12.471c-1.314-3.086-3.674-5.366-6.132-5.951-5.468-1.314-11.863,3.155-13.411,9.352-.329,1.245-.513,2.422-.707,3.559-.815,4.758-1.518,8.872-9.743,12.983C1145.3,747.467,1144.76,768.58,1144.737,772.56Z" transform="translate(-1112.667 -688.54)"/><path d="M1204.216,774.726l-1.2-.546c8.061-17.6,14.091-56.383,14.15-56.771l1.314.2C1218.409,718,1212.353,756.962,1204.216,774.726Z" transform="translate(-1152.676 -689.639)"/><circle cx="4.272" cy="4.272" r="4.272" transform="translate(89.583 45.381)"/><path d="M1268.539,836.939l-.569-1.541c12.865-4.729,20.466-25.251,20.542-25.458l1.544.562C1289.737,811.376,1282.11,831.947,1268.539,836.939Z" transform="translate(-1196.283 -751.763)"/><rect width="1.314" height="19.996" transform="translate(53.165 32.752) rotate(-20.46)"/><rect width="1.314" height="21.938" transform="translate(49.607 41.851) rotate(-21.58)"/><path d="M1328.145,783.363s-6.625-3.46-13.213-1.367c0,0-1.8,9.658,4.929,10.378C1327.494,793.195,1328.145,783.363,1328.145,783.363Z" transform="translate(-1227.665 -732.55)" fill="#00c6b7"/><path d="M1286.686,841.815s3.822-5.461,3.286-9.832-3.286-5.734-4.371-5.461-3,.818-2.185,4.929A79.235,79.235,0,0,0,1286.686,841.815Z" transform="translate(-1206.521 -762.873)"/><rect width="25.142" height="1.314" transform="matrix(0.806, -0.592, 0.592, 0.806, 50.414, 84.313)"/><path d="M1066.2,677.268a17.958,17.958,0,0,0,0-13.112c-2.734-7.374-4.64-30.314,11.745-29.223s17.479,22.944,15.842,34.139a43.132,43.132,0,0,0,3.549,25.129c2.731,6.283,11.472,10.923,10.092,24.853H1052S1049.259,696.932,1066.2,677.268Z" transform="translate(-1051.171 -634.24)" fill="#fafbfd"/><path d="M1106.682,718.372h-56.62l-.072-.575a50.04,50.04,0,0,1,.756-13.716,60.161,60.161,0,0,1,13.539-28.507,17.615,17.615,0,0,0-.056-12.527c-1.952-5.258-3.519-18.619,1.7-25.609,2.458-3.286,6.06-4.808,10.7-4.5a15.143,15.143,0,0,1,11.232,5.738c5.915,7.335,6.51,20.288,5.215,29.151a42.226,42.226,0,0,0,3.5,24.771,26.243,26.243,0,0,0,3.5,5.287c3.4,4.384,7.63,9.825,6.645,19.894Zm-55.44-1.314h54.24c.723-9.162-3.076-14.045-6.434-18.363a26.822,26.822,0,0,1-3.671-5.586,44.159,44.159,0,0,1-3.615-25.487c1.259-8.6.72-21.13-4.929-28.132a13.923,13.923,0,0,0-10.3-5.258c-4.17-.276-7.387,1.058-9.563,3.973-4.929,6.592-3.388,19.326-1.521,24.367a18.481,18.481,0,0,1-.023,13.621l-.036.079-.059.066A58.524,58.524,0,0,0,1051.242,717.058Z" transform="translate(-1049.819 -632.901)"/><path d="M1131.025,718.393l-1.295-.24c5.481-29.5,5.2-50.708,4-63.3-1.314-13.641-3.943-20.39-3.96-20.456l1.222-.486c.108.276,2.711,6.937,4.035,20.732C1136.243,667.313,1136.539,688.673,1131.025,718.393Z" transform="translate(-1103.47 -633.578)"/><rect width="15.284" height="1.314" transform="matrix(0.657, -0.754, 0.754, 0.657, 30.715, 24.45)"/><rect width="16.979" height="1.314" transform="matrix(0.66, -0.751, 0.751, 0.66, 31.148, 33.349)"/><rect width="1.314" height="27.084" transform="translate(12.395 45.999) rotate(-38.27)"/><rect width="1.314" height="30.528" transform="matrix(0.778, -0.628, 0.628, 0.778, 8.959, 50.988)"/></g><g transform="translate(31.183 55.347)"><path d="M275.395,834.52l-4.272,12.287L259.5,844.372l3.086-9.852Z" transform="translate(-205.59 -615.634)" fill="#fafbfd"/><path d="M269.828,846.216l-12.9-2.7,3.447-11.005h14.216Zm-11.209-3.687,10.348,2.169,3.776-10.867h-11.4Z" transform="translate(-203.864 -614.284)"/><path d="M254.1,859.68s6.96,5.281,12.816,0l17.344,9.037a.822.822,0,0,1-.381,1.551h-30.65a1.472,1.472,0,0,1-1.426-1.847Z" transform="translate(-200.388 -632.526)"/><path d="M470.7,834.5l.329,12.293-12.28-.135L457.89,834.5Z" transform="translate(-338.786 -615.62)" fill="#fafbfd"/><path d="M470.265,846.1l-13.568-.148-.946-13.473H469.9Zm-12.339-1.449,10.989.118-.292-10.969H457.147Z" transform="translate(-337.35 -614.264)"/><path d="M455.1,859.68s6.96,5.281,12.816,0l17.344,9.037a.822.822,0,0,1-.381,1.551h-30.65a1.472,1.472,0,0,1-1.426-1.847Z" transform="translate(-335.337 -632.526)"/><path d="M361.436,205.314c-3.227-4.377,2.471-16,3.188-21.36,2.238-16.759-16.339-15.409-16.339-15.409-14.893-1.482-18.215,11.173-19.674,17-2.866,11.472-7.966,12.747-12.109,15.934s-10.187,13.7-3.5,19.437c3.046,2.629,40.321,9.066,46.525,7.013C366.625,225.589,364.663,209.691,361.436,205.314Z" transform="translate(-239.503 -168.426)"/><path d="M380.88,228.019l6.454-14.295s-5.07-9.681,1.613-8.757c0,0,13.144,1.844,15.678-7.377,0,0,8.761,25.126-7.837,23.052l-.463,10.6Z" transform="translate(-287.083 -188.006)" fill="#fafbfd"/><path d="M395.016,227.523,378,223.971l6.664-14.751c-.657-1.314-2.787-6.027-1.186-8.3.69-.986,1.906-1.36,3.615-1.127.125.02,12.6,1.643,14.952-6.9l.559-2.037.7,1.995c.21.608,5.133,14.965.076,21.218-1.715,2.139-4.371,3.076-7.9,2.8ZM379.9,223.018l13.874,2.9.457-10.542.71.089c3.395.421,5.892-.329,7.43-2.225,3.615-4.466,1.4-14.13.26-18.159-3.776,7.581-15.576,6.027-15.7,6.01q-1.774-.246-2.363.578c-1.1,1.574.7,5.849,1.423,7.229l.148.283Z" transform="translate(-285.149 -183.481)"/><path d="M428.7,311.991l15.625,10.864,40.452,11.8,8.9-8.248L453.2,309.362,428.8,290Z" transform="translate(-319.189 -250.049)" fill="#01b7a9"/><path d="M322.711,458.856c.3.891,28.1,42.42,37.245,56.071a21.931,21.931,0,0,1,3.529,9.441l7.154,55.585h-21.31l-13.144-54.694-35.49-49s-7.456-10.654,5.682-24.146Z" transform="translate(-231.832 -358.888)" fill="#2f2e40"/><path d="M259.318,444.2s-14.459,20.7-7.371,35.976l17.745,35.161L246.62,574.632h20.6l26.519-49.505a17.857,17.857,0,0,0,1.814-11.708l-10.578-56.676Z" transform="translate(-196.942 -353.577)" fill="#2f2e40"/><path d="M314.1,272.962s-8.35-1.5-12.257-7.538c0,0-9.408-1.952-20.772,8.7l-21.636,25.05a6.993,6.993,0,0,0,1.607,10.516l10.795,6.691-8.166,12.425,34.442,12.783s8.015-26.779,17.942-34.718C324.876,299.812,315.7,277.753,314.1,272.962Z" transform="translate(-204.402 -233.454)" fill="#00c6b7"/><path d="M971.54,281.77l6.963-2.3,21.567,2.4,14.13,1.574a1.834,1.834,0,0,1,1.052,3.161l-10.371,9.694-15.839,14.83-6.967,2.317Z" transform="translate(-683.645 -242.98)" fill="#fafbfd"/><path d="M979.943,312.88,969,279.96l7.726-2.57,35.819,3.993a2.494,2.494,0,0,1,1.426,4.295l-26.312,24.646Zm-9.28-32.089,10.111,30.429,6.2-2.064,26.1-24.439a1.176,1.176,0,0,0-.674-2.028l-35.52-3.96Z" transform="translate(-681.94 -241.583)"/><path d="M137.51,372.808,418.545,279.43l.089.269a5.5,5.5,0,0,0,3.4,10.243l.069.2a5.5,5.5,0,0,0,3.4,10.243l.069.2a5.5,5.5,0,0,0,3.4,10.243l.089.269L148.035,404.49Z" transform="translate(-123.687 -242.953)" fill="#fafbfd"/><path d="M145.933,403.616,135,370.692l.624-.207L417.277,276.9l.467,1.406-.467.27a4.844,4.844,0,0,0,3,9.02l.536-.069.411,1.236-.47.266a4.844,4.844,0,0,0,3,9.02l.536-.069.411,1.229-.473.266a4.844,4.844,0,0,0,3,9.02l.539-.069.467,1.406-.624.207Zm-9.29-32.089,10.108,30.429,278.041-92.386a6.161,6.161,0,0,1-2.563-10.243,6.158,6.158,0,0,1-3.47-10.443,6.158,6.158,0,0,1-4.075-9.74Z" transform="translate(-122.002 -241.254)"/><path d="M1058.36,286.74l14.13,1.574a1.834,1.834,0,0,1,1.052,3.161l-10.371,9.707Z" transform="translate(-741.935 -247.861)"/><path d="M123.254,594.63l-11,3.667a7.578,7.578,0,0,1-9.579-4.8l-4.85-14.61a7.558,7.558,0,0,1,4.8-9.579l11.008-3.657Z" transform="translate(-96.783 -435.117)" fill="#fafbfd"/><path d="M108.538,597.634A8.251,8.251,0,0,1,100.717,592l-4.85-14.6a8.235,8.235,0,0,1,5.215-10.41l11.633-3.865,10.042,30.232-11.63,3.865a8.2,8.2,0,0,1-2.589.417Zm3.342-32.861-10.384,3.45a6.9,6.9,0,0,0-4.384,8.744l4.854,14.6a6.927,6.927,0,0,0,8.748,4.384l10.381-3.45Z" transform="translate(-95.445 -433.419)"/><rect width="16.158" height="33.377" transform="translate(13.824 129.857) rotate(-18.38)"/><rect width="279.809" height="1.314" transform="translate(35.945 145.2) rotate(-18.38)"/><rect width="279.809" height="1.314" transform="translate(32.477 134.754) rotate(-18.38)"/><path d="M597.783,394.84l9.957,2.484,4.272,3.2a9.8,9.8,0,0,1-8.7-1.6L591.95,400.7Z" transform="translate(-428.793 -320.438)" fill="#fafbfd"/><path d="M586.11,400.148l7.558-7.558L604.1,395.2l5.37,4.029-1.2.4a10.415,10.415,0,0,1-9.089-1.528Zm13.437-3.431.227.187a8.746,8.746,0,0,0,6.723,1.758l-2.99-2.241-9.451-2.366-4.17,4.173Z" transform="translate(-424.872 -318.927)"/><path d="M398.939,428.34l16.1,9.26,3.22,11.275s-1.61.805-3.22-2.014l.808,4.042a5.5,5.5,0,0,1-3.22-3.22V450.1s-1.209.805-2.419-3.615l-.4,2.011s-1.209-.4-1.209-3.22l-.805-2.819s-3.22-1.206-4.43-3.615l-8.455-4.029Z" transform="translate(-296.502 -342.929)" fill="#fafbfd"/><path d="M414.76,450.056l-1.071-.358a6.424,6.424,0,0,1-2.353-1.541v.463l-.3.2a1.2,1.2,0,0,1-1.068.079,3.219,3.219,0,0,1-1.541-1.778l-.082.4-.7-.237c-.171-.056-1.643-.634-1.66-3.753l-.693-2.425a9.532,9.532,0,0,1-4.361-3.615L392,433.244l4.752-7.6,16.887,9.71,3.444,12.053-.49.246a2.434,2.434,0,0,1-2.386-.329Zm-4.742-8.251,1.278,3.841a4.446,4.446,0,0,0,1.682,2.2l-1.314-6.638,2.008,3.516c.706,1.236,1.357,1.643,1.8,1.748l-2.928-10.246-15.34-8.823-3.286,5.281,7.992,3.809.1.2c1.075,2.149,4.045,3.286,4.075,3.3l.309.118.92,3.224v.092a5.881,5.881,0,0,0,.2,1.643l.657-3.286.72,2.7a9.029,9.029,0,0,0,1.127,2.787Z" transform="translate(-294.549 -341.116)"/><path d="M328.252,383.206l-30-12.648.513-1.213,28.944,12.2,6.142-10.345L308.5,353.348l8.012-8.008.927.93-6.9,6.9,25.07,17.653Z" transform="translate(-231.606 -287.204)"/></g><g transform="translate(185.678 129.181)"><path d="M1108.251,843.37l12.3.03-.49,12.27-12.178.5Z" transform="translate(-929.677 -695.41)" fill="#fafbfd"/><path d="M1105.82,855.55l.411-14.13,13.618.03-.542,13.558Zm1.686-12.816-.328,11.459,10.867-.45.44-10.985Z" transform="translate(-928.294 -694.101)"/><path d="M1133.1,819.113s5.481-6.8.375-12.816l9.53-17.088a.825.825,0,0,1,1.541.427l-.89,30.63a1.476,1.476,0,0,1-1.89,1.374Z" transform="translate(-946.609 -658.768)"/><path d="M772.86,807.38l57.882,2.484,52.906,8.521v15.98H773.037Z" transform="translate(-704.748 -671.247)" fill="#fafbfd"/><path d="M882.956,833.62H771.037l-.187-28.33,58.644,2.534,53.462,8.6Zm-110.614-1.314h109.3V817.544l-52.318-8.429-57.149-2.455Z" transform="translate(-703.399 -669.844)"/><path d="M1010.7,830.5l5.258,12.293-12.28-.135L997.89,830.5Z" transform="translate(-855.831 -686.769)" fill="#fafbfd"/><path d="M1014.834,842.111l-13.7-.148L994.73,828.49h14.281Zm-12.862-1.456,10.844.118-4.689-10.966H996.794Z" transform="translate(-853.709 -685.42)"/><path d="M1005.111,855.68s6.96,5.281,12.816,0l17.344,9.037a.822.822,0,0,1-.381,1.551h-30.643a1.472,1.472,0,0,1-1.426-1.847Z" transform="translate(-859.109 -703.675)"/><path d="M652.153,728.16s-12.428,25.211,3.552,31.6h41.9l47.3-29.963,19.447,18.626,16.431-5.586L753.937,702.42a12.323,12.323,0,0,0-17.006-4.4L690.86,725.663Z" transform="translate(-620.615 -596.644)" fill="#fafbfd"/><path d="M696.454,759.125H654.241l-.115-.046a12.659,12.659,0,0,1-7.45-7.4c-3.815-9.95,3.25-24.488,3.552-25.1l.168-.329,38.924-2.5,45.937-27.561a12.974,12.974,0,0,1,17.9,4.614l27.327,41.1-17.637,5.987L743.482,729.34Zm-41.964-1.314h41.583l47.576-30.137,19.529,18.708,15.277-5.185-26.43-39.742a11.659,11.659,0,0,0-16.1-4.167l-46.193,27.738L651.254,727.5c-1.038,2.248-6.645,15.116-3.345,23.709A11.281,11.281,0,0,0,654.491,757.81Z" transform="translate(-619.273 -595.349)"/><path d="M593.289,517l-10.3,2.129,1.065-39.059,11.363-7.811-7.456,2.129,2.129-7.1-.355-4.972s-2.129.355-2.129,3.907l-1.972,3.017.71-3.907-1.186-6.273a.256.256,0,0,0-.345-.194c-.657.25-2.2.986-2.2,2.386v2.839l-.177,1.955-.71-3.552-.624-2.8a.306.306,0,0,0-.486-.171c-.447.352-1.144,1.226-1.377,3.329l-.532,5.5-1.065-4.6s-2.129.71-1.775,3.552l-.532,7.279s.355,2.484.71,4.272l-8.347,46.334s-1.952,6.214,7.637,6.924c0,0,9.763.177,17.574-.532Z" transform="translate(-566.901 -437.246)" fill="#fafbfd"/><path d="M576.811,531.4c-1.686,0-2.744-.02-2.777-.02H574c-3.69-.276-6.211-1.374-7.5-3.286a5.564,5.564,0,0,1-.729-4.459l8.317-46.183c-.345-1.761-.687-4.147-.69-4.173V473.2l.532-7.289a3.727,3.727,0,0,1,2.228-4.19l.684-.227.329,1.393.145-1.492c.253-2.274,1.025-3.312,1.627-3.782a.956.956,0,0,1,1.531.545l.266,1.186a3.9,3.9,0,0,1,2.563-2.484.91.91,0,0,1,.772.056.926.926,0,0,1,.457.631l1.186,6.27c.384-3.128,2.52-3.523,2.629-3.539l.713-.118.414,5.81-1.82,6.066,10.187-2.9-14.446,9.914-1.032,37.9,10.309-2.129-.391,15.971-.582.053C586.452,531.316,580.294,531.4,576.811,531.4Zm-2.734-1.334c.467,0,9.477.148,16.9-.477l.329-13.144-10.3,2.129,1.1-40.222,8.324-5.724-4.745,1.357,2.442-8.14-.273-3.828a3.79,3.79,0,0,0-.891,2.839v.194L583.107,471l1.278-7.022-1.071-5.662c-.559.283-1.314.812-1.314,1.577v2.892l-.588,6.467-1.6-8-.467-2.11a5.557,5.557,0,0,0-.72,2.409l-.92,9.507-1.794-7.66a2.7,2.7,0,0,0-.69,2.432v.066l-.532,7.272c.059.414.378,2.583.693,4.154l.023.125-8.366,46.541a4.308,4.308,0,0,0,.559,3.388C568.648,528.917,570.83,529.821,574.077,530.061Zm11.577-65.722-.076.414.062-.1c0-.112.007-.23.013-.322Z" transform="translate(-565.588 -435.875)"/><path d="M717.225,563.123c0-.355-.71-14.2-.71-14.2s12.077,4.985,6.395-20.6c0,0-13.7-6.963-17.932,3.02-4.44,10.473-2.3,31.78-2.3,31.78Z" transform="translate(-657.282 -482.306)" fill="#fafbfd"/><path d="M716.507,562.437H700.7l-.062-.591c-.085-.877-2.093-21.593,2.359-32.1a8.838,8.838,0,0,1,5.208-5.136c5.813-2.123,13.309,1.643,13.624,1.788l.279.141.066.3c2.415,10.874,1.972,17.784-1.295,20.538a5.8,5.8,0,0,1-5.034,1.088c.168,3.263.657,13,.657,13.315Zm-14.617-1.314h13.273c-.108-2.35-.513-10.223-.68-13.513l-.053-1.038.96.4a4.84,4.84,0,0,0,4.653-.6c1.968-1.663,3.68-6.28.914-18.928-1.374-.641-7.617-3.309-12.307-1.594a7.593,7.593,0,0,0-4.446,4.413c-3.911,9.234-2.606,27.363-2.31,30.866Z" transform="translate(-655.907 -480.962)"/><path d="M799.894,463.748l10.3-2.129-8.169-44.74-13.493-2.842,4.44-1.6-3.907-4.272L787,403.458a.687.687,0,0,1,.687-.96,3.983,3.983,0,0,1,3.506,2.12l5.324,4.272-5.324-7.1-1.4-3.924a.736.736,0,0,1,.848-.966,4.3,4.3,0,0,1,3.04,2.405l7.456,7.811-4.972-7.814-1.078-3.224a.713.713,0,0,1,.848-.92,4.24,4.24,0,0,1,2.718,2.376l4.272,5.327-1.774-3.9-.532-2.139a.329.329,0,0,1,.477-.378,4.66,4.66,0,0,1,1.824,1.8l3.907,5.678,4.617,8.524.71,3.9,11.15,49.62a5.849,5.849,0,0,1-3.565,6.727l-17,6.684Z" transform="translate(-714.205 -394.471)" fill="#fafbfd"/><path d="M800.562,478.919l-3.109-17.042,10.3-2.133-7.962-43.666-15.33-3.227,5.688-2.051-3.312-3.615-2.1-4.811a1.341,1.341,0,0,1,1.347-1.876,4.592,4.592,0,0,1,3.979,2.356l1.16.93-2.281-3.04-1.433-4.019a1.374,1.374,0,0,1,.26-1.38,1.4,1.4,0,0,1,1.341-.447,4.929,4.929,0,0,1,3.447,2.662l2.76,2.892-1.416-2.225-1.1-3.309a1.367,1.367,0,0,1,.3-1.377,1.351,1.351,0,0,1,1.334-.384,4.863,4.863,0,0,1,3.105,2.655l1.176,1.469-.421-1.669a.989.989,0,0,1,1.456-1.1,5.35,5.35,0,0,1,2.06,2.028l3.917,5.7,4.666,8.616.729,4.009L822.27,464.46a6.477,6.477,0,0,1-3.97,7.483ZM798.988,462.9l2.583,14.206,16.256-6.391a5.169,5.169,0,0,0,3.164-5.974l-11.15-49.62-.7-3.828-4.558-8.393-3.943-5.731a3.286,3.286,0,0,0-.877-1.042l.312,1.239,3.943,8.652L796.4,396.46a3.609,3.609,0,0,0-2.3-2.037.039.039,0,0,0-.039,0,.052.052,0,0,0,0,.059l1.052,3.158,4.929,7.742-1.042.838-7.525-7.887-.046-.089a3.674,3.674,0,0,0-2.583-2.054.079.079,0,0,0-.082.026.072.072,0,0,0,0,.076l1.37,3.828,8.373,11.173-9.5-7.6-.066-.151a3.341,3.341,0,0,0-2.958-1.722l-.628.306.6-.263,2.014,4.6,4.5,4.909-3.187,1.15,11.659,2.451,8.34,45.8Z" transform="translate(-712.536 -393.112)"/><path d="M703.258,531.213s-8.166,6.746-13.848,0c0,0-9.231-17.045,6.037-21.659a78.123,78.123,0,0,0,12.405-5.077,9.076,9.076,0,0,1,6.664-.92c3.454.884,7.276,3.132,4.367,8.836-4.965,9.747-13.144,9.944-13.144,9.944s-4.6-2.133-4.6,1.065a5.387,5.387,0,0,0,2.839,4.6Z" transform="translate(-646.864 -467.086)"/><path d="M668.926,604.366l14.912-3.552,15.98-3.9,3.194,16.687-15.445,6.572-7.456,41.178s-18.238,1.518-23.2,4.745c-17.282,11.235-23.66,4.844-23.66,4.844l5.682-42.966H629.69l.355-18.465,23.078-3.542S658.273,613.6,668.926,604.366Z" transform="translate(-608.625 -529.94)" fill="#00c6b7"/></g><g transform="translate(0 292.855)"><line x2="464.893" transform="translate(0 0.696)" fill="#29dbba"/><rect width="464.893" height="1.392" transform="translate(0 0)"/></g></g></g></svg>