<svg xmlns="http://www.w3.org/2000/svg" width="97.127" height="94.104" viewBox="0 0 97.127 94.104"><g transform="translate(0 0)"><path d="M2.282,20.218H5.87v46.6a9.132,9.132,0,0,0,9.191,9.132h28.7L27.939,90.076a2.283,2.283,0,0,0,1.517,4.008,2.257,2.257,0,0,0,1.526-.574L48.46,77.944l17.491,15.58a2.283,2.283,0,0,0,3.219-.186,2.316,2.316,0,0,0-.186-3.261L53.16,75.944h28.7a9.047,9.047,0,0,0,9.073-9.132v-46.6h3.826a2.41,2.41,0,0,0,2.368-2.342V2.221A2.283,2.283,0,0,0,94.765,0H2.282A2.211,2.211,0,0,0,0,2.2V17.853a2.329,2.329,0,0,0,2.283,2.364Zm84.094,46.6a4.484,4.484,0,0,1-4.51,4.566H15.057a4.566,4.566,0,0,1-4.628-4.566v-46.6H86.377ZM4.565,4.563h88V15.652h-88Z" transform="translate(0.001 0.004)" fill="#00c6b7"/><path d="M59.283,107.506h42.036a2.283,2.283,0,1,0,0-4.566H59.283a2.283,2.283,0,0,0,0,4.566Z" transform="translate(-38.41 -69.366)" fill="#00c6b7"/><path d="M59.283,135.486h55.4a2.283,2.283,0,0,0,0-4.566h-55.4a2.283,2.283,0,0,0,0,4.566Z" transform="translate(-38.41 -88.221)" fill="#00c6b7"/><path d="M59.283,162.476h55.4a2.283,2.283,0,1,0,0-4.566h-55.4a2.283,2.283,0,0,0,0,4.566Z" transform="translate(-38.41 -106.408)" fill="#00c6b7"/></g></svg>