<svg xmlns="http://www.w3.org/2000/svg" width="84.038" height="96.1" viewBox="0 0 84.038 96.1"><path d="M22.1,96.6a3.553,3.553,0,0,1-1-.2,2.436,2.436,0,0,1-1.5-2c-.5-2-1.1-4-1.6-5.9l-.9-3.1c-.4-1.5-1-2.5-2.6-2.5a2.769,2.769,0,0,0-.9.1L3.7,84.5a1.952,1.952,0,0,1-.7.1A2.609,2.609,0,0,1,.9,83.5a2.555,2.555,0,0,1,.1-3C5.1,74,9.2,67.5,13.2,61c.1-.2.3-.4.4-.6l.5-.8-.2-.3C.6,42.5,6,19.6,19.3,8.8a36.558,36.558,0,0,1,51.4,5,36.283,36.283,0,0,1,.6,45.7l-.3.1.4.7c.3.5.6,1,.9,1.4l2.4,3.9c3,4.8,6.2,9.8,9.2,14.7a4.645,4.645,0,0,1,.6,2.3c-.2,1.6-1.8,1.8-2.5,1.8h-.7l-1.7-.2c-2.6-.4-5.3-.8-7.9-1h-.8c-2,0-2.8,1.1-3.3,3-.9,3.2-1.7,5.9-2.3,8.3a2.464,2.464,0,0,1-2.4,2.1h-.4a2.415,2.415,0,0,1-1.8-1.3L47.8,74.6a10.539,10.539,0,0,0-.7-1.1l-.1-.3H38.1l-.1.2c-1.2,1.9-2.4,3.9-3.7,5.9l-4.1,6.5c-1.9,3.1-3.9,6.1-5.8,9.2A2.466,2.466,0,0,1,22.1,96.6Zm40.1-8.4,1.1-3.9c.5-1.7.9-3.3,1.4-5a2.376,2.376,0,0,1,2.4-2h.5c.7.1,1.3.2,1.9.3l7.9,1.2L65,59.2a31.413,31.413,0,0,0,9.1-22.6A31.2,31.2,0,0,0,42.7,5.4a32.114,32.114,0,0,0-20.1,7.2A30.36,30.36,0,0,0,11.5,32.1C10,42.3,12.9,51.4,20.3,59.2L8,78.7l1.3-.1h.4l2.4-.4c1.7-.3,3.4-.5,5-.8a3.751,3.751,0,0,1,1-.1c1.4,0,2,.6,2.5,2.3L23,88.1,35.8,67.6a30.781,30.781,0,0,0,6.8.7,30.51,30.51,0,0,0,6.7-.7ZM31.6,53.9a1.99,1.99,0,0,1-1.6-.7,2.582,2.582,0,0,1-.7-2.1c.1-.6.2-1.3.3-2,.3-1.7.6-3.5.9-5.2a6.3,6.3,0,0,0-2-6.3c-1.1-1-2.1-2-3.1-3l-2-2a2.533,2.533,0,0,1-.4-3.5,2.271,2.271,0,0,1,1.8-.9c2.9-.4,5.4-.8,7.8-1.1a5.714,5.714,0,0,0,4.3-3.2l.9-1.8c.8-1.7,1.7-3.3,2.5-5a2.55,2.55,0,0,1,2.4-1.8,2.2,2.2,0,0,1,.8.1A2.541,2.541,0,0,1,45.1,17c.6,1.3,1.3,2.6,1.9,3.9.5,1,.9,1.9,1.4,2.9a5.541,5.541,0,0,0,4.7,3.3c1.8.2,3.7.5,5.5.8l2.1.3a2.348,2.348,0,0,1,2.2,2.7,3.048,3.048,0,0,1-.8,1.6l-1.7,1.6c-1.3,1.2-2.5,2.5-3.8,3.7a5.8,5.8,0,0,0-1.9,5.5c.4,2.4.9,4.9,1.3,7.3.3,1.7-.4,2.9-1.7,3.2h-.5a4.013,4.013,0,0,1-1.5-.3c-2.2-1.1-4.5-2.3-6.6-3.5a6.109,6.109,0,0,0-3-.8,5.736,5.736,0,0,0-2.9.8c-2.5,1.4-4.7,2.5-6.9,3.6A3.452,3.452,0,0,1,31.6,53.9Zm9.7-28c-.7,1.3-1.3,2.5-1.9,3.8a2.654,2.654,0,0,1-2.2,1.6l-1,.1a23.356,23.356,0,0,0-2.6.4c-.6.1-1.1.2-1.6.3l-1.6.3s1.5,1.6,2,2.1c.9,1,1.8,1.9,2.8,2.9a2.783,2.783,0,0,1,.9,2.7c-.3,1.3-.5,2.7-.7,4.1-.1.6-.5,2.9-.5,2.9l2.6-1.3c1.3-.7,2.5-1.3,3.7-2a2.65,2.65,0,0,1,2.8,0c.8.5,1.6.9,2.4,1.3l3.9,2-.2-1-.3-1.8c-.2-1.4-.4-2.6-.7-3.9a2.971,2.971,0,0,1,1-3.1c1-.9,1.8-1.9,2.7-2.8.4-.4.8-.9,1.2-1.3l.7-.7-.9-.1c-.5-.1-1.1-.2-1.7-.3-1.2-.2-2.5-.4-3.8-.5a3.081,3.081,0,0,1-2.7-1.9c-.6-1.3-1.3-2.6-1.9-4l-1.1-2.2Z" transform="translate(-0.462 -0.5)" fill="#00c6b7"/></svg>