<svg xmlns="http://www.w3.org/2000/svg" width="95.716" height="100.238" viewBox="0 0 95.716 100.238"><g transform="translate(0 8.927)"><path d="M191.578,45.6h-15.31a1.468,1.468,0,0,0,0,2.937h15.31a1.468,1.468,0,0,0,0-2.937Z" transform="translate(-142.829 -45.6)" fill="#00c6b7"/><path d="M128.268,48.537h2.819a1.468,1.468,0,0,0,0-2.937h-2.819a1.468,1.468,0,1,0,0,2.937Z" transform="translate(-104.227 -45.6)" fill="#00c6b7"/><path d="M242.888,91.2h-2.819a1.468,1.468,0,1,0,0,2.937h2.819a1.468,1.468,0,1,0,0-2.937Z" transform="translate(-194.139 -82.273)" fill="#00c6b7"/><path d="M128.268,94.137h15.31a1.468,1.468,0,0,0,0-2.937h-15.31a1.468,1.468,0,1,0,0,2.937Z" transform="translate(-104.227 -82.273)" fill="#00c6b7"/><path d="M48.737,279.647a27.606,27.606,0,0,0-5.971-2.565c-.47-.137-2.017-.548-2.33-.626-.568-.157-.94-.861-1.214-1.527,4.562-3.015,7.968-8.281,7.968-12.863v-4.19c0-5.11-1.625-9.437-4.7-12.51A14.878,14.878,0,0,0,32.076,241h-.059A14.962,14.962,0,0,0,21.6,245.366c-3.074,3.093-4.7,7.42-4.7,12.51v4.19c0,4.581,3.407,9.848,7.968,12.863-.274.666-.646,1.37-1.214,1.527-.294.078-2.349.626-2.369.646a18.252,18.252,0,0,0-5.932,2.565c-2.584,1.86-3.857,4.562-3.857,8.223v3.6a2.573,2.573,0,0,0,2.565,2.565H28.67a1.468,1.468,0,0,0,0-2.937H14.437v-3.23c0-4.836,2.643-6.461,7.087-7.792l7.909,4.64a4.893,4.893,0,0,0,2.623.92,4.893,4.893,0,0,0,2.623-.92l7.909-4.64c4.464,1.351,7.087,2.956,7.087,7.792v3.23H35.483a1.468,1.468,0,0,0,0,2.937H50.049a2.573,2.573,0,0,0,2.565-2.565v-3.6c.02-3.661-1.253-6.363-3.876-8.242Zm-16.68-35.729c5.5.1,11.394,3.974,12.138,12.177a5.7,5.7,0,0,1-2.369-1.645c-1.018-1.038-2.291-2.33-4.992-1.645-.685.176-1.253.333-1.762.47a13.662,13.662,0,0,1-3.015.626,13.662,13.662,0,0,1-3.015-.626c-.509-.137-1.077-.294-1.762-.47-2.7-.685-3.974.607-4.992,1.645a5.7,5.7,0,0,1-2.369,1.645c.744-8.223,6.637-12.079,12.138-12.177Zm-12.2,18.129v-2.9a8.059,8.059,0,0,0,4.542-2.643c.861-.881,1.1-1.116,2.154-.842.666.176,1.233.333,1.742.45a14.726,14.726,0,0,0,3.779.724,14.874,14.874,0,0,0,3.779-.724c.489-.137,1.077-.294,1.742-.45,1.057-.274,1.292-.039,2.154.842a8.17,8.17,0,0,0,4.542,2.643v2.9c0,4.444-4.346,9.946-9.3,11.786a7.369,7.369,0,0,1-5.834,0C24.186,271.972,19.86,266.471,19.86,262.046Zm13.313,20.165c-.02.02-.039.02-.059.039-.959.626-1.155.626-2.114,0-.02-.02-.039-.02-.059-.039L25.322,278.9a5.336,5.336,0,0,0,2.154-2.6c.215.1.431.176.646.254a11.337,11.337,0,0,0,3.935.783,10.9,10.9,0,0,0,3.935-.783c.215-.078.431-.176.646-.254a5.336,5.336,0,0,0,2.154,2.6Z" transform="translate(-11.5 -202.745)" fill="#00c6b7"/><path d="M327.657,279.647c-2.154-1.566-4.836-2.271-7.4-2.956-.294-.078-.607-.157-.9-.235-.568-.157-.94-.861-1.214-1.527,4.562-3.015,7.968-8.281,7.968-12.863v-4.19c0-5.11-1.625-9.437-4.7-12.51A14.878,14.878,0,0,0,311,241h-.059a14.961,14.961,0,0,0-10.415,4.366c-3.074,3.093-4.7,7.42-4.7,12.51v4.19c0,4.581,3.407,9.848,7.968,12.863-.274.666-.646,1.37-1.214,1.527-.294.078-.587.157-.9.235a22.236,22.236,0,0,0-7.4,2.956c-2.6,1.879-3.876,4.581-3.876,8.242v3.6a2.573,2.573,0,0,0,2.565,2.565h15.251a1.468,1.468,0,0,0,0-2.937H293.337v-3.23c0-4.836,2.643-6.461,7.087-7.792l7.909,4.64a4.2,4.2,0,0,0,5.247,0l7.909-4.64c4.464,1.351,7.087,2.956,7.087,7.792v3.23H314.951a1.468,1.468,0,0,0,0,2.937h14a2.574,2.574,0,0,0,2.565-2.565v-3.6c.02-3.661-1.253-6.363-3.857-8.242Zm-16.68-35.729c5.5.1,11.394,3.974,12.138,12.177a5.7,5.7,0,0,1-2.369-1.645,4.731,4.731,0,0,0-3.544-1.84,5.666,5.666,0,0,0-1.429.2c-.685.176-1.253.333-1.762.47a7.568,7.568,0,0,1-6.03,0c-.509-.137-1.077-.294-1.762-.47-2.7-.685-3.974.607-4.992,1.645a5.7,5.7,0,0,1-2.369,1.645c.724-8.223,6.617-12.079,12.119-12.177ZM298.76,262.046v-2.9a8.059,8.059,0,0,0,4.542-2.643c.861-.881,1.1-1.116,2.154-.842.666.176,1.233.333,1.742.45a10.218,10.218,0,0,0,7.557,0c.489-.137,1.077-.294,1.742-.45,1.057-.274,1.292-.039,2.154.842a8.169,8.169,0,0,0,4.542,2.643v2.9c0,4.444-4.346,9.946-9.3,11.786a7.369,7.369,0,0,1-5.834,0C303.106,271.972,298.76,266.471,298.76,262.046Zm13.332,20.165c-.02.02-.039.02-.059.039-.959.626-1.155.626-2.114,0-.02-.02-.039-.02-.059-.039l-5.619-3.309a5.336,5.336,0,0,0,2.154-2.6c.215.1.431.176.646.254a11.337,11.337,0,0,0,3.935.783,10.9,10.9,0,0,0,3.935-.783c.215-.078.431-.176.646-.254a5.336,5.336,0,0,0,2.154,2.6Z" transform="translate(-235.798 -202.745)" fill="#00c6b7"/></g><g transform="translate(12.256)"><path d="M108.929,30.463h8.536a4.917,4.917,0,0,0,4.914-4.914V7.557h0V4.914A4.917,4.917,0,0,0,117.465,0H101.45a1.479,1.479,0,0,0-1.468,1.468,1.479,1.479,0,0,0,1.468,1.468h16.015a1.972,1.972,0,0,1,1.977,1.977V25.529a2,2,0,0,1-1.977,1.977H92.444a1.952,1.952,0,0,0-1.488.529.427.427,0,0,1-.1.078.519.519,0,0,1-.117.1l-5.775,5.932-.02-4.816a1.292,1.292,0,0,0-.02-.274l-.02-.059a1.738,1.738,0,0,0-1.86-1.507H79.014a2,2,0,0,1-1.977-1.977V4.914a1.972,1.972,0,0,1,1.977-1.977H94.441A1.479,1.479,0,0,0,95.91,1.468,1.479,1.479,0,0,0,94.441,0H79.014A4.93,4.93,0,0,0,74.1,4.914V25.529a4.917,4.917,0,0,0,4.914,4.914H81.99l.039,6.324a1.785,1.785,0,0,0,1,1.684,1.833,1.833,0,0,0,.744.157,2.37,2.37,0,0,0,1.527-.626c.039-.039.1-.078.137-.117l7.244-7.44h12.647l3.6.039Z" transform="translate(-74.1 0)" fill="#00c6b7"/></g></svg>