<svg xmlns="http://www.w3.org/2000/svg" width="30.912" height="18.799" viewBox="0 0 30.912 18.799"><g transform="translate(-320.112 -118.576)"><path d="M7.424,3a4.424,4.424,0,1,0,4.424,4.424A4.425,4.425,0,0,0,7.424,3ZM3.885,7.424A3.538,3.538,0,0,1,7.424,3.885a3.5,3.5,0,0,1,2.168.748L4.632,9.592A3.5,3.5,0,0,1,3.885,7.424Zm3.539,3.539a3.5,3.5,0,0,1-2.168-.748l4.959-4.959a3.5,3.5,0,0,1,.748,2.168A3.538,3.538,0,0,1,7.424,10.963Z" transform="translate(354.024 115.576) rotate(90)" fill="#00c6b7"/><g transform="translate(321.112 123.158)"><g transform="translate(-1 1)"><path d="M23.469,8.544A6.585,6.585,0,0,0,20.958,6.97a3.82,3.82,0,1,0-4.323,0A6.645,6.645,0,0,0,12.7,10.653,6.644,6.644,0,0,0,8.77,6.97a3.82,3.82,0,1,0-4.323,0A6.619,6.619,0,0,0,0,13.217H1.033a5.576,5.576,0,0,1,11.151,0H13.22a5.576,5.576,0,0,1,11.151,0H25.4A6.565,6.565,0,0,0,23.469,8.544ZM6.608,6.608A2.788,2.788,0,1,1,9.4,3.82,2.788,2.788,0,0,1,6.608,6.608Zm12.188,0A2.788,2.788,0,1,1,21.584,3.82,2.788,2.788,0,0,1,18.8,6.608Z" fill="#00c6b7"/></g></g></g></svg>