<svg xmlns="http://www.w3.org/2000/svg" xmlns:xlink="http://www.w3.org/1999/xlink" width="611.863" height="512.862" viewBox="0 0 611.863 512.862"><defs><linearGradient id="a" x1="0.5" y1="-0.227" x2="0.5" y2="0.559" gradientUnits="objectBoundingBox"><stop offset="0" stop-color="#e5e5e5"/><stop offset="0.48" stop-color="#f4f4f4"/><stop offset="1" stop-color="#fff"/></linearGradient><linearGradient id="b" x1="0.777" y1="0.146" x2="0.096" y2="0.927" gradientUnits="objectBoundingBox"><stop offset="0" stop-color="#00c6b7"/><stop offset="1" stop-color="#059489"/><stop offset="1" stop-color="#176ad4"/></linearGradient><linearGradient id="c" x1="1.154" y1="0.569" x2="0.42" y2="0.491" gradientUnits="objectBoundingBox"><stop offset="0" stop-color="#f2bfad"/><stop offset="1" stop-color="#f2dad4"/></linearGradient><linearGradient id="d" x1="0.202" y1="0.241" x2="1.023" y2="0.87" gradientUnits="objectBoundingBox"><stop offset="0" stop-color="#00c6b7"/><stop offset="0.98" stop-color="#00b7a9"/><stop offset="1" stop-color="#087a71"/></linearGradient><linearGradient id="e" x1="0.511" y1="0.622" x2="0.57" y2="1.822" gradientUnits="objectBoundingBox"><stop offset="0" stop-color="#f2bfad"/><stop offset="0.7" stop-color="#f2dad4"/></linearGradient><linearGradient id="f" x1="0.403" y1="0.306" x2="0.835" y2="1.077" xlink:href="#c"/><linearGradient id="g" x1="0.387" y1="0.075" x2="0.681" y2="1.17" gradientUnits="objectBoundingBox"><stop offset="0" stop-color="#f3f3f3"/><stop offset="1" stop-color="#ccc"/></linearGradient><linearGradient id="h" x1="0.314" y1="0.411" x2="0.919" y2="0.822" gradientUnits="objectBoundingBox"><stop offset="0" stop-color="#00c6b7"/><stop offset="1" stop-color="#059489"/></linearGradient></defs><path d="M705.526,353.537a4.253,4.253,0,1,0-8.4,1.316c.607,3.961,1.393,16.365-2.895,21.356a5.735,5.735,0,0,1-3.48,1.984l.39-23.625a6.146,6.146,0,1,0-12.286.049l1.114,44.842a5.785,5.785,0,0,1-3.6-2c-4.281-4.991-3.48-17.4-2.9-21.356a4.249,4.249,0,0,0-8.395-1.316c-.306,1.949-2.784,19.323,4.824,28.192a14.409,14.409,0,0,0,10.274,5.054l.487,19.491h9.3l.7-40.77a14.388,14.388,0,0,0,10.059-5.04C708.289,372.861,705.832,355.493,705.526,353.537Z" transform="translate(-201.933 -105.823)" fill="#bdbdbd"/><path d="M142.981,408.953a2.709,2.709,0,0,0-5.353.835c.383,2.527.877,10.441-1.852,13.616a3.6,3.6,0,0,1-2.2,1.239l.251-15.056a3.919,3.919,0,1,0-7.831,0l.7,28.588a3.689,3.689,0,0,1-2.3-1.281c-2.729-3.181-2.234-11.089-1.845-13.616a2.709,2.709,0,0,0-5.353-.835c-.195,1.246-1.761,12.314,3.077,17.973a9.168,9.168,0,0,0,6.55,3.216l.306,12.439h5.917l.425-25.992a9.133,9.133,0,0,0,6.418-3.209C144.742,421.267,143.175,410.192,142.981,408.953Z" transform="translate(-35.497 -123.225)" fill="#bdbdbd"/><ellipse cx="305.932" cy="108.305" rx="305.932" ry="108.305" transform="translate(0 296.253)" fill="url(#a)"/><path d="M504.486,392.267s-.174,10.441,0,11.465-4.079,7.156-5.819,6.884-5.214-.849-5.722-1.427-.278-1.949-.1-3.2,1.476-12.6,1.476-13.177S502.551,390.68,504.486,392.267Z" transform="translate(-149.717 -118.992)" fill="#ffd3bc"/><path d="M497.232,407.824c-2.179,1.176-3.4,4.754-3.71,4.8s-.884-.049-.884-.4.091-1.552-.306-1.552-.842,1.949-.933,4.775-1.093,9.578,0,10.441c.7.543,6.961,3.849,7.163,4.288s-.132,3.543.4,4.03,1.768,1.678,2.736,1.719,6.592.62,9.244,0,6.014-1.9,6.1-2.255-.661-7.866-1.5-8.8-6.891-9.237-7.379-9.989a8.583,8.583,0,0,1-.842-3.627c0-1.065-.961-3.376-2.784-3.933S498.847,406.94,497.232,407.824Z" transform="translate(-149.187 -123.683)" fill="url(#b)"/><path d="M418.322,400.932s0,6.07-.174,7.114,4.079,7.149,5.819,6.884,5.221-.856,5.722-1.434.278-1.949.1-3.2-1.3-8.249-1.3-8.833S420.257,399.38,418.322,400.932Z" transform="translate(-127.078 -121.629)" fill="#ffd3bc"/><path d="M422.634,208.187c-2.464,8.952-7.121,39.628-7.121,54.539s-1.49,52.9-1.49,58.694-.626,20.11.87,20.883,4.977,2.986,9.7,2.241,5.972-3.731,6.091-6.474,1.246-22.393,2.367-29.981,5.1-22.226,7.713-31.637,8.708-28.345,10.33-28.275,11.687,41.55,12.53,43.9,2.436,35.751,2.541,38.549,0,5.506,1.768,6.648,7.156,3.94,9.961,4.177,4.671-4.253,5.186-5.6,1.441-46.018,1.107-58.27.64-35.1.077-42.559-2.395-23.416-3.55-26.772S422.634,208.187,422.634,208.187Z" transform="translate(-125.786 -62.818)" fill="#333"/><path d="M396.222,42.069c2.353-2.61,13.323-14.973,15.495-15.411s7.476-1.392,8.659-2.61,6.153-16.9,4.2-19.769-9.606-2.047-11.924,2.784-2.193,7.4-6.007,10.755-20.444,16.943-22,18.321,1.51,8.082,3.954,9.209S396.222,42.069,396.222,42.069Z" transform="translate(-116.77 -0.787)" fill="url(#c)"/><path d="M420.464,59.912c-5.6,1.176-14.917,2.172-17.987,3.16s-15.189,5.249-15.1,3.439,5.569-9.745,4.608-10.574-6.961-1.81-7.949-3.077-2.353-4.246-3.71-3.884-17.075,15-16.01,20.6c2.534,13.226,39.677,22.846,40.533,28.616s-2.882,61.026-.849,63.066,23.57,9.829,34.415,10.511,29.883-3.1,30.927-5.959-5.3-57.775-4.559-57.775.94,17.291,9.2,21.76c5.457,2.951,12.961-.09,14.4-1.719s-5.13-24.607-8.1-32.354S474.495,71.955,467.8,66.275s-16.2-4.713-19.491-6.049-14.221-.383-16.978-.7S420.464,59.912,420.464,59.912Z" transform="translate(-110.704 -14.864)" fill="url(#d)"/><path d="M540.52,143.813s-9.662,2.917-10.441,3.926-2.088,5.026,0,6.7,4.385,2.931,6.87,1,4.747-4.532,6.188-4.873,5.729.285,7.532-.418,5.221-14.374,3.842-15.2S540.52,143.813,540.52,143.813Z" transform="translate(-160.754 -40.983)" fill="url(#e)"/><path d="M440.413,43.188c-3.118-.647-9.14-6.536-9.69-12.53-.536-5.833-4.824-22.212,10.093-28.352,14-5.764,28.407.167,30.475,7.274,1.935,6.634-14.5,6.961-20.521,11.256s-6.432,7.2-7.935,6.515S440.413,43.188,440.413,43.188Z" transform="translate(-130.604 0.016)" fill="#333"/><path d="M444.543,44.079c-.2,2.673-.87,15.585.244,17.486,1.03,1.747,2.854,6.815,10.01,6.592s11.792-7.379,12.189-8.214-.452-11.186-.452-12.912-9.613-5.812-13.435-5.7S444.745,41.573,444.543,44.079Z" transform="translate(-134.984 -12.549)" fill="url(#f)"/><path d="M442.755,36.209c.807,0-.146,4.873,1.316,6.5s7.824,9.968,14.562,9.174c5.819-.7,4.984-5.722,5.819-9.857.766-3.745,3.188-4.072,4.037-13.859.327-3.794,2.088-9.745-1.169-10.824s-15.648-4.016-18.718,0-3.362,13.671-4.97,12.432-4.97-7.309-6.961-4.023S438.446,36.334,442.755,36.209Z" transform="translate(-132.542 -4.637)" fill="#f2dad4"/><path d="M511.58,116.83,491.985,141.6a1.942,1.942,0,0,0,1.559,3.153l36.2-.613a1.949,1.949,0,0,0,1.524-.78l18.509-24.732a1.768,1.768,0,0,0-1.434-2.826l-35.271.292a1.907,1.907,0,0,0-1.49.738Z" transform="translate(-149.39 -35.182)" fill="url(#g)"/><path d="M558.18,131.6c-1.907.195-4.671,1.267-4.671,2.262s2.221,1.267,2.833,1.392,1.392.285,1.19.592-.7,1.838-1.921,1.566a74.182,74.182,0,0,0-7.657-.341c-1.065,0-2.262.7-2.339,1.5s-.306.919-.919.954-1.726.613-1.726,1.615,2.457,1.893,2.457,2.241,4.831,3.306,5.778,3.849,2.715,1.949,3.717,1.949a3,3,0,0,0,2.784-2.318c.118-1.371,2.088-2.367,2.088-3.042s-.626-1.169-.55-1.594,1.8-1.023,1.8-2.088a13.363,13.363,0,0,0-.773-2.965c-.077-.445-.5-1.392-.1-1.545s1.8-1.392,1.545-2.617S559.064,131.513,558.18,131.6Z" transform="translate(-165.014 -39.98)" fill="#ffd3bc"/><path d="M419.178,410.232c2.179,1.176,3.4,4.754,3.71,4.8s.884-.042.884-.4-.09-1.545.306-1.545.842,1.942.933,4.775,1.093,9.578,0,10.441c-.7.536-6.961,3.849-7.163,4.288s.132,3.536-.4,4.023-1.768,1.678-2.743,1.726-6.592.62-9.244,0-6.014-1.9-6.1-2.255.661-7.873,1.5-8.8,6.9-9.244,7.379-10a8.562,8.562,0,0,0,.842-3.627c0-1.058.961-3.376,2.784-3.933S417.542,409.348,419.178,410.232Z" transform="translate(-121.37 -124.413)" fill="url(#h)"/></svg>